%TF.GenerationSoftware,KiCad,Pcbnew,9.0.7*%
%TF.CreationDate,2026-05-08T21:32:46+02:00*%
%TF.ProjectId,BusPlate,42757350-6c61-4746-952e-6b696361645f,rev?*%
%TF.SameCoordinates,Original*%
%TF.FileFunction,Copper,L1,Top*%
%TF.FilePolarity,Positive*%
%FSLAX46Y46*%
G04 Gerber Fmt 4.6, Leading zero omitted, Abs format (unit mm)*
G04 Created by KiCad (PCBNEW 9.0.7) date 2026-05-08 21:32:46*
%MOMM*%
%LPD*%
G01*
G04 APERTURE LIST*
G04 Aperture macros list*
%AMRoundRect*
0 Rectangle with rounded corners*
0 $1 Rounding radius*
0 $2 $3 $4 $5 $6 $7 $8 $9 X,Y pos of 4 corners*
0 Add a 4 corners polygon primitive as box body*
4,1,4,$2,$3,$4,$5,$6,$7,$8,$9,$2,$3,0*
0 Add four circle primitives for the rounded corners*
1,1,$1+$1,$2,$3*
1,1,$1+$1,$4,$5*
1,1,$1+$1,$6,$7*
1,1,$1+$1,$8,$9*
0 Add four rect primitives between the rounded corners*
20,1,$1+$1,$2,$3,$4,$5,0*
20,1,$1+$1,$4,$5,$6,$7,0*
20,1,$1+$1,$6,$7,$8,$9,0*
20,1,$1+$1,$8,$9,$2,$3,0*%
%AMFreePoly0*
4,1,9,3.862500,-0.866500,0.737500,-0.866500,0.737500,-0.450000,-0.737500,-0.450000,-0.737500,0.450000,0.737500,0.450000,0.737500,0.866500,3.862500,0.866500,3.862500,-0.866500,3.862500,-0.866500,$1*%
G04 Aperture macros list end*
%TA.AperFunction,SMDPad,CuDef*%
%ADD10RoundRect,0.135000X-0.185000X0.135000X-0.185000X-0.135000X0.185000X-0.135000X0.185000X0.135000X0*%
%TD*%
%TA.AperFunction,ComponentPad*%
%ADD11R,1.700000X1.700000*%
%TD*%
%TA.AperFunction,ComponentPad*%
%ADD12C,1.700000*%
%TD*%
%TA.AperFunction,SMDPad,CuDef*%
%ADD13RoundRect,0.140000X0.170000X-0.140000X0.170000X0.140000X-0.170000X0.140000X-0.170000X-0.140000X0*%
%TD*%
%TA.AperFunction,SMDPad,CuDef*%
%ADD14RoundRect,0.140000X0.140000X0.170000X-0.140000X0.170000X-0.140000X-0.170000X0.140000X-0.170000X0*%
%TD*%
%TA.AperFunction,SMDPad,CuDef*%
%ADD15RoundRect,0.225000X0.425000X0.225000X-0.425000X0.225000X-0.425000X-0.225000X0.425000X-0.225000X0*%
%TD*%
%TA.AperFunction,SMDPad,CuDef*%
%ADD16FreePoly0,180.000000*%
%TD*%
%TA.AperFunction,SMDPad,CuDef*%
%ADD17RoundRect,0.050000X-0.387500X-0.050000X0.387500X-0.050000X0.387500X0.050000X-0.387500X0.050000X0*%
%TD*%
%TA.AperFunction,SMDPad,CuDef*%
%ADD18RoundRect,0.050000X-0.050000X-0.387500X0.050000X-0.387500X0.050000X0.387500X-0.050000X0.387500X0*%
%TD*%
%TA.AperFunction,HeatsinkPad*%
%ADD19R,3.200000X3.200000*%
%TD*%
%TA.AperFunction,SMDPad,CuDef*%
%ADD20RoundRect,0.062500X0.062500X-0.350000X0.062500X0.350000X-0.062500X0.350000X-0.062500X-0.350000X0*%
%TD*%
%TA.AperFunction,SMDPad,CuDef*%
%ADD21RoundRect,0.062500X0.350000X-0.062500X0.350000X0.062500X-0.350000X0.062500X-0.350000X-0.062500X0*%
%TD*%
%TA.AperFunction,HeatsinkPad*%
%ADD22R,2.500000X2.500000*%
%TD*%
%TA.AperFunction,SMDPad,CuDef*%
%ADD23R,0.350000X0.650000*%
%TD*%
%TA.AperFunction,SMDPad,CuDef*%
%ADD24R,2.400000X1.550000*%
%TD*%
%TA.AperFunction,SMDPad,CuDef*%
%ADD25RoundRect,0.250000X-0.450000X-0.350000X0.450000X-0.350000X0.450000X0.350000X-0.450000X0.350000X0*%
%TD*%
%TA.AperFunction,SMDPad,CuDef*%
%ADD26RoundRect,0.140000X-0.140000X-0.170000X0.140000X-0.170000X0.140000X0.170000X-0.140000X0.170000X0*%
%TD*%
%TA.AperFunction,SMDPad,CuDef*%
%ADD27RoundRect,0.100000X-0.100000X0.130000X-0.100000X-0.130000X0.100000X-0.130000X0.100000X0.130000X0*%
%TD*%
%TA.AperFunction,SMDPad,CuDef*%
%ADD28RoundRect,0.135000X0.135000X0.185000X-0.135000X0.185000X-0.135000X-0.185000X0.135000X-0.185000X0*%
%TD*%
%TA.AperFunction,SMDPad,CuDef*%
%ADD29RoundRect,0.140000X-0.170000X0.140000X-0.170000X-0.140000X0.170000X-0.140000X0.170000X0.140000X0*%
%TD*%
%TA.AperFunction,HeatsinkPad*%
%ADD30O,1.000000X1.600000*%
%TD*%
%TA.AperFunction,HeatsinkPad*%
%ADD31O,1.000000X2.100000*%
%TD*%
%TA.AperFunction,ComponentPad*%
%ADD32RoundRect,0.250000X-0.550000X-0.550000X0.550000X-0.550000X0.550000X0.550000X-0.550000X0.550000X0*%
%TD*%
%TA.AperFunction,ComponentPad*%
%ADD33C,1.600000*%
%TD*%
%TA.AperFunction,WasherPad*%
%ADD34C,3.650000*%
%TD*%
%TA.AperFunction,ComponentPad*%
%ADD35R,1.500000X1.500000*%
%TD*%
%TA.AperFunction,ComponentPad*%
%ADD36C,1.500000*%
%TD*%
%TA.AperFunction,ViaPad*%
%ADD37C,0.600000*%
%TD*%
%TA.AperFunction,Conductor*%
%ADD38C,0.200000*%
%TD*%
%TA.AperFunction,Conductor*%
%ADD39C,0.500000*%
%TD*%
%TA.AperFunction,Conductor*%
%ADD40C,0.100000*%
%TD*%
G04 APERTURE END LIST*
D10*
%TO.P,R2,1*%
%TO.N,Net-(J1-CC2)*%
X111500000Y-77990000D03*
%TO.P,R2,2*%
%TO.N,GND*%
X111500000Y-79010000D03*
%TD*%
D11*
%TO.P,J2,1,Pin_1*%
%TO.N,GPIO0*%
X123000000Y-70680000D03*
D12*
%TO.P,J2,2,Pin_2*%
%TO.N,GPIO1*%
X123000000Y-73220000D03*
%TO.P,J2,3,Pin_3*%
%TO.N,GPIO2*%
X123000000Y-75760000D03*
%TO.P,J2,4,Pin_4*%
%TO.N,GPIO3*%
X123000000Y-78300000D03*
%TO.P,J2,5,Pin_5*%
%TO.N,GPIO4*%
X123000000Y-80840000D03*
%TO.P,J2,6,Pin_6*%
%TO.N,GPIO5*%
X123000000Y-83380000D03*
%TO.P,J2,7,Pin_7*%
%TO.N,GPIO6*%
X123000000Y-85920000D03*
%TO.P,J2,8,Pin_8*%
%TO.N,GPIO7*%
X123000000Y-88460000D03*
%TO.P,J2,9,Pin_9*%
%TO.N,GPIO8*%
X123000000Y-91000000D03*
%TO.P,J2,10,Pin_10*%
%TO.N,GPIO9*%
X123000000Y-93540000D03*
%TO.P,J2,11,Pin_11*%
%TO.N,GPIO10*%
X123000000Y-96080000D03*
%TO.P,J2,12,Pin_12*%
%TO.N,GPIO11*%
X123000000Y-98620000D03*
%TO.P,J2,13,Pin_13*%
%TO.N,GPIO12*%
X123000000Y-101160000D03*
%TO.P,J2,14,Pin_14*%
%TO.N,GPIO13*%
X123000000Y-103700000D03*
%TO.P,J2,15,Pin_15*%
%TO.N,GPIO14*%
X123000000Y-106240000D03*
%TO.P,J2,16,Pin_16*%
%TO.N,GPIO15*%
X123000000Y-108780000D03*
%TD*%
D13*
%TO.P,C20,1*%
%TO.N,+3.3V*%
X100980000Y-102980000D03*
%TO.P,C20,2*%
%TO.N,GND*%
X100980000Y-102020000D03*
%TD*%
D14*
%TO.P,C3,1*%
%TO.N,GND*%
X141980000Y-79000000D03*
%TO.P,C3,2*%
%TO.N,XIN*%
X141020000Y-79000000D03*
%TD*%
D15*
%TO.P,U2,1,GND*%
%TO.N,GND*%
X103950000Y-78500000D03*
D16*
%TO.P,U2,2,VI*%
%TO.N,VBUS*%
X103862500Y-77000000D03*
D15*
%TO.P,U2,3,VO*%
%TO.N,+3.3V*%
X103950000Y-75500000D03*
%TD*%
D17*
%TO.P,U1,1,IOVDD*%
%TO.N,+3.3V*%
X130000000Y-71200000D03*
%TO.P,U1,2,GPIO0*%
%TO.N,GPIO0*%
X130000000Y-71600000D03*
%TO.P,U1,3,GPIO1*%
%TO.N,GPIO1*%
X130000000Y-72000000D03*
%TO.P,U1,4,GPIO2*%
%TO.N,GPIO2*%
X130000000Y-72400000D03*
%TO.P,U1,5,GPIO3*%
%TO.N,GPIO3*%
X130000000Y-72800000D03*
%TO.P,U1,6,GPIO4*%
%TO.N,GPIO4*%
X130000000Y-73200000D03*
%TO.P,U1,7,GPIO5*%
%TO.N,GPIO5*%
X130000000Y-73600000D03*
%TO.P,U1,8,GPIO6*%
%TO.N,GPIO6*%
X130000000Y-74000000D03*
%TO.P,U1,9,GPIO7*%
%TO.N,GPIO7*%
X130000000Y-74400000D03*
%TO.P,U1,10,IOVDD*%
%TO.N,+3.3V*%
X130000000Y-74800000D03*
%TO.P,U1,11,GPIO8*%
%TO.N,GPIO8*%
X130000000Y-75200000D03*
%TO.P,U1,12,GPIO9*%
%TO.N,GPIO9*%
X130000000Y-75600000D03*
%TO.P,U1,13,GPIO10*%
%TO.N,GPIO10*%
X130000000Y-76000000D03*
%TO.P,U1,14,GPIO11*%
%TO.N,GPIO11*%
X130000000Y-76400000D03*
D18*
%TO.P,U1,15,GPIO12*%
%TO.N,GPIO12*%
X130837500Y-77237500D03*
%TO.P,U1,16,GPIO13*%
%TO.N,GPIO13*%
X131237500Y-77237500D03*
%TO.P,U1,17,GPIO14*%
%TO.N,GPIO14*%
X131637500Y-77237500D03*
%TO.P,U1,18,GPIO15*%
%TO.N,GPIO15*%
X132037500Y-77237500D03*
%TO.P,U1,19,TESTEN*%
%TO.N,GND*%
X132437500Y-77237500D03*
%TO.P,U1,20,XIN*%
%TO.N,XIN*%
X132837500Y-77237500D03*
%TO.P,U1,21,XOUT*%
%TO.N,XOUT*%
X133237500Y-77237500D03*
%TO.P,U1,22,IOVDD*%
%TO.N,+3.3V*%
X133637500Y-77237500D03*
%TO.P,U1,23,DVDD*%
X134037500Y-77237500D03*
%TO.P,U1,24,SWCLK*%
%TO.N,unconnected-(U1-SWCLK-Pad24)*%
X134437500Y-77237500D03*
%TO.P,U1,25,SWDIO*%
%TO.N,unconnected-(U1-SWDIO-Pad25)*%
X134837500Y-77237500D03*
%TO.P,U1,26,RUN*%
%TO.N,unconnected-(U1-RUN-Pad26)*%
X135237500Y-77237500D03*
%TO.P,U1,27,GPIO16*%
%TO.N,GPIO16*%
X135637500Y-77237500D03*
%TO.P,U1,28,GPIO17*%
%TO.N,GPIO17*%
X136037500Y-77237500D03*
D17*
%TO.P,U1,29,GPIO18*%
%TO.N,GPIO18*%
X136875000Y-76400000D03*
%TO.P,U1,30,GPIO19*%
%TO.N,GPIO19*%
X136875000Y-76000000D03*
%TO.P,U1,31,GPIO20*%
%TO.N,GPIO20*%
X136875000Y-75600000D03*
%TO.P,U1,32,GPIO21*%
%TO.N,GPIO21*%
X136875000Y-75200000D03*
%TO.P,U1,33,IOVDD*%
%TO.N,+3.3V*%
X136875000Y-74800000D03*
%TO.P,U1,34,GPIO22*%
%TO.N,GPIO22*%
X136875000Y-74400000D03*
%TO.P,U1,35,GPIO23*%
%TO.N,GPIO23*%
X136875000Y-74000000D03*
%TO.P,U1,36,GPIO24*%
%TO.N,GPIO24*%
X136875000Y-73600000D03*
%TO.P,U1,37,GPIO25*%
%TO.N,GPIO25*%
X136875000Y-73200000D03*
%TO.P,U1,38,GPIO26/ADC0*%
%TO.N,GPIO26_ADC0*%
X136875000Y-72800000D03*
%TO.P,U1,39,GPIO27/ADC1*%
%TO.N,GPIO27_ADC1*%
X136875000Y-72400000D03*
%TO.P,U1,40,GPIO28/ADC2*%
%TO.N,GPIO28_ADC3*%
X136875000Y-72000000D03*
%TO.P,U1,41,GPIO29/ADC3*%
%TO.N,GPIO29_ADC4*%
X136875000Y-71600000D03*
%TO.P,U1,42,IOVDD*%
%TO.N,+3.3V*%
X136875000Y-71200000D03*
D18*
%TO.P,U1,43,ADC_AVDD*%
%TO.N,+1V1*%
X136037500Y-70362500D03*
%TO.P,U1,44,VREG_VIN*%
%TO.N,+3.3V*%
X135637500Y-70362500D03*
%TO.P,U1,45,VREG_VOUT*%
X135237500Y-70362500D03*
%TO.P,U1,46,USB_DM*%
%TO.N,Net-(U1-USB_DM)*%
X134837500Y-70362500D03*
%TO.P,U1,47,USB_DP*%
%TO.N,Net-(U1-USB_DP)*%
X134437500Y-70362500D03*
%TO.P,U1,48,USB_VDD*%
%TO.N,+1V1*%
X134037500Y-70362500D03*
%TO.P,U1,49,IOVDD*%
%TO.N,+3.3V*%
X133637500Y-70362500D03*
%TO.P,U1,50,DVDD*%
X133237500Y-70362500D03*
%TO.P,U1,51,QSPI_SD3*%
%TO.N,QSPI_SCLK*%
X132837500Y-70362500D03*
%TO.P,U1,52,QSPI_SCLK*%
%TO.N,QSPI_SD0*%
X132437500Y-70362500D03*
%TO.P,U1,53,QSPI_SD0*%
%TO.N,QSPI_SD1*%
X132037500Y-70362500D03*
%TO.P,U1,54,QSPI_SD2*%
%TO.N,QSPI_SD3*%
X131637500Y-70362500D03*
%TO.P,U1,55,QSPI_SD1*%
%TO.N,QSPI_SD2*%
X131237500Y-70362500D03*
%TO.P,U1,56,~{QSPI_SS}*%
%TO.N,QSPI_SS*%
X130837500Y-70362500D03*
D19*
%TO.P,U1,57,GND*%
%TO.N,unconnected-(U1-GND-Pad57)*%
X133437500Y-73800000D03*
%TD*%
D11*
%TO.P,J3,1,Pin_1*%
%TO.N,GPIO22*%
X119000000Y-75540000D03*
D12*
%TO.P,J3,2,Pin_2*%
%TO.N,GPIO23*%
X119000000Y-73000000D03*
%TO.P,J3,3,Pin_3*%
%TO.N,GPIO24*%
X119000000Y-70460000D03*
%TD*%
D20*
%TO.P,U4,1,TXCAN*%
%TO.N,Net-(U4-TXCAN)*%
X103404000Y-105513500D03*
%TO.P,U4,2,RXCAN*%
%TO.N,Net-(U4-RXCAN)*%
X103904000Y-105513500D03*
%TO.P,U4,3,CLKOUT/SOF*%
%TO.N,unconnected-(U4-CLKOUT{slash}SOF-Pad3)*%
X104404000Y-105513500D03*
%TO.P,U4,4,~{TX0RTS}*%
%TO.N,unconnected-(U4-~{TX0RTS}-Pad4)*%
X104904000Y-105513500D03*
%TO.P,U4,5,~{TX1RTS}*%
%TO.N,unconnected-(U4-~{TX1RTS}-Pad5)*%
X105404000Y-105513500D03*
D21*
%TO.P,U4,6,~{TX2RTS}*%
%TO.N,unconnected-(U4-~{TX2RTS}-Pad6)*%
X106341500Y-104576000D03*
%TO.P,U4,7,OSC2*%
%TO.N,OSC2*%
X106341500Y-104076000D03*
%TO.P,U4,8,OSC1*%
%TO.N,OSC1*%
X106341500Y-103576000D03*
%TO.P,U4,9,VSS*%
%TO.N,GND*%
X106341500Y-103076000D03*
%TO.P,U4,10,~{RX1BF}*%
%TO.N,unconnected-(U4-~{RX1BF}-Pad10)*%
X106341500Y-102576000D03*
D20*
%TO.P,U4,11,~{RX0BF}*%
%TO.N,unconnected-(U4-~{RX0BF}-Pad11)*%
X105404000Y-101638500D03*
%TO.P,U4,12,~{INT}*%
%TO.N,GPIO20*%
X104904000Y-101638500D03*
%TO.P,U4,13,SCK*%
%TO.N,GPIO18*%
X104404000Y-101638500D03*
%TO.P,U4,14,SI*%
%TO.N,GPIO19*%
X103904000Y-101638500D03*
%TO.P,U4,15,SO*%
%TO.N,GPIO16*%
X103404000Y-101638500D03*
D21*
%TO.P,U4,16,~{CS}*%
%TO.N,GPIO17*%
X102466500Y-102576000D03*
%TO.P,U4,17,~{RESET}*%
%TO.N,unconnected-(U4-~{RESET}-Pad17)*%
X102466500Y-103076000D03*
%TO.P,U4,18,VDD*%
%TO.N,+3.3V*%
X102466500Y-103576000D03*
%TO.P,U4,19*%
%TO.N,N/C*%
X102466500Y-104076000D03*
%TO.P,U4,20*%
X102466500Y-104576000D03*
D22*
%TO.P,U4,21*%
X104404000Y-103576000D03*
%TD*%
D10*
%TO.P,R1,1*%
%TO.N,Net-(J1-CC1)*%
X110000000Y-77980000D03*
%TO.P,R1,2*%
%TO.N,GND*%
X110000000Y-79000000D03*
%TD*%
D14*
%TO.P,C23,1*%
%TO.N,OSC2*%
X110779000Y-101201000D03*
%TO.P,C23,2*%
%TO.N,GND*%
X109819000Y-101201000D03*
%TD*%
D23*
%TO.P,U5,1,TXD*%
%TO.N,Net-(U4-RXCAN)*%
X114137500Y-104950000D03*
%TO.P,U5,2,VSS*%
%TO.N,GND*%
X114787500Y-104950000D03*
%TO.P,U5,3,VDD*%
%TO.N,+3.3V*%
X115437500Y-104950000D03*
%TO.P,U5,4,RXD*%
%TO.N,Net-(U4-TXCAN)*%
X116087500Y-104950000D03*
%TO.P,U5,5,Vio*%
%TO.N,+3.3V*%
X116087500Y-101850000D03*
%TO.P,U5,6,CANL*%
%TO.N,CAN_L_IN*%
X115437500Y-101850000D03*
%TO.P,U5,7,CANH*%
%TO.N,CAN_H_IN*%
X114787500Y-101850000D03*
%TO.P,U5,8,SHDN*%
%TO.N,unconnected-(U5-SHDN-Pad8)*%
X114137500Y-101850000D03*
D24*
%TO.P,U5,9,PAD*%
%TO.N,GND*%
X115112500Y-103400000D03*
%TD*%
D13*
%TO.P,C21,1*%
%TO.N,+3.3V*%
X100500000Y-100980000D03*
%TO.P,C21,2*%
%TO.N,GND*%
X100500000Y-100020000D03*
%TD*%
D14*
%TO.P,C22,1*%
%TO.N,GND*%
X110779000Y-105401000D03*
%TO.P,C22,2*%
%TO.N,OSC1*%
X109819000Y-105401000D03*
%TD*%
D25*
%TO.P,Y2,1,1*%
%TO.N,OSC1*%
X109099000Y-104201000D03*
%TO.P,Y2,2,G*%
%TO.N,GND*%
X111299000Y-104201000D03*
%TO.P,Y2,3,3*%
%TO.N,OSC2*%
X111299000Y-102501000D03*
%TO.P,Y2,4,G*%
%TO.N,GND*%
X109099000Y-102501000D03*
%TD*%
%TO.P,Y1,1,1*%
%TO.N,XIN*%
X140400000Y-77350000D03*
%TO.P,Y1,2,G*%
%TO.N,GND*%
X142600000Y-77350000D03*
%TO.P,Y1,3,3*%
%TO.N,Net-(C4-Pad1)*%
X142600000Y-75650000D03*
%TO.P,Y1,4,G*%
%TO.N,GND*%
X140400000Y-75650000D03*
%TD*%
D26*
%TO.P,C19,1*%
%TO.N,+3.3V*%
X116020000Y-107500000D03*
%TO.P,C19,2*%
%TO.N,GND*%
X116980000Y-107500000D03*
%TD*%
D27*
%TO.P,C2,1*%
%TO.N,+3.3V*%
X108000000Y-77680000D03*
%TO.P,C2,2*%
%TO.N,GND*%
X108000000Y-78320000D03*
%TD*%
D11*
%TO.P,J4,1,Pin_1*%
%TO.N,+3.3V*%
X119000000Y-80000000D03*
D12*
%TO.P,J4,2,Pin_2*%
%TO.N,GND*%
X116460000Y-80000000D03*
%TD*%
D27*
%TO.P,C1,1*%
%TO.N,VBUS*%
X105500000Y-77580000D03*
%TO.P,C1,2*%
%TO.N,GND*%
X105500000Y-78220000D03*
%TD*%
D14*
%TO.P,C4,1*%
%TO.N,Net-(C4-Pad1)*%
X142000000Y-74000000D03*
%TO.P,C4,2*%
%TO.N,GND*%
X141040000Y-74000000D03*
%TD*%
D28*
%TO.P,R5,1*%
%TO.N,Net-(C4-Pad1)*%
X136510000Y-78500000D03*
%TO.P,R5,2*%
%TO.N,XOUT*%
X135490000Y-78500000D03*
%TD*%
D29*
%TO.P,C18,1*%
%TO.N,+3.3V*%
X117500000Y-102020000D03*
%TO.P,C18,2*%
%TO.N,GND*%
X117500000Y-102980000D03*
%TD*%
D30*
%TO.P,J1,S1,SHIELD*%
%TO.N,GND*%
X106180000Y-69905000D03*
D31*
X106180000Y-74085000D03*
D30*
X114820000Y-69905000D03*
D31*
X114820000Y-74085000D03*
%TD*%
D32*
%TO.P,SW2,1*%
%TO.N,CAN_L_IN*%
X130000000Y-102012500D03*
D33*
%TO.P,SW2,2*%
%TO.N,Net-(R8-Pad2)*%
X137620000Y-102012500D03*
%TD*%
D34*
%TO.P,J13,*%
%TO.N,*%
X107000000Y-95500000D03*
X107000000Y-84070000D03*
D35*
%TO.P,J13,1*%
%TO.N,CAN_H_IN*%
X113350000Y-94230000D03*
D36*
%TO.P,J13,2*%
%TO.N,CAN_L_IN*%
X115890000Y-92960000D03*
%TO.P,J13,3*%
%TO.N,GND*%
X113350000Y-91690000D03*
%TO.P,J13,4*%
X115890000Y-90420000D03*
%TO.P,J13,5*%
X113350000Y-89150000D03*
%TO.P,J13,6*%
X115890000Y-87880000D03*
%TO.P,J13,7*%
%TO.N,VBUS*%
X113350000Y-86610000D03*
%TO.P,J13,8*%
X115890000Y-85340000D03*
%TD*%
D34*
%TO.P,J12,*%
%TO.N,*%
X138350000Y-84070000D03*
X138350000Y-95500000D03*
D35*
%TO.P,J12,1*%
%TO.N,CAN_H_IN*%
X132000000Y-85340000D03*
D36*
%TO.P,J12,2*%
%TO.N,CAN_L_IN*%
X129460000Y-86610000D03*
%TO.P,J12,3*%
%TO.N,GND*%
X132000000Y-87880000D03*
%TO.P,J12,4*%
X129460000Y-89150000D03*
%TO.P,J12,5*%
X132000000Y-90420000D03*
%TO.P,J12,6*%
X129460000Y-91690000D03*
%TO.P,J12,7*%
%TO.N,VBUS*%
X132000000Y-92960000D03*
%TO.P,J12,8*%
X129460000Y-94230000D03*
%TD*%
D37*
%TO.N,GND*%
X125500000Y-69000000D03*
X111700000Y-105325735D03*
X126539527Y-68201000D03*
X112500000Y-98500000D03*
X107500000Y-79000000D03*
X103000000Y-98250000D03*
X106469669Y-78530331D03*
X128685550Y-80000000D03*
X115500000Y-77000000D03*
X109500000Y-79000000D03*
X118000000Y-98500000D03*
X134500000Y-105000000D03*
X132482495Y-79482495D03*
X112400000Y-101000000D03*
X112000000Y-79000000D03*
%TO.N,VBUS*%
X113000000Y-76500000D03*
X108000000Y-76500000D03*
X132000000Y-94500000D03*
X102000000Y-79000000D03*
%TO.N,+3.3V*%
X116000000Y-106500000D03*
X117437925Y-99250000D03*
X131000000Y-75000000D03*
X135511646Y-68385002D03*
X135961002Y-74988445D03*
X114500000Y-106000000D03*
X116500000Y-77000000D03*
X103000000Y-99250000D03*
X138000000Y-71500000D03*
X140000000Y-72400000D03*
X108654617Y-77956008D03*
X105500000Y-76500000D03*
X125500000Y-67800000D03*
X133837500Y-77163422D03*
%TO.N,+1V1*%
X135000000Y-69000000D03*
%TO.N,USB_D-*%
X110631374Y-72368626D03*
X109500000Y-73500000D03*
%TO.N,Net-(J1-CC2)*%
X111500000Y-77250000D03*
%TO.N,USB_D+*%
X110065687Y-72934313D03*
X111197061Y-71802939D03*
%TO.N,Net-(J1-CC1)*%
X109500000Y-77250000D03*
%TO.N,CAN_L_IN*%
X124500000Y-88500000D03*
%TO.N,CAN_H_IN*%
X121500000Y-90000000D03*
%TO.N,Net-(U1-USB_DM)*%
X135618885Y-71435808D03*
X103500000Y-82000000D03*
%TO.N,Net-(U1-USB_DP)*%
X133776764Y-71299000D03*
X118000000Y-67800000D03*
X102601000Y-82000000D03*
X118000000Y-69000000D03*
%TO.N,QSPI_SS*%
X129000000Y-69000000D03*
%TO.N,QSPI_SCLK*%
X132000000Y-76000000D03*
%TO.N,QSPI_SD0*%
X132133578Y-71700001D03*
%TO.N,GPIO18*%
X106000000Y-100000000D03*
X138000000Y-77000000D03*
X139876000Y-103500000D03*
X141500000Y-103500000D03*
%TO.N,GPIO22*%
X138441381Y-74621104D03*
%TO.N,GPIO19*%
X107000000Y-100000000D03*
X138565687Y-76434313D03*
X141500000Y-104500000D03*
X139475000Y-104500000D03*
%TO.N,QSPI_SD1*%
X130500000Y-69000000D03*
%TO.N,GPIO23*%
X138799000Y-73905484D03*
%TO.N,GPIO20*%
X138631804Y-75637047D03*
X139000000Y-105500000D03*
X105167237Y-100667237D03*
X141500000Y-105500000D03*
%TO.N,GPIO16*%
X103279000Y-101638500D03*
X135734443Y-76153587D03*
%TO.N,GPIO24*%
X138000000Y-73000000D03*
%TO.N,GPIO17*%
X137000000Y-77500000D03*
X102466500Y-102451000D03*
%TO.N,QSPI_SD3*%
X130937113Y-72725390D03*
%TO.N,QSPI_SD2*%
X131500000Y-69000000D03*
%TD*%
D38*
%TO.N,GND*%
X108524000Y-103076000D02*
X106361500Y-103076000D01*
X100980000Y-100420057D02*
X102450028Y-98950028D01*
X100500000Y-100020000D02*
X101380056Y-100020000D01*
X109099000Y-102501000D02*
X109599000Y-102501000D01*
X118111000Y-98611000D02*
X118000000Y-98500000D01*
X114787500Y-104425000D02*
X112500000Y-102137500D01*
X110779000Y-104721000D02*
X111299000Y-104201000D01*
X112500000Y-102137500D02*
X112500000Y-98500000D01*
D39*
X107500000Y-79000000D02*
X107500000Y-78361000D01*
D38*
X111500000Y-79010000D02*
X111990000Y-79010000D01*
X109819000Y-101201000D02*
X109819000Y-101781000D01*
X111990000Y-79010000D02*
X112000000Y-79000000D01*
X102450028Y-98950028D02*
X102900057Y-98500000D01*
X132437500Y-79437500D02*
X132482495Y-79482495D01*
D39*
X106439338Y-78500000D02*
X106469669Y-78530331D01*
D38*
X100980000Y-102020000D02*
X100980000Y-100420057D01*
X102900057Y-98500000D02*
X103000000Y-98500000D01*
X109599000Y-102501000D02*
X111299000Y-104201000D01*
X126299000Y-68201000D02*
X125500000Y-69000000D01*
X126539527Y-68201000D02*
X126299000Y-68201000D01*
X118111000Y-106369000D02*
X118111000Y-98611000D01*
X111299000Y-104201000D02*
X111299000Y-104924735D01*
X141040000Y-74000000D02*
X141040000Y-75010000D01*
X110779000Y-105701000D02*
X110779000Y-104721000D01*
D39*
X103950000Y-78500000D02*
X106439338Y-78500000D01*
D38*
X109099000Y-102501000D02*
X108524000Y-103076000D01*
X108000000Y-78320000D02*
X107541000Y-78320000D01*
X116305500Y-102980000D02*
X114787500Y-104498000D01*
X141980000Y-77970000D02*
X142600000Y-77350000D01*
X132437500Y-77237500D02*
X132437500Y-79437500D01*
X114787500Y-104498000D02*
X114787500Y-104950000D01*
X107541000Y-78320000D02*
X107500000Y-78361000D01*
X116980000Y-107500000D02*
X118111000Y-106369000D01*
X117500000Y-102980000D02*
X116305500Y-102980000D01*
X141980000Y-79000000D02*
X141980000Y-77970000D01*
X111299000Y-104924735D02*
X111700000Y-105325735D01*
X101380056Y-100020000D02*
X102450028Y-98950028D01*
X114787500Y-104950000D02*
X114787500Y-104425000D01*
X109819000Y-101781000D02*
X109099000Y-102501000D01*
X103000000Y-98500000D02*
X103000000Y-98250000D01*
X110000000Y-79000000D02*
X109500000Y-79000000D01*
X141040000Y-75010000D02*
X140400000Y-75650000D01*
X140900000Y-75650000D02*
X142600000Y-77350000D01*
D39*
%TO.N,VBUS*%
X104113500Y-77251000D02*
X107249000Y-77251000D01*
X120081000Y-110081000D02*
X133419000Y-110081000D01*
X103862500Y-77000000D02*
X104113500Y-77251000D01*
X135500000Y-92500000D02*
X132000000Y-92500000D01*
X102000000Y-78837758D02*
X103837758Y-77000000D01*
X135500000Y-108000000D02*
X135500000Y-92500000D01*
X133419000Y-110081000D02*
X135500000Y-108000000D01*
X103837758Y-77000000D02*
X103862500Y-77000000D01*
X102000000Y-79000000D02*
X102000000Y-78837758D01*
X107249000Y-77251000D02*
X108000000Y-76500000D01*
X132000000Y-92500000D02*
X132000000Y-94500000D01*
X119000000Y-109000000D02*
X120081000Y-110081000D01*
X119000000Y-88450000D02*
X119000000Y-109000000D01*
X115890000Y-85340000D02*
X119000000Y-88450000D01*
D38*
%TO.N,+3.3V*%
X116020000Y-106520000D02*
X116000000Y-106500000D01*
X118523240Y-71611000D02*
X118483240Y-71571000D01*
D40*
X136162309Y-71200000D02*
X135913309Y-70951000D01*
D38*
X116020000Y-107500000D02*
X116020000Y-106520000D01*
D39*
X103950000Y-75500000D02*
X104500000Y-75500000D01*
D38*
X119516760Y-71571000D02*
X119476760Y-71611000D01*
X102038202Y-103576000D02*
X101753000Y-103290798D01*
X103000000Y-100250000D02*
X103000000Y-99250000D01*
X117000000Y-74598000D02*
X116500000Y-75098000D01*
X122069000Y-69529000D02*
X121849000Y-69529000D01*
X101442202Y-102980000D02*
X101753000Y-103290798D01*
X115437500Y-104950000D02*
X115437500Y-105475000D01*
X140000000Y-72400000D02*
X137500000Y-69900000D01*
D40*
X135902858Y-70951000D02*
X135637500Y-70685642D01*
D38*
X114912500Y-106000000D02*
X114500000Y-106000000D01*
D40*
X135913309Y-70951000D02*
X135902858Y-70951000D01*
D38*
X100980000Y-102980000D02*
X101442202Y-102980000D01*
X108000000Y-77680000D02*
X108378609Y-77680000D01*
X135637500Y-70362500D02*
X135237500Y-70362500D01*
X115437500Y-105475000D02*
X114912500Y-106000000D01*
X137700000Y-71200000D02*
X136875000Y-71200000D01*
X118483240Y-71571000D02*
X117849000Y-71571000D01*
X117500000Y-102020000D02*
X116257500Y-102020000D01*
X100500000Y-100980000D02*
X100369000Y-101111000D01*
X130800000Y-74800000D02*
X131000000Y-75000000D01*
X117000000Y-71500000D02*
X117000000Y-74598000D01*
X121849000Y-69749000D02*
X120151000Y-71447000D01*
X116500000Y-75098000D02*
X116500000Y-77000000D01*
X117849000Y-71500000D02*
X117000000Y-71500000D01*
X133237500Y-69500000D02*
X134352498Y-68385002D01*
X100369000Y-102369000D02*
X100980000Y-102980000D01*
X120151000Y-71447000D02*
X120151000Y-71571000D01*
X120151000Y-71571000D02*
X119516760Y-71571000D01*
D40*
X136875000Y-71200000D02*
X136162309Y-71200000D01*
D38*
X117500000Y-102020000D02*
X117500000Y-99312075D01*
X117849000Y-71571000D02*
X117849000Y-71500000D01*
X130000000Y-74800000D02*
X130800000Y-74800000D01*
X133637500Y-70362500D02*
X133637500Y-69900000D01*
D40*
X135637500Y-70685642D02*
X135637500Y-70362500D01*
D38*
X121849000Y-69529000D02*
X121849000Y-69749000D01*
X137500000Y-67601000D02*
X123997000Y-67601000D01*
D39*
X104500000Y-75500000D02*
X105500000Y-76500000D01*
D38*
X101753000Y-101497000D02*
X103000000Y-100250000D01*
X134352498Y-68385002D02*
X135511646Y-68385002D01*
X108378609Y-77680000D02*
X108654617Y-77956008D01*
X133237500Y-70362500D02*
X133237500Y-69500000D01*
X101753000Y-103290798D02*
X101753000Y-101497000D01*
X117500000Y-99312075D02*
X117437925Y-99250000D01*
X138000000Y-71500000D02*
X137700000Y-71200000D01*
X116257500Y-102020000D02*
X116087500Y-101850000D01*
X123997000Y-67601000D02*
X122069000Y-69529000D01*
D40*
X136875000Y-74800000D02*
X136149447Y-74800000D01*
D38*
X119476760Y-71611000D02*
X118523240Y-71611000D01*
X133637500Y-69900000D02*
X133237500Y-69500000D01*
D40*
X136149447Y-74800000D02*
X135961002Y-74988445D01*
D38*
X102466500Y-103576000D02*
X102038202Y-103576000D01*
X100369000Y-101111000D02*
X100369000Y-102369000D01*
X137500000Y-69900000D02*
X137500000Y-67601000D01*
%TO.N,XIN*%
X141020000Y-79000000D02*
X141020000Y-77970000D01*
X141020000Y-77970000D02*
X140400000Y-77350000D01*
X132837500Y-78837500D02*
X133000000Y-79000000D01*
X138900000Y-78850000D02*
X140400000Y-77350000D01*
X137715500Y-79215500D02*
X138081000Y-78850000D01*
X133215500Y-79000000D02*
X133431000Y-79215500D01*
X138081000Y-78850000D02*
X138900000Y-78850000D01*
X133000000Y-79000000D02*
X133215500Y-79000000D01*
X133431000Y-79215500D02*
X137715500Y-79215500D01*
X132837500Y-77237500D02*
X132837500Y-78837500D01*
%TO.N,Net-(C4-Pad1)*%
X137265000Y-78255000D02*
X137510000Y-78010000D01*
X137510000Y-78000000D02*
X138010000Y-78000000D01*
X142000000Y-75050000D02*
X142600000Y-75650000D01*
X142000000Y-74000000D02*
X142000000Y-75050000D01*
X142500000Y-73000000D02*
X142600000Y-73100000D01*
X139399000Y-76611000D02*
X139399000Y-73601000D01*
X139399000Y-73601000D02*
X140000000Y-73000000D01*
X138010000Y-78000000D02*
X139399000Y-76611000D01*
X136510000Y-78500000D02*
X136755000Y-78255000D01*
X137510000Y-78010000D02*
X137510000Y-78000000D01*
X142600000Y-73100000D02*
X142600000Y-75650000D01*
X140000000Y-73000000D02*
X142500000Y-73000000D01*
X136755000Y-78255000D02*
X137265000Y-78255000D01*
%TO.N,+1V1*%
X136037500Y-69537500D02*
X135500000Y-69000000D01*
X134037500Y-69537500D02*
X134575000Y-69000000D01*
X136037500Y-70362500D02*
X136037500Y-69537500D01*
X134575000Y-69000000D02*
X135000000Y-69000000D01*
X134037500Y-70362500D02*
X134037500Y-69537500D01*
X135500000Y-69000000D02*
X135000000Y-69000000D01*
%TO.N,OSC1*%
X109819000Y-105701000D02*
X109819000Y-104921000D01*
X109099000Y-104201000D02*
X108474000Y-103576000D01*
X108474000Y-103576000D02*
X106361500Y-103576000D01*
X109819000Y-104921000D02*
X109099000Y-104201000D01*
%TO.N,OSC2*%
X107799000Y-105201000D02*
X107799000Y-104701000D01*
X108898000Y-106300000D02*
X107799000Y-105201000D01*
X107799000Y-104701000D02*
X107174000Y-104076000D01*
X112300000Y-103502000D02*
X112300000Y-105700000D01*
X108898000Y-106300000D02*
X111700000Y-106300000D01*
X112300000Y-105700000D02*
X111700000Y-106300000D01*
X111299000Y-101721000D02*
X110779000Y-101201000D01*
X111299000Y-102501000D02*
X112300000Y-103502000D01*
X107174000Y-104076000D02*
X106361500Y-104076000D01*
X111299000Y-102501000D02*
X111299000Y-101721000D01*
%TO.N,USB_D-*%
X109500000Y-73500000D02*
X109535313Y-73535313D01*
X109535313Y-73535313D02*
X110464687Y-73535313D01*
X110666687Y-73333313D02*
X110666687Y-72403939D01*
X110464687Y-73535313D02*
X110666687Y-73333313D01*
X110666687Y-72403939D02*
X110631374Y-72368626D01*
%TO.N,Net-(J1-CC2)*%
X111500000Y-77990000D02*
X111500000Y-77250000D01*
%TO.N,USB_D+*%
X110030374Y-71969626D02*
X110500000Y-71500000D01*
X110894122Y-71500000D02*
X111197061Y-71802939D01*
X110500000Y-71500000D02*
X110894122Y-71500000D01*
X110030374Y-72899000D02*
X110030374Y-71969626D01*
X110065687Y-72934313D02*
X110030374Y-72899000D01*
%TO.N,Net-(J1-CC1)*%
X110000000Y-77980000D02*
X110000000Y-77750000D01*
X110000000Y-77750000D02*
X109500000Y-77250000D01*
%TO.N,CAN_L_IN*%
X115437500Y-93412500D02*
X115890000Y-92960000D01*
X115437500Y-101850000D02*
X115437500Y-93412500D01*
%TO.N,CAN_H_IN*%
X114787500Y-101287500D02*
X113350000Y-99850000D01*
X113350000Y-99850000D02*
X113350000Y-94230000D01*
X114787500Y-101850000D02*
X114787500Y-101287500D01*
D40*
%TO.N,GPIO3*%
X129000000Y-72802000D02*
X129002000Y-72800000D01*
D38*
X124273550Y-75273550D02*
X126745100Y-72802000D01*
X130000000Y-72800000D02*
X130262500Y-72800000D01*
X130262500Y-72800000D02*
X129894326Y-72800000D01*
X129002000Y-72800000D02*
X130000000Y-72800000D01*
X126745100Y-72802000D02*
X129000000Y-72802000D01*
X124273550Y-77246450D02*
X124273550Y-75273550D01*
X130000000Y-72800000D02*
X129894326Y-72800000D01*
X123000000Y-78520000D02*
X124273550Y-77246450D01*
%TO.N,GPIO2*%
X129500000Y-72401000D02*
X129726226Y-72401000D01*
X129501000Y-72400000D02*
X129500000Y-72401000D01*
X130262500Y-72400000D02*
X129501000Y-72400000D01*
X126579000Y-72401000D02*
X129500000Y-72401000D01*
X123000000Y-75980000D02*
X126579000Y-72401000D01*
%TO.N,GPIO1*%
X124440000Y-72000000D02*
X130262500Y-72000000D01*
X123000000Y-73440000D02*
X124440000Y-72000000D01*
%TO.N,GPIO0*%
X123000000Y-70900000D02*
X123700000Y-71600000D01*
X123700000Y-71600000D02*
X130262500Y-71600000D01*
%TO.N,GPIO5*%
X124577100Y-78077100D02*
X125075550Y-77578650D01*
X127137650Y-73604000D02*
X129723226Y-73604000D01*
X124577100Y-82022900D02*
X124577100Y-78077100D01*
X125075550Y-75666100D02*
X127137650Y-73604000D01*
X125075550Y-77578650D02*
X125075550Y-75666100D01*
X123000000Y-83600000D02*
X124577100Y-82022900D01*
%TO.N,GPIO4*%
X126971550Y-73203000D02*
X129724226Y-73203000D01*
X124151000Y-77936100D02*
X124674550Y-77412550D01*
X124674550Y-77412550D02*
X124674550Y-75500000D01*
X124151000Y-79909000D02*
X124151000Y-77936100D01*
X123000000Y-81060000D02*
X124151000Y-79909000D01*
X124674550Y-75500000D02*
X126971550Y-73203000D01*
%TO.N,GPIO6*%
X125500000Y-77750000D02*
X125500000Y-75808750D01*
X123000000Y-86140000D02*
X125000000Y-84140000D01*
X125000000Y-84140000D02*
X125000000Y-78250000D01*
X127303750Y-74005000D02*
X129722226Y-74005000D01*
X125500000Y-75808750D02*
X127303750Y-74005000D01*
X125000000Y-78250000D02*
X125500000Y-77750000D01*
%TO.N,GPIO7*%
X125401000Y-86279000D02*
X125401000Y-78599000D01*
X126000000Y-78000000D02*
X126000000Y-76000000D01*
X123000000Y-88680000D02*
X125401000Y-86279000D01*
X127594000Y-74406000D02*
X129721226Y-74406000D01*
X126000000Y-76000000D02*
X127594000Y-74406000D01*
X125401000Y-78599000D02*
X126000000Y-78000000D01*
%TO.N,GPIO8*%
X126401000Y-76283550D02*
X127484550Y-75200000D01*
X126401000Y-78166100D02*
X126401000Y-76283550D01*
X123000000Y-91220000D02*
X126000000Y-88220000D01*
X126000000Y-78567100D02*
X126401000Y-78166100D01*
X126000000Y-88220000D02*
X126000000Y-78567100D01*
X127484550Y-75200000D02*
X130262500Y-75200000D01*
%TO.N,GPIO9*%
X124143550Y-90643550D02*
X126401000Y-88386100D01*
X124151000Y-92609000D02*
X124151000Y-90651000D01*
X124151000Y-90651000D02*
X124143550Y-90643550D01*
X127651650Y-75600000D02*
X130262500Y-75600000D01*
X123000000Y-93760000D02*
X124151000Y-92609000D01*
X126802000Y-78599000D02*
X126802000Y-76449650D01*
X126401000Y-88386100D02*
X126401000Y-79000000D01*
X126401000Y-79000000D02*
X126802000Y-78599000D01*
X126802000Y-76449650D02*
X127651650Y-75600000D01*
%TO.N,GPIO10*%
X126802000Y-79166100D02*
X127203000Y-78765100D01*
X124151000Y-93500000D02*
X124552000Y-93099000D01*
X127203000Y-78765100D02*
X127203000Y-76615750D01*
X124552000Y-93099000D02*
X124552000Y-91000000D01*
X127818750Y-76000000D02*
X130262500Y-76000000D01*
X123000000Y-96300000D02*
X124151000Y-95149000D01*
X124552000Y-91000000D02*
X126802000Y-88750000D01*
X126802000Y-88750000D02*
X126802000Y-79166100D01*
X127203000Y-76615750D02*
X127818750Y-76000000D01*
X124151000Y-95149000D02*
X124151000Y-93500000D01*
%TO.N,GPIO11*%
X123000000Y-98840000D02*
X124609050Y-97230950D01*
X125000000Y-91119100D02*
X127203000Y-88916100D01*
X127604000Y-78931200D02*
X127604000Y-76896000D01*
X124609050Y-93609050D02*
X125000000Y-93218100D01*
X127203000Y-79332200D02*
X127604000Y-78931200D01*
X128100000Y-76400000D02*
X130262500Y-76400000D01*
X127203000Y-88916100D02*
X127203000Y-79332200D01*
X127604000Y-76896000D02*
X128100000Y-76400000D01*
X124609050Y-97230950D02*
X124609050Y-93609050D01*
X125000000Y-93218100D02*
X125000000Y-91119100D01*
%TO.N,GPIO12*%
X127604000Y-89082200D02*
X127604000Y-79500000D01*
X125010050Y-94000000D02*
X125401000Y-93609050D01*
X129523000Y-78552000D02*
X130837500Y-77237500D01*
X125010050Y-99369950D02*
X125010050Y-94000000D01*
X128552000Y-78552000D02*
X129523000Y-78552000D01*
X125401000Y-93609050D02*
X125401000Y-91285200D01*
X127604000Y-79500000D02*
X128552000Y-78552000D01*
X125401000Y-91285200D02*
X127604000Y-89082200D01*
X123000000Y-101380000D02*
X125010050Y-99369950D01*
%TO.N,GPIO13*%
X128085550Y-79585550D02*
X128585550Y-79085550D01*
X124223550Y-102696450D02*
X124223550Y-100723550D01*
X125411050Y-94166100D02*
X126000000Y-93577150D01*
X126000000Y-93577150D02*
X126000000Y-91500000D01*
X123000000Y-103920000D02*
X124223550Y-102696450D01*
X128585550Y-79085550D02*
X129924724Y-79085550D01*
X125411050Y-99536050D02*
X125411050Y-94166100D01*
X129924724Y-79085550D02*
X131237500Y-77772774D01*
X124223550Y-100723550D02*
X125411050Y-99536050D01*
X128085550Y-89414450D02*
X128085550Y-79585550D01*
X131237500Y-77237500D02*
X131237500Y-77772774D01*
X126000000Y-91500000D02*
X128085550Y-89414450D01*
%TO.N,GPIO15*%
X125025550Y-101166100D02*
X126213050Y-99978600D01*
X127021400Y-99978600D02*
X130000000Y-97000000D01*
X126213050Y-99978600D02*
X127021400Y-99978600D01*
X124151000Y-105983240D02*
X125025550Y-105108690D01*
X124151000Y-107849000D02*
X124151000Y-105983240D01*
X123000000Y-109000000D02*
X124151000Y-107849000D01*
X130912000Y-97000000D02*
X130912000Y-79232474D01*
X130912000Y-79232474D02*
X132037500Y-78106974D01*
X125025550Y-105108690D02*
X125025550Y-101166100D01*
X130000000Y-97000000D02*
X130912000Y-97000000D01*
X132037500Y-78106974D02*
X132037500Y-77237500D01*
%TO.N,GPIO14*%
X124624550Y-104835450D02*
X123000000Y-106460000D01*
X130511000Y-79066374D02*
X130511000Y-96489000D01*
X130511000Y-96489000D02*
X130401000Y-96599000D01*
X130401000Y-96599000D02*
X129478600Y-96599000D01*
X126500000Y-99577600D02*
X126046950Y-99577600D01*
X129478600Y-96599000D02*
X126500000Y-99577600D01*
X131637500Y-77237500D02*
X131637500Y-77939874D01*
X131637500Y-77939874D02*
X130511000Y-79066374D01*
X124624550Y-101000000D02*
X124624550Y-104835450D01*
X126046950Y-99577600D02*
X124624550Y-101000000D01*
%TO.N,Net-(U1-USB_DM)*%
X135564912Y-71493832D02*
X135170832Y-71493832D01*
X135600000Y-71454693D02*
X135600000Y-71458744D01*
X135618885Y-71435808D02*
X135600000Y-71454693D01*
X134837500Y-71160500D02*
X134837500Y-70362500D01*
X135600000Y-71458744D02*
X135564912Y-71493832D01*
X135170832Y-71493832D02*
X134837500Y-71160500D01*
%TO.N,Net-(U1-USB_DP)*%
X118000000Y-67800000D02*
X118000000Y-69000000D01*
X134201000Y-71299000D02*
X133776764Y-71299000D01*
X134437500Y-70362500D02*
X134437500Y-71062500D01*
X134437500Y-71062500D02*
X134201000Y-71299000D01*
%TO.N,XOUT*%
X133237500Y-77772774D02*
X133237500Y-77237500D01*
X135490000Y-78500000D02*
X133964726Y-78500000D01*
X133964726Y-78500000D02*
X133237500Y-77772774D01*
%TO.N,QSPI_SS*%
X129475000Y-69000000D02*
X130837500Y-70362500D01*
X129000000Y-69000000D02*
X129475000Y-69000000D01*
%TO.N,QSPI_SCLK*%
X135338500Y-75701000D02*
X135039500Y-76000000D01*
X132837500Y-70362500D02*
X132837500Y-71337500D01*
X135039500Y-76000000D02*
X132000000Y-76000000D01*
X135237500Y-71899000D02*
X135338500Y-72000000D01*
X133399000Y-71899000D02*
X135237500Y-71899000D01*
X132837500Y-71337500D02*
X133399000Y-71899000D01*
X135338500Y-72000000D02*
X135338500Y-75701000D01*
%TO.N,QSPI_SD0*%
X132133578Y-71700001D02*
X132325043Y-71700001D01*
X132325043Y-71700001D02*
X132437500Y-71587544D01*
X132437500Y-71587544D02*
X132437500Y-70362500D01*
%TO.N,GPIO18*%
X137600000Y-76400000D02*
X136875000Y-76400000D01*
X137700000Y-76700000D02*
X137700000Y-76500000D01*
X137700000Y-76500000D02*
X137600000Y-76400000D01*
X139876000Y-103500000D02*
X141500000Y-103500000D01*
X106000000Y-100000000D02*
X104985944Y-100000000D01*
X138000000Y-77000000D02*
X137700000Y-76700000D01*
X104985944Y-100000000D02*
X104404000Y-100581944D01*
X104404000Y-100581944D02*
X104404000Y-101638500D01*
%TO.N,GPIO22*%
X138220277Y-74400000D02*
X138441381Y-74621104D01*
X136875000Y-74400000D02*
X138220277Y-74400000D01*
%TO.N,GPIO19*%
X103904000Y-100514844D02*
X103904000Y-101638500D01*
X141500000Y-104500000D02*
X139475000Y-104500000D01*
X105019844Y-99399000D02*
X103904000Y-100514844D01*
X137873272Y-76000000D02*
X136875000Y-76000000D01*
X107000000Y-100000000D02*
X106399000Y-99399000D01*
X138307585Y-76434313D02*
X137873272Y-76000000D01*
X106399000Y-99399000D02*
X105019844Y-99399000D01*
X138565687Y-76434313D02*
X138307585Y-76434313D01*
%TO.N,QSPI_SD1*%
X131101000Y-68399000D02*
X131748943Y-68399000D01*
X131748943Y-68399000D02*
X132101000Y-68751057D01*
X132101000Y-68751057D02*
X132101000Y-69474000D01*
X132037500Y-69537500D02*
X132037500Y-70362500D01*
X130500000Y-69000000D02*
X131101000Y-68399000D01*
X132101000Y-69474000D02*
X132037500Y-69537500D01*
%TO.N,GPIO23*%
X138704484Y-74000000D02*
X138799000Y-73905484D01*
X136875000Y-74000000D02*
X138704484Y-74000000D01*
%TO.N,GPIO20*%
X104904000Y-101638500D02*
X104904000Y-100930474D01*
X104904000Y-100930474D02*
X105167237Y-100667237D01*
X141500000Y-105500000D02*
X139000000Y-105500000D01*
X136875000Y-75600000D02*
X138594757Y-75600000D01*
X138594757Y-75600000D02*
X138631804Y-75637047D01*
%TO.N,GPIO16*%
X135637500Y-77237500D02*
X135637500Y-76250530D01*
X135637500Y-76250530D02*
X135734443Y-76153587D01*
%TO.N,GPIO24*%
X138000000Y-73500000D02*
X138000000Y-73000000D01*
X137900000Y-73600000D02*
X138000000Y-73500000D01*
X136875000Y-73600000D02*
X137900000Y-73600000D01*
%TO.N,GPIO17*%
X136737500Y-77237500D02*
X137000000Y-77500000D01*
X136037500Y-77237500D02*
X136737500Y-77237500D01*
%TO.N,QSPI_SD3*%
X130937113Y-72062887D02*
X130937113Y-72725390D01*
X131637500Y-71362500D02*
X130937113Y-72062887D01*
X131637500Y-70362500D02*
X131637500Y-71362500D01*
%TO.N,QSPI_SD2*%
X131237500Y-70362500D02*
X131237500Y-69262500D01*
X131237500Y-69262500D02*
X131500000Y-69000000D01*
%TO.N,Net-(U4-RXCAN)*%
X112386500Y-106701000D02*
X114137500Y-104950000D01*
X104663202Y-106701000D02*
X112386500Y-106701000D01*
X103904000Y-105513500D02*
X103904000Y-105941798D01*
X103904000Y-105941798D02*
X104663202Y-106701000D01*
%TO.N,Net-(U4-TXCAN)*%
X116087500Y-105475000D02*
X116087500Y-104950000D01*
X103404000Y-106008898D02*
X104497102Y-107102000D01*
X103404000Y-105513500D02*
X103404000Y-106008898D01*
X104497102Y-107102000D02*
X114460500Y-107102000D01*
X114460500Y-107102000D02*
X116087500Y-105475000D01*
%TD*%
M02*
