%TF.GenerationSoftware,KiCad,Pcbnew,9.0.7*%
%TF.CreationDate,2026-05-08T21:32:47+02:00*%
%TF.ProjectId,BusPlate,42757350-6c61-4746-952e-6b696361645f,rev?*%
%TF.SameCoordinates,Original*%
%TF.FileFunction,Soldermask,Top*%
%TF.FilePolarity,Negative*%
%FSLAX46Y46*%
G04 Gerber Fmt 4.6, Leading zero omitted, Abs format (unit mm)*
G04 Created by KiCad (PCBNEW 9.0.7) date 2026-05-08 21:32:47*
%MOMM*%
%LPD*%
G01*
G04 APERTURE LIST*
G04 Aperture macros list*
%AMRoundRect*
0 Rectangle with rounded corners*
0 $1 Rounding radius*
0 $2 $3 $4 $5 $6 $7 $8 $9 X,Y pos of 4 corners*
0 Add a 4 corners polygon primitive as box body*
4,1,4,$2,$3,$4,$5,$6,$7,$8,$9,$2,$3,0*
0 Add four circle primitives for the rounded corners*
1,1,$1+$1,$2,$3*
1,1,$1+$1,$4,$5*
1,1,$1+$1,$6,$7*
1,1,$1+$1,$8,$9*
0 Add four rect primitives between the rounded corners*
20,1,$1+$1,$2,$3,$4,$5,0*
20,1,$1+$1,$4,$5,$6,$7,0*
20,1,$1+$1,$6,$7,$8,$9,0*
20,1,$1+$1,$8,$9,$2,$3,0*%
%AMFreePoly0*
4,1,9,3.862500,-0.866500,0.737500,-0.866500,0.737500,-0.450000,-0.737500,-0.450000,-0.737500,0.450000,0.737500,0.450000,0.737500,0.866500,3.862500,0.866500,3.862500,-0.866500,3.862500,-0.866500,$1*%
G04 Aperture macros list end*
%ADD10RoundRect,0.135000X-0.185000X0.135000X-0.185000X-0.135000X0.185000X-0.135000X0.185000X0.135000X0*%
%ADD11R,1.700000X1.700000*%
%ADD12C,1.700000*%
%ADD13RoundRect,0.140000X0.170000X-0.140000X0.170000X0.140000X-0.170000X0.140000X-0.170000X-0.140000X0*%
%ADD14RoundRect,0.140000X0.140000X0.170000X-0.140000X0.170000X-0.140000X-0.170000X0.140000X-0.170000X0*%
%ADD15RoundRect,0.225000X0.425000X0.225000X-0.425000X0.225000X-0.425000X-0.225000X0.425000X-0.225000X0*%
%ADD16FreePoly0,180.000000*%
%ADD17RoundRect,0.050000X-0.387500X-0.050000X0.387500X-0.050000X0.387500X0.050000X-0.387500X0.050000X0*%
%ADD18RoundRect,0.050000X-0.050000X-0.387500X0.050000X-0.387500X0.050000X0.387500X-0.050000X0.387500X0*%
%ADD19R,3.200000X3.200000*%
%ADD20C,2.200000*%
%ADD21RoundRect,0.062500X0.062500X-0.350000X0.062500X0.350000X-0.062500X0.350000X-0.062500X-0.350000X0*%
%ADD22RoundRect,0.062500X0.350000X-0.062500X0.350000X0.062500X-0.350000X0.062500X-0.350000X-0.062500X0*%
%ADD23R,2.500000X2.500000*%
%ADD24R,0.350000X0.650000*%
%ADD25R,2.400000X1.550000*%
%ADD26RoundRect,0.250000X-0.450000X-0.350000X0.450000X-0.350000X0.450000X0.350000X-0.450000X0.350000X0*%
%ADD27RoundRect,0.140000X-0.140000X-0.170000X0.140000X-0.170000X0.140000X0.170000X-0.140000X0.170000X0*%
%ADD28RoundRect,0.100000X-0.100000X0.130000X-0.100000X-0.130000X0.100000X-0.130000X0.100000X0.130000X0*%
%ADD29RoundRect,0.135000X0.135000X0.185000X-0.135000X0.185000X-0.135000X-0.185000X0.135000X-0.185000X0*%
%ADD30RoundRect,0.140000X-0.170000X0.140000X-0.170000X-0.140000X0.170000X-0.140000X0.170000X0.140000X0*%
%ADD31C,0.650000*%
%ADD32O,1.000000X1.600000*%
%ADD33O,1.000000X2.100000*%
%ADD34RoundRect,0.250000X-0.550000X-0.550000X0.550000X-0.550000X0.550000X0.550000X-0.550000X0.550000X0*%
%ADD35C,1.600000*%
%ADD36C,3.650000*%
%ADD37R,1.500000X1.500000*%
%ADD38C,1.500000*%
G04 APERTURE END LIST*
D10*
%TO.C,R2*%
X111500000Y-77990000D03*
X111500000Y-79010000D03*
%TD*%
D11*
%TO.C,J2*%
X123000000Y-70680000D03*
D12*
X123000000Y-73220000D03*
X123000000Y-75760000D03*
X123000000Y-78300000D03*
X123000000Y-80840000D03*
X123000000Y-83380000D03*
X123000000Y-85920000D03*
X123000000Y-88460000D03*
X123000000Y-91000000D03*
X123000000Y-93540000D03*
X123000000Y-96080000D03*
X123000000Y-98620000D03*
X123000000Y-101160000D03*
X123000000Y-103700000D03*
X123000000Y-106240000D03*
X123000000Y-108780000D03*
%TD*%
D13*
%TO.C,C20*%
X100980000Y-102980000D03*
X100980000Y-102020000D03*
%TD*%
D14*
%TO.C,C3*%
X141980000Y-79000000D03*
X141020000Y-79000000D03*
%TD*%
D15*
%TO.C,U2*%
X103950000Y-78500000D03*
D16*
X103862500Y-77000000D03*
D15*
X103950000Y-75500000D03*
%TD*%
D17*
%TO.C,U1*%
X130000000Y-71200000D03*
X130000000Y-71600000D03*
X130000000Y-72000000D03*
X130000000Y-72400000D03*
X130000000Y-72800000D03*
X130000000Y-73200000D03*
X130000000Y-73600000D03*
X130000000Y-74000000D03*
X130000000Y-74400000D03*
X130000000Y-74800000D03*
X130000000Y-75200000D03*
X130000000Y-75600000D03*
X130000000Y-76000000D03*
X130000000Y-76400000D03*
D18*
X130837500Y-77237500D03*
X131237500Y-77237500D03*
X131637500Y-77237500D03*
X132037500Y-77237500D03*
X132437500Y-77237500D03*
X132837500Y-77237500D03*
X133237500Y-77237500D03*
X133637500Y-77237500D03*
X134037500Y-77237500D03*
X134437500Y-77237500D03*
X134837500Y-77237500D03*
X135237500Y-77237500D03*
X135637500Y-77237500D03*
X136037500Y-77237500D03*
D17*
X136875000Y-76400000D03*
X136875000Y-76000000D03*
X136875000Y-75600000D03*
X136875000Y-75200000D03*
X136875000Y-74800000D03*
X136875000Y-74400000D03*
X136875000Y-74000000D03*
X136875000Y-73600000D03*
X136875000Y-73200000D03*
X136875000Y-72800000D03*
X136875000Y-72400000D03*
X136875000Y-72000000D03*
X136875000Y-71600000D03*
X136875000Y-71200000D03*
D18*
X136037500Y-70362500D03*
X135637500Y-70362500D03*
X135237500Y-70362500D03*
X134837500Y-70362500D03*
X134437500Y-70362500D03*
X134037500Y-70362500D03*
X133637500Y-70362500D03*
X133237500Y-70362500D03*
X132837500Y-70362500D03*
X132437500Y-70362500D03*
X132037500Y-70362500D03*
X131637500Y-70362500D03*
X131237500Y-70362500D03*
X130837500Y-70362500D03*
D19*
X133437500Y-73800000D03*
%TD*%
D20*
%TO.C,H2*%
X102500000Y-110000000D03*
%TD*%
D11*
%TO.C,J3*%
X119000000Y-75540000D03*
D12*
X119000000Y-73000000D03*
X119000000Y-70460000D03*
%TD*%
D21*
%TO.C,U4*%
X103404000Y-105513500D03*
X103904000Y-105513500D03*
X104404000Y-105513500D03*
X104904000Y-105513500D03*
X105404000Y-105513500D03*
D22*
X106341500Y-104576000D03*
X106341500Y-104076000D03*
X106341500Y-103576000D03*
X106341500Y-103076000D03*
X106341500Y-102576000D03*
D21*
X105404000Y-101638500D03*
X104904000Y-101638500D03*
X104404000Y-101638500D03*
X103904000Y-101638500D03*
X103404000Y-101638500D03*
D22*
X102466500Y-102576000D03*
X102466500Y-103076000D03*
X102466500Y-103576000D03*
X102466500Y-104076000D03*
X102466500Y-104576000D03*
D23*
X104404000Y-103576000D03*
%TD*%
D10*
%TO.C,R1*%
X110000000Y-77980000D03*
X110000000Y-79000000D03*
%TD*%
D20*
%TO.C,H1*%
X142500000Y-110000000D03*
%TD*%
D14*
%TO.C,C23*%
X110779000Y-101201000D03*
X109819000Y-101201000D03*
%TD*%
D24*
%TO.C,U5*%
X114137500Y-104950000D03*
X114787500Y-104950000D03*
X115437500Y-104950000D03*
X116087500Y-104950000D03*
X116087500Y-101850000D03*
X115437500Y-101850000D03*
X114787500Y-101850000D03*
X114137500Y-101850000D03*
D25*
X115112500Y-103400000D03*
%TD*%
D13*
%TO.C,C21*%
X100500000Y-100980000D03*
X100500000Y-100020000D03*
%TD*%
D14*
%TO.C,C22*%
X110779000Y-105401000D03*
X109819000Y-105401000D03*
%TD*%
D26*
%TO.C,Y2*%
X109099000Y-104201000D03*
X111299000Y-104201000D03*
X111299000Y-102501000D03*
X109099000Y-102501000D03*
%TD*%
D20*
%TO.C,H3*%
X142500000Y-70000000D03*
%TD*%
D26*
%TO.C,Y1*%
X140400000Y-77350000D03*
X142600000Y-77350000D03*
X142600000Y-75650000D03*
X140400000Y-75650000D03*
%TD*%
D20*
%TO.C,H4*%
X102500000Y-70000000D03*
%TD*%
D27*
%TO.C,C19*%
X116020000Y-107500000D03*
X116980000Y-107500000D03*
%TD*%
D28*
%TO.C,C2*%
X108000000Y-77680000D03*
X108000000Y-78320000D03*
%TD*%
D11*
%TO.C,J4*%
X119000000Y-80000000D03*
D12*
X116460000Y-80000000D03*
%TD*%
D28*
%TO.C,C1*%
X105500000Y-77580000D03*
X105500000Y-78220000D03*
%TD*%
D14*
%TO.C,C4*%
X142000000Y-74000000D03*
X141040000Y-74000000D03*
%TD*%
D29*
%TO.C,R5*%
X136510000Y-78500000D03*
X135490000Y-78500000D03*
%TD*%
D30*
%TO.C,C18*%
X117500000Y-102020000D03*
X117500000Y-102980000D03*
%TD*%
D31*
%TO.C,J1*%
X107610000Y-73555000D03*
X113390000Y-73555000D03*
D32*
X106180000Y-69905000D03*
D33*
X106180000Y-74085000D03*
D32*
X114820000Y-69905000D03*
D33*
X114820000Y-74085000D03*
%TD*%
D34*
%TO.C,SW2*%
X130000000Y-102012500D03*
D35*
X137620000Y-102012500D03*
%TD*%
D36*
%TO.C,J13*%
X107000000Y-95500000D03*
X107000000Y-84070000D03*
D37*
X113350000Y-94230000D03*
D38*
X115890000Y-92960000D03*
X113350000Y-91690000D03*
X115890000Y-90420000D03*
X113350000Y-89150000D03*
X115890000Y-87880000D03*
X113350000Y-86610000D03*
X115890000Y-85340000D03*
%TD*%
D36*
%TO.C,J12*%
X138350000Y-84070000D03*
X138350000Y-95500000D03*
D37*
X132000000Y-85340000D03*
D38*
X129460000Y-86610000D03*
X132000000Y-87880000D03*
X129460000Y-89150000D03*
X132000000Y-90420000D03*
X129460000Y-91690000D03*
X132000000Y-92960000D03*
X129460000Y-94230000D03*
%TD*%
M02*
