%TF.GenerationSoftware,KiCad,Pcbnew,9.0.7*%
%TF.CreationDate,2026-05-08T21:32:46+02:00*%
%TF.ProjectId,BusPlate,42757350-6c61-4746-952e-6b696361645f,rev?*%
%TF.SameCoordinates,Original*%
%TF.FileFunction,Copper,L4,Bot*%
%TF.FilePolarity,Positive*%
%FSLAX46Y46*%
G04 Gerber Fmt 4.6, Leading zero omitted, Abs format (unit mm)*
G04 Created by KiCad (PCBNEW 9.0.7) date 2026-05-08 21:32:46*
%MOMM*%
%LPD*%
G01*
G04 APERTURE LIST*
G04 Aperture macros list*
%AMRoundRect*
0 Rectangle with rounded corners*
0 $1 Rounding radius*
0 $2 $3 $4 $5 $6 $7 $8 $9 X,Y pos of 4 corners*
0 Add a 4 corners polygon primitive as box body*
4,1,4,$2,$3,$4,$5,$6,$7,$8,$9,$2,$3,0*
0 Add four circle primitives for the rounded corners*
1,1,$1+$1,$2,$3*
1,1,$1+$1,$4,$5*
1,1,$1+$1,$6,$7*
1,1,$1+$1,$8,$9*
0 Add four rect primitives between the rounded corners*
20,1,$1+$1,$2,$3,$4,$5,0*
20,1,$1+$1,$4,$5,$6,$7,0*
20,1,$1+$1,$6,$7,$8,$9,0*
20,1,$1+$1,$8,$9,$2,$3,0*%
G04 Aperture macros list end*
%TA.AperFunction,ComponentPad*%
%ADD10R,1.700000X1.700000*%
%TD*%
%TA.AperFunction,ComponentPad*%
%ADD11C,1.700000*%
%TD*%
%TA.AperFunction,SMDPad,CuDef*%
%ADD12R,0.600000X1.450000*%
%TD*%
%TA.AperFunction,SMDPad,CuDef*%
%ADD13R,0.300000X1.450000*%
%TD*%
%TA.AperFunction,HeatsinkPad*%
%ADD14O,1.000000X1.600000*%
%TD*%
%TA.AperFunction,HeatsinkPad*%
%ADD15O,1.000000X2.100000*%
%TD*%
%TA.AperFunction,SMDPad,CuDef*%
%ADD16RoundRect,0.140000X-0.140000X-0.170000X0.140000X-0.170000X0.140000X0.170000X-0.140000X0.170000X0*%
%TD*%
%TA.AperFunction,SMDPad,CuDef*%
%ADD17RoundRect,0.140000X-0.170000X0.140000X-0.170000X-0.140000X0.170000X-0.140000X0.170000X0.140000X0*%
%TD*%
%TA.AperFunction,ComponentPad*%
%ADD18RoundRect,0.250000X-0.550000X-0.550000X0.550000X-0.550000X0.550000X0.550000X-0.550000X0.550000X0*%
%TD*%
%TA.AperFunction,ComponentPad*%
%ADD19C,1.600000*%
%TD*%
%TA.AperFunction,SMDPad,CuDef*%
%ADD20RoundRect,0.135000X-0.185000X0.135000X-0.185000X-0.135000X0.185000X-0.135000X0.185000X0.135000X0*%
%TD*%
%TA.AperFunction,SMDPad,CuDef*%
%ADD21RoundRect,0.140000X0.140000X0.170000X-0.140000X0.170000X-0.140000X-0.170000X0.140000X-0.170000X0*%
%TD*%
%TA.AperFunction,SMDPad,CuDef*%
%ADD22RoundRect,0.200000X-0.200000X-0.800000X0.200000X-0.800000X0.200000X0.800000X-0.200000X0.800000X0*%
%TD*%
%TA.AperFunction,SMDPad,CuDef*%
%ADD23RoundRect,0.135000X-0.135000X-0.185000X0.135000X-0.185000X0.135000X0.185000X-0.135000X0.185000X0*%
%TD*%
%TA.AperFunction,WasherPad*%
%ADD24C,3.650000*%
%TD*%
%TA.AperFunction,ComponentPad*%
%ADD25R,1.500000X1.500000*%
%TD*%
%TA.AperFunction,ComponentPad*%
%ADD26C,1.500000*%
%TD*%
%TA.AperFunction,SMDPad,CuDef*%
%ADD27RoundRect,0.162500X-0.162500X0.650000X-0.162500X-0.650000X0.162500X-0.650000X0.162500X0.650000X0*%
%TD*%
%TA.AperFunction,SMDPad,CuDef*%
%ADD28RoundRect,0.135000X0.135000X0.185000X-0.135000X0.185000X-0.135000X-0.185000X0.135000X-0.185000X0*%
%TD*%
%TA.AperFunction,SMDPad,CuDef*%
%ADD29RoundRect,0.135000X0.185000X-0.135000X0.185000X0.135000X-0.185000X0.135000X-0.185000X-0.135000X0*%
%TD*%
%TA.AperFunction,ViaPad*%
%ADD30C,0.600000*%
%TD*%
%TA.AperFunction,Conductor*%
%ADD31C,0.200000*%
%TD*%
%TA.AperFunction,Conductor*%
%ADD32C,0.500000*%
%TD*%
G04 APERTURE END LIST*
D10*
%TO.P,J2,1,Pin_1*%
%TO.N,GPIO0*%
X123000000Y-70680000D03*
D11*
%TO.P,J2,2,Pin_2*%
%TO.N,GPIO1*%
X123000000Y-73220000D03*
%TO.P,J2,3,Pin_3*%
%TO.N,GPIO2*%
X123000000Y-75760000D03*
%TO.P,J2,4,Pin_4*%
%TO.N,GPIO3*%
X123000000Y-78300000D03*
%TO.P,J2,5,Pin_5*%
%TO.N,GPIO4*%
X123000000Y-80840000D03*
%TO.P,J2,6,Pin_6*%
%TO.N,GPIO5*%
X123000000Y-83380000D03*
%TO.P,J2,7,Pin_7*%
%TO.N,GPIO6*%
X123000000Y-85920000D03*
%TO.P,J2,8,Pin_8*%
%TO.N,GPIO7*%
X123000000Y-88460000D03*
%TO.P,J2,9,Pin_9*%
%TO.N,GPIO8*%
X123000000Y-91000000D03*
%TO.P,J2,10,Pin_10*%
%TO.N,GPIO9*%
X123000000Y-93540000D03*
%TO.P,J2,11,Pin_11*%
%TO.N,GPIO10*%
X123000000Y-96080000D03*
%TO.P,J2,12,Pin_12*%
%TO.N,GPIO11*%
X123000000Y-98620000D03*
%TO.P,J2,13,Pin_13*%
%TO.N,GPIO12*%
X123000000Y-101160000D03*
%TO.P,J2,14,Pin_14*%
%TO.N,GPIO13*%
X123000000Y-103700000D03*
%TO.P,J2,15,Pin_15*%
%TO.N,GPIO14*%
X123000000Y-106240000D03*
%TO.P,J2,16,Pin_16*%
%TO.N,GPIO15*%
X123000000Y-108780000D03*
%TD*%
D10*
%TO.P,J3,1,Pin_1*%
%TO.N,GPIO22*%
X119000000Y-75540000D03*
D11*
%TO.P,J3,2,Pin_2*%
%TO.N,GPIO23*%
X119000000Y-73000000D03*
%TO.P,J3,3,Pin_3*%
%TO.N,GPIO24*%
X119000000Y-70460000D03*
%TD*%
D10*
%TO.P,J4,1,Pin_1*%
%TO.N,+3.3V*%
X119000000Y-80000000D03*
D11*
%TO.P,J4,2,Pin_2*%
%TO.N,GND*%
X116460000Y-80000000D03*
%TD*%
D12*
%TO.P,J1,A1,GND*%
%TO.N,GND*%
X107250000Y-75000000D03*
%TO.P,J1,A4,VBUS*%
%TO.N,VBUS*%
X108050000Y-75000000D03*
D13*
%TO.P,J1,A5,CC1*%
%TO.N,Net-(J1-CC1)*%
X109250000Y-75000000D03*
%TO.P,J1,A6,D+*%
%TO.N,USB_D+*%
X110250000Y-75000000D03*
%TO.P,J1,A7,D-*%
%TO.N,USB_D-*%
X110750000Y-75000000D03*
%TO.P,J1,A8*%
%TO.N,N/C*%
X111750000Y-75000000D03*
D12*
%TO.P,J1,A9,VBUS*%
%TO.N,VBUS*%
X112950000Y-75000000D03*
%TO.P,J1,A12,GND*%
%TO.N,GND*%
X113750000Y-75000000D03*
%TO.P,J1,B1,GND*%
X113750000Y-75000000D03*
%TO.P,J1,B4,VBUS*%
%TO.N,VBUS*%
X112950000Y-75000000D03*
D13*
%TO.P,J1,B5,CC2*%
%TO.N,Net-(J1-CC2)*%
X112250000Y-75000000D03*
%TO.P,J1,B6,D+*%
%TO.N,USB_D+*%
X111250000Y-75000000D03*
%TO.P,J1,B7,D-*%
%TO.N,USB_D-*%
X109750000Y-75000000D03*
%TO.P,J1,B8*%
%TO.N,N/C*%
X108750000Y-75000000D03*
D12*
%TO.P,J1,B9,VBUS*%
%TO.N,VBUS*%
X108050000Y-75000000D03*
%TO.P,J1,B12,GND*%
%TO.N,GND*%
X107250000Y-75000000D03*
D14*
%TO.P,J1,S1,SHIELD*%
X106180000Y-69905000D03*
D15*
X106180000Y-74085000D03*
D14*
X114820000Y-69905000D03*
D15*
X114820000Y-74085000D03*
%TD*%
D16*
%TO.P,C12,1*%
%TO.N,+3.3V*%
X141500000Y-75500000D03*
%TO.P,C12,2*%
%TO.N,GND*%
X142460000Y-75500000D03*
%TD*%
%TO.P,C9,1*%
%TO.N,+3.3V*%
X141520000Y-73500000D03*
%TO.P,C9,2*%
%TO.N,GND*%
X142480000Y-73500000D03*
%TD*%
D17*
%TO.P,C17,1*%
%TO.N,+1V1*%
X135000000Y-69520000D03*
%TO.P,C17,2*%
%TO.N,GND*%
X135000000Y-70480000D03*
%TD*%
D18*
%TO.P,SW2,1*%
%TO.N,CAN_L_IN*%
X130000000Y-102012500D03*
D19*
%TO.P,SW2,2*%
%TO.N,Net-(R8-Pad2)*%
X137620000Y-102012500D03*
%TD*%
D20*
%TO.P,R3,1*%
%TO.N,USB_D-*%
X103000000Y-76990000D03*
%TO.P,R3,2*%
%TO.N,Net-(U1-USB_DM)*%
X103000000Y-78010000D03*
%TD*%
D17*
%TO.P,C15,1*%
%TO.N,+1V1*%
X134000000Y-69500000D03*
%TO.P,C15,2*%
%TO.N,GND*%
X134000000Y-70460000D03*
%TD*%
D21*
%TO.P,C6,1*%
%TO.N,+3.3V*%
X140460000Y-76500000D03*
%TO.P,C6,2*%
%TO.N,GND*%
X139500000Y-76500000D03*
%TD*%
%TO.P,C7,1*%
%TO.N,+3.3V*%
X140480000Y-75500000D03*
%TO.P,C7,2*%
%TO.N,GND*%
X139520000Y-75500000D03*
%TD*%
D22*
%TO.P,SW1,1,1*%
%TO.N,Net-(R6-Pad2)*%
X128900000Y-106500000D03*
%TO.P,SW1,2,2*%
%TO.N,GND*%
X133100000Y-106500000D03*
%TD*%
D21*
%TO.P,C8,1*%
%TO.N,+3.3V*%
X140500000Y-74500000D03*
%TO.P,C8,2*%
%TO.N,GND*%
X139540000Y-74500000D03*
%TD*%
D23*
%TO.P,R7,1*%
%TO.N,+3.3V*%
X126990000Y-69500000D03*
%TO.P,R7,2*%
%TO.N,QSPI_SS*%
X128010000Y-69500000D03*
%TD*%
D21*
%TO.P,C14,1*%
%TO.N,+3.3V*%
X140460000Y-77500000D03*
%TO.P,C14,2*%
%TO.N,GND*%
X139500000Y-77500000D03*
%TD*%
D24*
%TO.P,J13,*%
%TO.N,*%
X107000000Y-95500000D03*
X107000000Y-84070000D03*
D25*
%TO.P,J13,1*%
%TO.N,CAN_H_IN*%
X113350000Y-94230000D03*
D26*
%TO.P,J13,2*%
%TO.N,CAN_L_IN*%
X115890000Y-92960000D03*
%TO.P,J13,3*%
%TO.N,GND*%
X113350000Y-91690000D03*
%TO.P,J13,4*%
X115890000Y-90420000D03*
%TO.P,J13,5*%
X113350000Y-89150000D03*
%TO.P,J13,6*%
X115890000Y-87880000D03*
%TO.P,J13,7*%
%TO.N,VBUS*%
X113350000Y-86610000D03*
%TO.P,J13,8*%
X115890000Y-85340000D03*
%TD*%
D27*
%TO.P,U3,1,~{CS}*%
%TO.N,QSPI_SS*%
X129095000Y-70412500D03*
%TO.P,U3,2,DO/IO_{1}*%
%TO.N,QSPI_SD1*%
X130365000Y-70412500D03*
%TO.P,U3,3,~{WP}/IO_{2}*%
%TO.N,QSPI_SD2*%
X131635000Y-70412500D03*
%TO.P,U3,4,GND*%
%TO.N,+3.3V*%
X132905000Y-70412500D03*
%TO.P,U3,5,DI/IO_{0}*%
%TO.N,QSPI_SD0*%
X132905000Y-77587500D03*
%TO.P,U3,6,CLK*%
%TO.N,QSPI_SCLK*%
X131635000Y-77587500D03*
%TO.P,U3,7,~{HOLD}/~{RESET}/IO_{3}*%
%TO.N,QSPI_SD3*%
X130365000Y-77587500D03*
%TO.P,U3,8,VCC*%
%TO.N,GND*%
X129095000Y-77587500D03*
%TD*%
D21*
%TO.P,C5,1*%
%TO.N,+3.3V*%
X133480000Y-68500000D03*
%TO.P,C5,2*%
%TO.N,GND*%
X132520000Y-68500000D03*
%TD*%
D20*
%TO.P,R6,1*%
%TO.N,QSPI_SS*%
X127500000Y-105480000D03*
%TO.P,R6,2*%
%TO.N,Net-(R6-Pad2)*%
X127500000Y-106500000D03*
%TD*%
D16*
%TO.P,C10,1*%
%TO.N,+3.3V*%
X141500000Y-77500000D03*
%TO.P,C10,2*%
%TO.N,GND*%
X142460000Y-77500000D03*
%TD*%
D28*
%TO.P,R8,1*%
%TO.N,CAN_H_IN*%
X140510000Y-99000000D03*
%TO.P,R8,2*%
%TO.N,Net-(R8-Pad2)*%
X139490000Y-99000000D03*
%TD*%
D24*
%TO.P,J12,*%
%TO.N,*%
X138350000Y-84070000D03*
X138350000Y-95500000D03*
D25*
%TO.P,J12,1*%
%TO.N,CAN_H_IN*%
X132000000Y-85340000D03*
D26*
%TO.P,J12,2*%
%TO.N,CAN_L_IN*%
X129460000Y-86610000D03*
%TO.P,J12,3*%
%TO.N,GND*%
X132000000Y-87880000D03*
%TO.P,J12,4*%
X129460000Y-89150000D03*
%TO.P,J12,5*%
X132000000Y-90420000D03*
%TO.P,J12,6*%
X129460000Y-91690000D03*
%TO.P,J12,7*%
%TO.N,VBUS*%
X132000000Y-92960000D03*
%TO.P,J12,8*%
X129460000Y-94230000D03*
%TD*%
D16*
%TO.P,C11,1*%
%TO.N,+3.3V*%
X141500000Y-76500000D03*
%TO.P,C11,2*%
%TO.N,GND*%
X142460000Y-76500000D03*
%TD*%
%TO.P,C13,1*%
%TO.N,+3.3V*%
X141480000Y-74500000D03*
%TO.P,C13,2*%
%TO.N,GND*%
X142440000Y-74500000D03*
%TD*%
D17*
%TO.P,C16,1*%
%TO.N,+1V1*%
X136000000Y-69520000D03*
%TO.P,C16,2*%
%TO.N,GND*%
X136000000Y-70480000D03*
%TD*%
D29*
%TO.P,R4,1*%
%TO.N,Net-(U1-USB_DP)*%
X102000000Y-78020000D03*
%TO.P,R4,2*%
%TO.N,USB_D+*%
X102000000Y-77000000D03*
%TD*%
D30*
%TO.N,GND*%
X125500000Y-69000000D03*
X111700000Y-105325735D03*
X126539527Y-68201000D03*
X112500000Y-98500000D03*
X107500000Y-79000000D03*
X103000000Y-98250000D03*
X106469669Y-78530331D03*
X128685550Y-80000000D03*
X115500000Y-77000000D03*
X109500000Y-79000000D03*
X118000000Y-98500000D03*
X134500000Y-105000000D03*
X132482495Y-79482495D03*
X112400000Y-101000000D03*
X112000000Y-79000000D03*
%TO.N,VBUS*%
X113000000Y-76500000D03*
X108000000Y-76500000D03*
X132000000Y-94500000D03*
X102000000Y-79000000D03*
%TO.N,+3.3V*%
X116000000Y-106500000D03*
X117437925Y-99250000D03*
X131000000Y-75000000D03*
X135511646Y-68385002D03*
X135961002Y-74988445D03*
X114500000Y-106000000D03*
X116500000Y-77000000D03*
X103000000Y-99250000D03*
X138000000Y-71500000D03*
X140000000Y-72400000D03*
X108654617Y-77956008D03*
X105500000Y-76500000D03*
X125500000Y-67800000D03*
X133837500Y-77163422D03*
%TO.N,+1V1*%
X135000000Y-69000000D03*
%TO.N,USB_D-*%
X110631374Y-72368626D03*
X109500000Y-73500000D03*
%TO.N,Net-(J1-CC2)*%
X111500000Y-77250000D03*
%TO.N,USB_D+*%
X110065687Y-72934313D03*
X111197061Y-71802939D03*
%TO.N,Net-(J1-CC1)*%
X109500000Y-77250000D03*
%TO.N,CAN_L_IN*%
X124500000Y-88500000D03*
%TO.N,CAN_H_IN*%
X121500000Y-90000000D03*
%TO.N,Net-(U1-USB_DM)*%
X135618885Y-71435808D03*
X103500000Y-82000000D03*
%TO.N,Net-(U1-USB_DP)*%
X133776764Y-71299000D03*
X118000000Y-67800000D03*
X102601000Y-82000000D03*
X118000000Y-69000000D03*
%TO.N,QSPI_SS*%
X129000000Y-69000000D03*
%TO.N,QSPI_SCLK*%
X132000000Y-76000000D03*
%TO.N,QSPI_SD0*%
X132133578Y-71700001D03*
%TO.N,GPIO18*%
X106000000Y-100000000D03*
X138000000Y-77000000D03*
X139876000Y-103500000D03*
X141500000Y-103500000D03*
%TO.N,GPIO22*%
X138441381Y-74621104D03*
%TO.N,GPIO19*%
X107000000Y-100000000D03*
X138565687Y-76434313D03*
X141500000Y-104500000D03*
X139475000Y-104500000D03*
%TO.N,QSPI_SD1*%
X130500000Y-69000000D03*
%TO.N,GPIO23*%
X138799000Y-73905484D03*
%TO.N,GPIO20*%
X138631804Y-75637047D03*
X139000000Y-105500000D03*
X105167237Y-100667237D03*
X141500000Y-105500000D03*
%TO.N,GPIO16*%
X103279000Y-101638500D03*
X135734443Y-76153587D03*
%TO.N,GPIO24*%
X138000000Y-73000000D03*
%TO.N,GPIO17*%
X137000000Y-77500000D03*
X102466500Y-102451000D03*
%TO.N,QSPI_SD3*%
X130937113Y-72725390D03*
%TO.N,QSPI_SD2*%
X131500000Y-69000000D03*
%TD*%
D31*
%TO.N,GND*%
X142480000Y-73500000D02*
X142480000Y-77480000D01*
X141849000Y-78111000D02*
X141000000Y-78111000D01*
X117849000Y-72651000D02*
X115500000Y-75000000D01*
X125500000Y-69000000D02*
X121500000Y-69000000D01*
D32*
X134500000Y-105000000D02*
X134500000Y-105100000D01*
D31*
X142480000Y-77480000D02*
X142460000Y-77500000D01*
X140111000Y-78111000D02*
X139500000Y-77500000D01*
X134000000Y-70460000D02*
X135980000Y-70460000D01*
X117849000Y-72523240D02*
X117849000Y-72651000D01*
X128685550Y-80000000D02*
X128789550Y-80104000D01*
X115500000Y-75000000D02*
X115500000Y-77000000D01*
X141000000Y-78111000D02*
X140111000Y-78111000D01*
X132374440Y-79590550D02*
X132482495Y-79482495D01*
X129095000Y-79590550D02*
X132374440Y-79590550D01*
X118651000Y-71849000D02*
X118523240Y-71849000D01*
X128789550Y-80104000D02*
X139007000Y-80104000D01*
X139500000Y-74540000D02*
X139540000Y-74500000D01*
X139500000Y-77500000D02*
X139500000Y-74540000D01*
X142460000Y-77500000D02*
X141849000Y-78111000D01*
X135000000Y-76964990D02*
X135000000Y-70480000D01*
X129095000Y-79590550D02*
X128685550Y-80000000D01*
X121500000Y-69000000D02*
X120151000Y-70349000D01*
X129095000Y-77587500D02*
X129095000Y-79590550D01*
X118889000Y-71611000D02*
X118651000Y-71849000D01*
X120151000Y-70936760D02*
X119476760Y-71611000D01*
D32*
X134500000Y-105100000D02*
X133100000Y-106500000D01*
D31*
X132221000Y-68201000D02*
X126539527Y-68201000D01*
X132520000Y-68500000D02*
X132221000Y-68201000D01*
X135980000Y-70460000D02*
X136000000Y-70480000D01*
X118523240Y-71849000D02*
X117849000Y-72523240D01*
X120151000Y-70349000D02*
X120151000Y-70936760D01*
X119476760Y-71611000D02*
X118889000Y-71611000D01*
X139007000Y-80104000D02*
X141000000Y-78111000D01*
X132482495Y-79482495D02*
X135000000Y-76964990D01*
D32*
%TO.N,VBUS*%
X108000000Y-75050000D02*
X108050000Y-75000000D01*
X113000000Y-76500000D02*
X113000000Y-75050000D01*
X113000000Y-75050000D02*
X112950000Y-75000000D01*
X108000000Y-76500000D02*
X108000000Y-75050000D01*
D31*
%TO.N,+3.3V*%
X116000000Y-106500000D02*
X115000000Y-106500000D01*
X136899000Y-68399000D02*
X139500000Y-71000000D01*
X140500000Y-72900000D02*
X140500000Y-74500000D01*
X134163450Y-68399000D02*
X136899000Y-68399000D01*
X133480000Y-68500000D02*
X134062450Y-68500000D01*
X141520000Y-73500000D02*
X141520000Y-77480000D01*
X140000000Y-72400000D02*
X140500000Y-72900000D01*
X133000000Y-69000000D02*
X132905000Y-69095000D01*
X139500000Y-71000000D02*
X141520000Y-73020000D01*
X132905000Y-70412500D02*
X132905000Y-69095000D01*
X133000000Y-68980000D02*
X133480000Y-68500000D01*
X141500000Y-77500000D02*
X140460000Y-77500000D01*
X138500000Y-71000000D02*
X139500000Y-71000000D01*
X133000000Y-69000000D02*
X133000000Y-68980000D01*
X138000000Y-71500000D02*
X138500000Y-71000000D01*
X115000000Y-106500000D02*
X114500000Y-106000000D01*
X141520000Y-77480000D02*
X141500000Y-77500000D01*
X126990000Y-69500000D02*
X125500000Y-68010000D01*
X140460000Y-77500000D02*
X140460000Y-74540000D01*
X140460000Y-74540000D02*
X140500000Y-74500000D01*
X125500000Y-68010000D02*
X125500000Y-67800000D01*
X141520000Y-73020000D02*
X141520000Y-73500000D01*
X134062450Y-68500000D02*
X134163450Y-68399000D01*
%TO.N,+1V1*%
X135000000Y-69520000D02*
X135000000Y-69000000D01*
X134000000Y-69500000D02*
X135980000Y-69500000D01*
X135980000Y-69500000D02*
X136000000Y-69520000D01*
%TO.N,USB_D-*%
X109750000Y-75000000D02*
X109750000Y-73750000D01*
X103000000Y-75582215D02*
X105848215Y-72734000D01*
X110750000Y-75000000D02*
X110750000Y-72487252D01*
X108734000Y-72734000D02*
X109500000Y-73500000D01*
X109750000Y-73750000D02*
X109500000Y-73500000D01*
X110750000Y-72487252D02*
X110631374Y-72368626D01*
X103000000Y-76990000D02*
X103000000Y-75582215D01*
X105848215Y-72734000D02*
X108734000Y-72734000D01*
%TO.N,Net-(J1-CC2)*%
X112250000Y-76500000D02*
X112250000Y-75000000D01*
X111500000Y-77250000D02*
X112250000Y-76500000D01*
%TO.N,USB_D+*%
X110250000Y-73118626D02*
X110065687Y-72934313D01*
X111250000Y-75000000D02*
X111250000Y-71855878D01*
X102000000Y-76015115D02*
X102000000Y-77000000D01*
X110065687Y-72934313D02*
X109464374Y-72333000D01*
X110250000Y-75000000D02*
X110250000Y-73118626D01*
X111250000Y-71855878D02*
X111197061Y-71802939D01*
X105682115Y-72333000D02*
X102000000Y-76015115D01*
X109464374Y-72333000D02*
X105682115Y-72333000D01*
%TO.N,Net-(J1-CC1)*%
X109500000Y-77250000D02*
X109250000Y-77000000D01*
X109250000Y-77000000D02*
X109250000Y-75000000D01*
%TO.N,CAN_L_IN*%
X130511000Y-86610000D02*
X129920000Y-86610000D01*
X130000000Y-100500000D02*
X128500000Y-99000000D01*
X130511000Y-95989000D02*
X130511000Y-86610000D01*
X123476760Y-92151000D02*
X124500000Y-91127760D01*
X124500000Y-91127760D02*
X124500000Y-88500000D01*
X116640000Y-93710000D02*
X120964240Y-93710000D01*
X115890000Y-92960000D02*
X116640000Y-93710000D01*
X128500000Y-99000000D02*
X128500000Y-98000000D01*
X129920000Y-86610000D02*
X129460000Y-86150000D01*
X122523240Y-92151000D02*
X123476760Y-92151000D01*
X120964240Y-93710000D02*
X122523240Y-92151000D01*
X130000000Y-102012500D02*
X130000000Y-100500000D01*
X128500000Y-98000000D02*
X130511000Y-95989000D01*
%TO.N,CAN_H_IN*%
X121500000Y-90000000D02*
X121500000Y-90500000D01*
X115892661Y-91471000D02*
X120529000Y-91471000D01*
X121500000Y-90500000D02*
X120529000Y-91471000D01*
X113350000Y-94013661D02*
X115892661Y-91471000D01*
X140510000Y-92010000D02*
X140510000Y-99000000D01*
X113350000Y-94230000D02*
X113350000Y-94013661D01*
X140510000Y-92010000D02*
X133380000Y-84880000D01*
X133380000Y-84880000D02*
X132000000Y-84880000D01*
%TO.N,Net-(U1-USB_DM)*%
X103500000Y-78510000D02*
X103000000Y-78010000D01*
X103500000Y-82000000D02*
X103500000Y-78510000D01*
%TO.N,Net-(U1-USB_DP)*%
X102601000Y-78621000D02*
X102000000Y-78020000D01*
X102601000Y-82000000D02*
X102601000Y-78621000D01*
%TO.N,Net-(R6-Pad2)*%
X128900000Y-106500000D02*
X127500000Y-106500000D01*
%TO.N,QSPI_SS*%
X128010000Y-69500000D02*
X128182500Y-69500000D01*
X129095000Y-70412500D02*
X129000000Y-70317500D01*
X128010000Y-101510000D02*
X128010000Y-69500000D01*
X127500000Y-102020000D02*
X128010000Y-101510000D01*
X128182500Y-69500000D02*
X129095000Y-70412500D01*
X129000000Y-70317500D02*
X129000000Y-69000000D01*
X127500000Y-105480000D02*
X127500000Y-102020000D01*
%TO.N,Net-(R8-Pad2)*%
X137620000Y-102012500D02*
X137620000Y-100870000D01*
X137620000Y-100870000D02*
X139490000Y-99000000D01*
%TO.N,QSPI_SCLK*%
X131635000Y-76365000D02*
X132000000Y-76000000D01*
X131635000Y-77587500D02*
X131635000Y-76365000D01*
%TO.N,QSPI_SD0*%
X132325043Y-71700001D02*
X132500000Y-71525044D01*
X132133578Y-71700001D02*
X132325043Y-71700001D01*
X132500000Y-71500000D02*
X132905000Y-71905000D01*
X132905000Y-71905000D02*
X132905000Y-77587500D01*
%TO.N,QSPI_SD1*%
X130365000Y-70412500D02*
X130365000Y-69135000D01*
X130365000Y-69135000D02*
X130500000Y-69000000D01*
%TO.N,QSPI_SD3*%
X130365000Y-77587500D02*
X130365000Y-73297503D01*
X130365000Y-73297503D02*
X130937113Y-72725390D01*
%TO.N,QSPI_SD2*%
X131635000Y-69135000D02*
X131500000Y-69000000D01*
X131635000Y-70412500D02*
X131635000Y-69135000D01*
%TD*%
M02*
