%TF.GenerationSoftware,KiCad,Pcbnew,9.0.7*%
%TF.CreationDate,2026-05-08T21:32:46+02:00*%
%TF.ProjectId,BusPlate,42757350-6c61-4746-952e-6b696361645f,rev?*%
%TF.SameCoordinates,Original*%
%TF.FileFunction,Copper,L3,Inr*%
%TF.FilePolarity,Positive*%
%FSLAX46Y46*%
G04 Gerber Fmt 4.6, Leading zero omitted, Abs format (unit mm)*
G04 Created by KiCad (PCBNEW 9.0.7) date 2026-05-08 21:32:46*
%MOMM*%
%LPD*%
G01*
G04 APERTURE LIST*
G04 Aperture macros list*
%AMRoundRect*
0 Rectangle with rounded corners*
0 $1 Rounding radius*
0 $2 $3 $4 $5 $6 $7 $8 $9 X,Y pos of 4 corners*
0 Add a 4 corners polygon primitive as box body*
4,1,4,$2,$3,$4,$5,$6,$7,$8,$9,$2,$3,0*
0 Add four circle primitives for the rounded corners*
1,1,$1+$1,$2,$3*
1,1,$1+$1,$4,$5*
1,1,$1+$1,$6,$7*
1,1,$1+$1,$8,$9*
0 Add four rect primitives between the rounded corners*
20,1,$1+$1,$2,$3,$4,$5,0*
20,1,$1+$1,$4,$5,$6,$7,0*
20,1,$1+$1,$6,$7,$8,$9,0*
20,1,$1+$1,$8,$9,$2,$3,0*%
G04 Aperture macros list end*
%TA.AperFunction,ComponentPad*%
%ADD10R,1.700000X1.700000*%
%TD*%
%TA.AperFunction,ComponentPad*%
%ADD11C,1.700000*%
%TD*%
%TA.AperFunction,HeatsinkPad*%
%ADD12O,1.000000X1.600000*%
%TD*%
%TA.AperFunction,HeatsinkPad*%
%ADD13O,1.000000X2.100000*%
%TD*%
%TA.AperFunction,ComponentPad*%
%ADD14RoundRect,0.250000X-0.550000X-0.550000X0.550000X-0.550000X0.550000X0.550000X-0.550000X0.550000X0*%
%TD*%
%TA.AperFunction,ComponentPad*%
%ADD15C,1.600000*%
%TD*%
%TA.AperFunction,WasherPad*%
%ADD16C,3.650000*%
%TD*%
%TA.AperFunction,ComponentPad*%
%ADD17R,1.500000X1.500000*%
%TD*%
%TA.AperFunction,ComponentPad*%
%ADD18C,1.500000*%
%TD*%
%TA.AperFunction,ViaPad*%
%ADD19C,0.600000*%
%TD*%
%TA.AperFunction,Conductor*%
%ADD20C,0.200000*%
%TD*%
%TA.AperFunction,Conductor*%
%ADD21C,0.500000*%
%TD*%
%TA.AperFunction,Conductor*%
%ADD22C,0.100000*%
%TD*%
G04 APERTURE END LIST*
D10*
%TO.N,GPIO0*%
%TO.C,J2*%
X123000000Y-70680000D03*
D11*
%TO.N,GPIO1*%
X123000000Y-73220000D03*
%TO.N,GPIO2*%
X123000000Y-75760000D03*
%TO.N,GPIO3*%
X123000000Y-78300000D03*
%TO.N,GPIO4*%
X123000000Y-80840000D03*
%TO.N,GPIO5*%
X123000000Y-83380000D03*
%TO.N,GPIO6*%
X123000000Y-85920000D03*
%TO.N,GPIO7*%
X123000000Y-88460000D03*
%TO.N,GPIO8*%
X123000000Y-91000000D03*
%TO.N,GPIO9*%
X123000000Y-93540000D03*
%TO.N,GPIO10*%
X123000000Y-96080000D03*
%TO.N,GPIO11*%
X123000000Y-98620000D03*
%TO.N,GPIO12*%
X123000000Y-101160000D03*
%TO.N,GPIO13*%
X123000000Y-103700000D03*
%TO.N,GPIO14*%
X123000000Y-106240000D03*
%TO.N,GPIO15*%
X123000000Y-108780000D03*
%TD*%
D10*
%TO.N,GPIO22*%
%TO.C,J3*%
X119000000Y-75540000D03*
D11*
%TO.N,GPIO23*%
X119000000Y-73000000D03*
%TO.N,GPIO24*%
X119000000Y-70460000D03*
%TD*%
D10*
%TO.N,+3.3V*%
%TO.C,J4*%
X119000000Y-80000000D03*
D11*
%TO.N,GND*%
X116460000Y-80000000D03*
%TD*%
D12*
%TO.N,GND*%
%TO.C,J1*%
X106180000Y-69905000D03*
D13*
X106180000Y-74085000D03*
D12*
X114820000Y-69905000D03*
D13*
X114820000Y-74085000D03*
%TD*%
D14*
%TO.N,CAN_L_IN*%
%TO.C,SW2*%
X130000000Y-102012500D03*
D15*
%TO.N,Net-(R8-Pad2)*%
X137620000Y-102012500D03*
%TD*%
D16*
%TO.N,*%
%TO.C,J13*%
X107000000Y-95500000D03*
X107000000Y-84070000D03*
D17*
%TO.N,CAN_H_IN*%
X113350000Y-94230000D03*
D18*
%TO.N,CAN_L_IN*%
X115890000Y-92960000D03*
%TO.N,GND*%
X113350000Y-91690000D03*
X115890000Y-90420000D03*
X113350000Y-89150000D03*
X115890000Y-87880000D03*
%TO.N,VBUS*%
X113350000Y-86610000D03*
X115890000Y-85340000D03*
%TD*%
D16*
%TO.N,*%
%TO.C,J12*%
X138350000Y-84070000D03*
X138350000Y-95500000D03*
D17*
%TO.N,CAN_H_IN*%
X132000000Y-85340000D03*
D18*
%TO.N,CAN_L_IN*%
X129460000Y-86610000D03*
%TO.N,GND*%
X132000000Y-87880000D03*
X129460000Y-89150000D03*
X132000000Y-90420000D03*
X129460000Y-91690000D03*
%TO.N,VBUS*%
X132000000Y-92960000D03*
X129460000Y-94230000D03*
%TD*%
D19*
%TO.N,GND*%
X125500000Y-69000000D03*
X111700000Y-105325735D03*
X126539527Y-68201000D03*
X112500000Y-98500000D03*
X107500000Y-79000000D03*
X103000000Y-98250000D03*
X106469669Y-78530331D03*
X128685550Y-80000000D03*
X115500000Y-77000000D03*
X109500000Y-79000000D03*
X118000000Y-98500000D03*
X134500000Y-105000000D03*
X132482495Y-79482495D03*
X112400000Y-101000000D03*
X112000000Y-79000000D03*
%TO.N,VBUS*%
X113000000Y-76500000D03*
X108000000Y-76500000D03*
X132000000Y-94500000D03*
X102000000Y-79000000D03*
%TO.N,+3.3V*%
X116000000Y-106500000D03*
X117437925Y-99250000D03*
X131000000Y-75000000D03*
X135511646Y-68385002D03*
X135961002Y-74988445D03*
X114500000Y-106000000D03*
X116500000Y-77000000D03*
X103000000Y-99250000D03*
X138000000Y-71500000D03*
X140000000Y-72400000D03*
X108654617Y-77956008D03*
X105500000Y-76500000D03*
X125500000Y-67800000D03*
X133837500Y-77163422D03*
%TO.N,+1V1*%
X135000000Y-69000000D03*
%TO.N,USB_D-*%
X110631374Y-72368626D03*
X109500000Y-73500000D03*
%TO.N,Net-(J1-CC2)*%
X111500000Y-77250000D03*
%TO.N,USB_D+*%
X110065687Y-72934313D03*
X111197061Y-71802939D03*
%TO.N,Net-(J1-CC1)*%
X109500000Y-77250000D03*
%TO.N,CAN_L_IN*%
X124500000Y-88500000D03*
%TO.N,CAN_H_IN*%
X121500000Y-90000000D03*
%TO.N,Net-(U1-USB_DM)*%
X135618885Y-71435808D03*
X103500000Y-82000000D03*
%TO.N,Net-(U1-USB_DP)*%
X133776764Y-71299000D03*
X118000000Y-67800000D03*
X102601000Y-82000000D03*
X118000000Y-69000000D03*
%TO.N,QSPI_SS*%
X129000000Y-69000000D03*
%TO.N,QSPI_SCLK*%
X132000000Y-76000000D03*
%TO.N,QSPI_SD0*%
X132133578Y-71700001D03*
%TO.N,GPIO18*%
X106000000Y-100000000D03*
X138000000Y-77000000D03*
X139876000Y-103500000D03*
X141500000Y-103500000D03*
%TO.N,GPIO22*%
X138441381Y-74621104D03*
%TO.N,GPIO19*%
X107000000Y-100000000D03*
X138565687Y-76434313D03*
X141500000Y-104500000D03*
X139475000Y-104500000D03*
%TO.N,QSPI_SD1*%
X130500000Y-69000000D03*
%TO.N,GPIO23*%
X138799000Y-73905484D03*
%TO.N,GPIO20*%
X138631804Y-75637047D03*
X139000000Y-105500000D03*
X105167237Y-100667237D03*
X141500000Y-105500000D03*
%TO.N,GPIO16*%
X103279000Y-101638500D03*
X135734443Y-76153587D03*
%TO.N,GPIO24*%
X138000000Y-73000000D03*
%TO.N,GPIO17*%
X137000000Y-77500000D03*
X102466500Y-102451000D03*
%TO.N,QSPI_SD3*%
X130937113Y-72725390D03*
%TO.N,QSPI_SD2*%
X131500000Y-69000000D03*
%TD*%
D20*
%TO.N,GND*%
X111700000Y-105325735D02*
X112400000Y-104625735D01*
X112400000Y-104625735D02*
X112400000Y-101000000D01*
D21*
%TO.N,VBUS*%
X102000000Y-81000000D02*
X102000000Y-79000000D01*
X107740000Y-81000000D02*
X113350000Y-86610000D01*
X102000000Y-81000000D02*
X107740000Y-81000000D01*
X108000000Y-76500000D02*
X113000000Y-76500000D01*
D20*
%TO.N,+3.3V*%
X112500000Y-99500000D02*
X113000000Y-100000000D01*
D21*
X111937925Y-99000000D02*
X112437925Y-99500000D01*
X120000000Y-89832240D02*
X120000000Y-79500000D01*
X107000000Y-78000000D02*
X116500000Y-78000000D01*
X118500000Y-78000000D02*
X116500000Y-78000000D01*
D20*
X135961002Y-74988445D02*
X135500000Y-74988445D01*
D21*
X111937925Y-99000000D02*
X103000000Y-99000000D01*
X117688925Y-99251000D02*
X118311075Y-99251000D01*
X105500000Y-76500000D02*
X107000000Y-78000000D01*
X119500000Y-99500000D02*
X119500000Y-90332240D01*
D20*
X135500000Y-75500922D02*
X133837500Y-77163422D01*
D21*
X112437925Y-99500000D02*
X112500000Y-99500000D01*
X112500000Y-99500000D02*
X112562075Y-99500000D01*
X119500000Y-90332240D02*
X120000000Y-89832240D01*
X117437925Y-99000000D02*
X117688925Y-99251000D01*
X118311075Y-99251000D02*
X118562075Y-99000000D01*
X119000000Y-99000000D02*
X119500000Y-99500000D01*
D20*
X113000000Y-100000000D02*
X113000000Y-104500000D01*
X135500000Y-74988445D02*
X131011555Y-74988445D01*
D21*
X113062075Y-99000000D02*
X117437925Y-99000000D01*
D20*
X135500000Y-74988445D02*
X135500000Y-75500922D01*
D22*
X131011555Y-74988445D02*
X131000000Y-75000000D01*
D21*
X120000000Y-79500000D02*
X118500000Y-78000000D01*
D20*
X113000000Y-104500000D02*
X114500000Y-106000000D01*
X135500000Y-74988445D02*
X135500000Y-74000000D01*
D21*
X112562075Y-99500000D02*
X113062075Y-99000000D01*
D20*
X135500000Y-74000000D02*
X138000000Y-71500000D01*
D21*
X118562075Y-99000000D02*
X119000000Y-99000000D01*
D20*
X116500000Y-77000000D02*
X116500000Y-78000000D01*
%TD*%
M02*
