%TF.GenerationSoftware,KiCad,Pcbnew,9.0.7*%
%TF.CreationDate,2026-05-08T21:32:46+02:00*%
%TF.ProjectId,BusPlate,42757350-6c61-4746-952e-6b696361645f,rev?*%
%TF.SameCoordinates,Original*%
%TF.FileFunction,Copper,L2,Inr*%
%TF.FilePolarity,Positive*%
%FSLAX46Y46*%
G04 Gerber Fmt 4.6, Leading zero omitted, Abs format (unit mm)*
G04 Created by KiCad (PCBNEW 9.0.7) date 2026-05-08 21:32:46*
%MOMM*%
%LPD*%
G01*
G04 APERTURE LIST*
G04 Aperture macros list*
%AMRoundRect*
0 Rectangle with rounded corners*
0 $1 Rounding radius*
0 $2 $3 $4 $5 $6 $7 $8 $9 X,Y pos of 4 corners*
0 Add a 4 corners polygon primitive as box body*
4,1,4,$2,$3,$4,$5,$6,$7,$8,$9,$2,$3,0*
0 Add four circle primitives for the rounded corners*
1,1,$1+$1,$2,$3*
1,1,$1+$1,$4,$5*
1,1,$1+$1,$6,$7*
1,1,$1+$1,$8,$9*
0 Add four rect primitives between the rounded corners*
20,1,$1+$1,$2,$3,$4,$5,0*
20,1,$1+$1,$4,$5,$6,$7,0*
20,1,$1+$1,$6,$7,$8,$9,0*
20,1,$1+$1,$8,$9,$2,$3,0*%
G04 Aperture macros list end*
%TA.AperFunction,ComponentPad*%
%ADD10R,1.700000X1.700000*%
%TD*%
%TA.AperFunction,ComponentPad*%
%ADD11C,1.700000*%
%TD*%
%TA.AperFunction,HeatsinkPad*%
%ADD12O,1.000000X1.600000*%
%TD*%
%TA.AperFunction,HeatsinkPad*%
%ADD13O,1.000000X2.100000*%
%TD*%
%TA.AperFunction,ComponentPad*%
%ADD14RoundRect,0.250000X-0.550000X-0.550000X0.550000X-0.550000X0.550000X0.550000X-0.550000X0.550000X0*%
%TD*%
%TA.AperFunction,ComponentPad*%
%ADD15C,1.600000*%
%TD*%
%TA.AperFunction,WasherPad*%
%ADD16C,3.650000*%
%TD*%
%TA.AperFunction,ComponentPad*%
%ADD17R,1.500000X1.500000*%
%TD*%
%TA.AperFunction,ComponentPad*%
%ADD18C,1.500000*%
%TD*%
%TA.AperFunction,ViaPad*%
%ADD19C,0.600000*%
%TD*%
%TA.AperFunction,Conductor*%
%ADD20C,0.500000*%
%TD*%
%TA.AperFunction,Conductor*%
%ADD21C,0.200000*%
%TD*%
G04 APERTURE END LIST*
D10*
%TO.N,GPIO0*%
%TO.C,J2*%
X123000000Y-70680000D03*
D11*
%TO.N,GPIO1*%
X123000000Y-73220000D03*
%TO.N,GPIO2*%
X123000000Y-75760000D03*
%TO.N,GPIO3*%
X123000000Y-78300000D03*
%TO.N,GPIO4*%
X123000000Y-80840000D03*
%TO.N,GPIO5*%
X123000000Y-83380000D03*
%TO.N,GPIO6*%
X123000000Y-85920000D03*
%TO.N,GPIO7*%
X123000000Y-88460000D03*
%TO.N,GPIO8*%
X123000000Y-91000000D03*
%TO.N,GPIO9*%
X123000000Y-93540000D03*
%TO.N,GPIO10*%
X123000000Y-96080000D03*
%TO.N,GPIO11*%
X123000000Y-98620000D03*
%TO.N,GPIO12*%
X123000000Y-101160000D03*
%TO.N,GPIO13*%
X123000000Y-103700000D03*
%TO.N,GPIO14*%
X123000000Y-106240000D03*
%TO.N,GPIO15*%
X123000000Y-108780000D03*
%TD*%
D10*
%TO.N,GPIO22*%
%TO.C,J3*%
X119000000Y-75540000D03*
D11*
%TO.N,GPIO23*%
X119000000Y-73000000D03*
%TO.N,GPIO24*%
X119000000Y-70460000D03*
%TD*%
D10*
%TO.N,+3.3V*%
%TO.C,J4*%
X119000000Y-80000000D03*
D11*
%TO.N,GND*%
X116460000Y-80000000D03*
%TD*%
D12*
%TO.N,GND*%
%TO.C,J1*%
X106180000Y-69905000D03*
D13*
X106180000Y-74085000D03*
D12*
X114820000Y-69905000D03*
D13*
X114820000Y-74085000D03*
%TD*%
D14*
%TO.N,CAN_L_IN*%
%TO.C,SW2*%
X130000000Y-102012500D03*
D15*
%TO.N,Net-(R8-Pad2)*%
X137620000Y-102012500D03*
%TD*%
D16*
%TO.N,*%
%TO.C,J13*%
X107000000Y-95500000D03*
X107000000Y-84070000D03*
D17*
%TO.N,CAN_H_IN*%
X113350000Y-94230000D03*
D18*
%TO.N,CAN_L_IN*%
X115890000Y-92960000D03*
%TO.N,GND*%
X113350000Y-91690000D03*
X115890000Y-90420000D03*
X113350000Y-89150000D03*
X115890000Y-87880000D03*
%TO.N,VBUS*%
X113350000Y-86610000D03*
X115890000Y-85340000D03*
%TD*%
D16*
%TO.N,*%
%TO.C,J12*%
X138350000Y-84070000D03*
X138350000Y-95500000D03*
D17*
%TO.N,CAN_H_IN*%
X132000000Y-85340000D03*
D18*
%TO.N,CAN_L_IN*%
X129460000Y-86610000D03*
%TO.N,GND*%
X132000000Y-87880000D03*
X129460000Y-89150000D03*
X132000000Y-90420000D03*
X129460000Y-91690000D03*
%TO.N,VBUS*%
X132000000Y-92960000D03*
X129460000Y-94230000D03*
%TD*%
D19*
%TO.N,GND*%
X125500000Y-69000000D03*
X111700000Y-105325735D03*
X126539527Y-68201000D03*
X112500000Y-98500000D03*
X107500000Y-79000000D03*
X103000000Y-98250000D03*
X106469669Y-78530331D03*
X128685550Y-80000000D03*
X115500000Y-77000000D03*
X109500000Y-79000000D03*
X118000000Y-98500000D03*
X134500000Y-105000000D03*
X132482495Y-79482495D03*
X112400000Y-101000000D03*
X112000000Y-79000000D03*
%TO.N,VBUS*%
X113000000Y-76500000D03*
X108000000Y-76500000D03*
X132000000Y-94500000D03*
X102000000Y-79000000D03*
%TO.N,+3.3V*%
X116000000Y-106500000D03*
X117437925Y-99250000D03*
X131000000Y-75000000D03*
X135511646Y-68385002D03*
X135961002Y-74988445D03*
X114500000Y-106000000D03*
X116500000Y-77000000D03*
X103000000Y-99250000D03*
X138000000Y-71500000D03*
X140000000Y-72400000D03*
X108654617Y-77956008D03*
X105500000Y-76500000D03*
X125500000Y-67800000D03*
X133837500Y-77163422D03*
%TO.N,+1V1*%
X135000000Y-69000000D03*
%TO.N,USB_D-*%
X110631374Y-72368626D03*
X109500000Y-73500000D03*
%TO.N,Net-(J1-CC2)*%
X111500000Y-77250000D03*
%TO.N,USB_D+*%
X110065687Y-72934313D03*
X111197061Y-71802939D03*
%TO.N,Net-(J1-CC1)*%
X109500000Y-77250000D03*
%TO.N,CAN_L_IN*%
X124500000Y-88500000D03*
%TO.N,CAN_H_IN*%
X121500000Y-90000000D03*
%TO.N,Net-(U1-USB_DM)*%
X135618885Y-71435808D03*
X103500000Y-82000000D03*
%TO.N,Net-(U1-USB_DP)*%
X133776764Y-71299000D03*
X118000000Y-67800000D03*
X102601000Y-82000000D03*
X118000000Y-69000000D03*
%TO.N,QSPI_SS*%
X129000000Y-69000000D03*
%TO.N,QSPI_SCLK*%
X132000000Y-76000000D03*
%TO.N,QSPI_SD0*%
X132133578Y-71700001D03*
%TO.N,GPIO18*%
X106000000Y-100000000D03*
X138000000Y-77000000D03*
X139876000Y-103500000D03*
X141500000Y-103500000D03*
%TO.N,GPIO22*%
X138441381Y-74621104D03*
%TO.N,GPIO19*%
X107000000Y-100000000D03*
X138565687Y-76434313D03*
X141500000Y-104500000D03*
X139475000Y-104500000D03*
%TO.N,QSPI_SD1*%
X130500000Y-69000000D03*
%TO.N,GPIO23*%
X138799000Y-73905484D03*
%TO.N,GPIO20*%
X138631804Y-75637047D03*
X139000000Y-105500000D03*
X105167237Y-100667237D03*
X141500000Y-105500000D03*
%TO.N,GPIO16*%
X103279000Y-101638500D03*
X135734443Y-76153587D03*
%TO.N,GPIO24*%
X138000000Y-73000000D03*
%TO.N,GPIO17*%
X137000000Y-77500000D03*
X102466500Y-102451000D03*
%TO.N,QSPI_SD3*%
X130937113Y-72725390D03*
%TO.N,QSPI_SD2*%
X131500000Y-69000000D03*
%TD*%
D20*
%TO.N,GND*%
X115890000Y-87880000D02*
X115890000Y-89150000D01*
D21*
X122523240Y-82229000D02*
X122303240Y-82449000D01*
D20*
X114850000Y-87650000D02*
X113350000Y-89150000D01*
D21*
X128356550Y-79671000D02*
X128685550Y-80000000D01*
D20*
X118850000Y-87650000D02*
X119000000Y-87500000D01*
D21*
X115500000Y-77000000D02*
X114820000Y-77000000D01*
X123696760Y-82449000D02*
X123476760Y-82229000D01*
D20*
X129460000Y-88690000D02*
X130730000Y-88690000D01*
D21*
X119000000Y-82500000D02*
X121829000Y-79671000D01*
D20*
X134960000Y-89960000D02*
X132000000Y-89960000D01*
X129460000Y-91230000D02*
X130730000Y-91230000D01*
X114820000Y-74085000D02*
X114820000Y-69905000D01*
X114500000Y-79000000D02*
X117500000Y-82000000D01*
D21*
X122303240Y-82449000D02*
X119051000Y-82449000D01*
D20*
X119000000Y-82500000D02*
X119000000Y-87500000D01*
X132000000Y-89960000D02*
X132000000Y-87420000D01*
X119000000Y-98500000D02*
X119000000Y-109500000D01*
X113350000Y-89150000D02*
X113350000Y-91690000D01*
X135500000Y-90500000D02*
X134960000Y-89960000D01*
X118000000Y-98500000D02*
X103000000Y-98500000D01*
X115890000Y-90420000D02*
X115890000Y-87880000D01*
X132000000Y-87420000D02*
X130730000Y-88690000D01*
D21*
X121829000Y-79671000D02*
X122525955Y-79671000D01*
D20*
X115890000Y-89150000D02*
X113350000Y-91690000D01*
X106469669Y-78530331D02*
X106939338Y-79000000D01*
X135500000Y-106000000D02*
X134500000Y-105000000D01*
X129460000Y-88690000D02*
X129460000Y-91230000D01*
D21*
X119051000Y-82449000D02*
X119000000Y-82500000D01*
D20*
X133256000Y-110244000D02*
X135500000Y-108000000D01*
X114620000Y-91690000D02*
X115890000Y-90420000D01*
X118500000Y-82000000D02*
X119000000Y-82500000D01*
X106939338Y-79000000D02*
X107500000Y-79000000D01*
X114820000Y-69905000D02*
X106180000Y-69905000D01*
X106180000Y-69905000D02*
X106180000Y-74085000D01*
D21*
X128685550Y-80000000D02*
X126236550Y-82449000D01*
D20*
X135500000Y-108000000D02*
X135500000Y-106000000D01*
X135500000Y-106000000D02*
X135500000Y-90500000D01*
X117500000Y-82000000D02*
X118500000Y-82000000D01*
X119000000Y-87500000D02*
X119000000Y-98500000D01*
X107500000Y-79000000D02*
X110000000Y-79000000D01*
D21*
X123476760Y-82229000D02*
X122523240Y-82229000D01*
X123325955Y-79671000D02*
X128356550Y-79671000D01*
D20*
X112000000Y-79000000D02*
X114500000Y-79000000D01*
X130730000Y-88690000D02*
X132000000Y-89960000D01*
X114820000Y-78680000D02*
X114500000Y-79000000D01*
X130730000Y-91230000D02*
X132000000Y-89960000D01*
X114820000Y-74085000D02*
X114820000Y-77000000D01*
D21*
X122725955Y-79471000D02*
X123125955Y-79471000D01*
D20*
X118850000Y-87650000D02*
X114850000Y-87650000D01*
X119000000Y-109500000D02*
X119744000Y-110244000D01*
X119744000Y-110244000D02*
X133256000Y-110244000D01*
X113350000Y-91690000D02*
X114620000Y-91690000D01*
X114820000Y-77000000D02*
X114820000Y-78680000D01*
X119000000Y-98500000D02*
X118000000Y-98500000D01*
D21*
X126236550Y-82449000D02*
X123696760Y-82449000D01*
D20*
X110000000Y-79000000D02*
X112000000Y-79000000D01*
D21*
X123125955Y-79471000D02*
G75*
G02*
X123226000Y-79571000I45J-100000D01*
G01*
X122625955Y-79571000D02*
G75*
G02*
X122725955Y-79470955I100045J0D01*
G01*
X123225955Y-79571000D02*
G75*
G03*
X123325955Y-79671045I100045J0D01*
G01*
X122525955Y-79671000D02*
G75*
G03*
X122626000Y-79571000I45J100000D01*
G01*
D20*
%TO.N,VBUS*%
X132000000Y-94500000D02*
X130190000Y-94500000D01*
X114620000Y-86610000D02*
X115890000Y-85340000D01*
X113350000Y-86610000D02*
X114620000Y-86610000D01*
X130190000Y-94500000D02*
X129460000Y-93770000D01*
D21*
%TO.N,CAN_L_IN*%
X126390000Y-86610000D02*
X129000000Y-86610000D01*
X124500000Y-88500000D02*
X126390000Y-86610000D01*
X129000000Y-86610000D02*
X129460000Y-86150000D01*
%TO.N,CAN_H_IN*%
X124500000Y-90000000D02*
X126500000Y-88000000D01*
X129830000Y-88000000D02*
X132000000Y-85830000D01*
X123476760Y-89849000D02*
X123627760Y-90000000D01*
X132000000Y-85830000D02*
X132000000Y-84880000D01*
X121500000Y-90000000D02*
X122372240Y-90000000D01*
X122372240Y-90000000D02*
X122523240Y-89849000D01*
X126500000Y-88000000D02*
X129830000Y-88000000D01*
X122523240Y-89849000D02*
X123476760Y-89849000D01*
X123627760Y-90000000D02*
X124500000Y-90000000D01*
%TO.N,Net-(U1-USB_DM)*%
X135144300Y-70698000D02*
X128186584Y-70698000D01*
X103500000Y-71152215D02*
X103500000Y-82000000D01*
X135663865Y-71236135D02*
X135663865Y-71217565D01*
X128186584Y-70698000D02*
X125888584Y-68400000D01*
X135618885Y-71281115D02*
X135663865Y-71236135D01*
X106252215Y-68400000D02*
X103500000Y-71152215D01*
X125888584Y-68400000D02*
X106252215Y-68400000D01*
X135663865Y-71217565D02*
X135144300Y-70698000D01*
X135618885Y-71435808D02*
X135618885Y-71281115D01*
%TO.N,Net-(U1-USB_DP)*%
X101049000Y-80448000D02*
X101049000Y-69398976D01*
X118000000Y-69000000D02*
X123500000Y-69000000D01*
X133576764Y-71099000D02*
X133776764Y-71299000D01*
X123500000Y-69000000D02*
X125599000Y-71099000D01*
X101049000Y-69398976D02*
X102447976Y-68000000D01*
X118000000Y-68000000D02*
X118000000Y-67800000D01*
X102447976Y-68000000D02*
X118000000Y-68000000D01*
X125599000Y-71099000D02*
X133576764Y-71099000D01*
X102601000Y-82000000D02*
X101049000Y-80448000D01*
%TO.N,GPIO18*%
X140075000Y-108357900D02*
X140075000Y-103699000D01*
X106000000Y-103500000D02*
X114097000Y-111597000D01*
X106000000Y-100000000D02*
X106000000Y-103500000D01*
X140075000Y-103699000D02*
X139876000Y-103500000D01*
X141500000Y-92532800D02*
X141500000Y-103500000D01*
X138000000Y-77000000D02*
X141000000Y-80000000D01*
X141000000Y-92032800D02*
X141500000Y-92532800D01*
X141000000Y-80000000D02*
X141000000Y-92032800D01*
X136835900Y-111597000D02*
X140075000Y-108357900D01*
X114097000Y-111597000D02*
X136835900Y-111597000D01*
%TO.N,GPIO22*%
X120371000Y-76911000D02*
X119000000Y-75540000D01*
X138441381Y-74621104D02*
X138207722Y-74387445D01*
X126000315Y-74387445D02*
X123476760Y-76911000D01*
X138207722Y-74387445D02*
X126000315Y-74387445D01*
X123476760Y-76911000D02*
X120371000Y-76911000D01*
%TO.N,GPIO19*%
X139674000Y-108191800D02*
X136669800Y-111196000D01*
X138565687Y-76434313D02*
X141500000Y-79368626D01*
X142101000Y-85101000D02*
X142101000Y-103899000D01*
X142101000Y-103899000D02*
X141500000Y-104500000D01*
X114263100Y-111196000D02*
X107500000Y-104432900D01*
X141500000Y-84500000D02*
X142101000Y-85101000D01*
X139674000Y-104699000D02*
X139674000Y-108191800D01*
X139475000Y-104500000D02*
X139674000Y-104699000D01*
X107500000Y-100500000D02*
X107000000Y-100000000D01*
X107500000Y-104432900D02*
X107500000Y-100500000D01*
X141500000Y-79368626D02*
X141500000Y-84500000D01*
X136669800Y-111196000D02*
X114263100Y-111196000D01*
%TO.N,GPIO23*%
X120371000Y-74371000D02*
X119000000Y-73000000D01*
X123942276Y-73905484D02*
X123476760Y-74371000D01*
X138799000Y-73905484D02*
X123942276Y-73905484D01*
X123476760Y-74371000D02*
X120371000Y-74371000D01*
%TO.N,GPIO20*%
X142502000Y-104498000D02*
X141500000Y-105500000D01*
X114429200Y-110795000D02*
X107901000Y-104266800D01*
X105167237Y-99982820D02*
X105167237Y-100667237D01*
X138631804Y-75637047D02*
X142000000Y-79005243D01*
X142000000Y-79005243D02*
X142000000Y-84134200D01*
X107901000Y-104266800D02*
X107901000Y-100051057D01*
X142000000Y-84134200D02*
X142502000Y-84636200D01*
X105751057Y-99399000D02*
X105167237Y-99982820D01*
X107248943Y-99399000D02*
X105751057Y-99399000D01*
X139000000Y-105500000D02*
X139000000Y-108298700D01*
X142502000Y-84636200D02*
X142502000Y-104498000D01*
X107901000Y-100051057D02*
X107248943Y-99399000D01*
X139000000Y-108298700D02*
X136503700Y-110795000D01*
X136503700Y-110795000D02*
X114429200Y-110795000D01*
%TO.N,GPIO16*%
X140476000Y-92643000D02*
X140476000Y-108524000D01*
X137002000Y-111998000D02*
X113638500Y-111998000D01*
X140476000Y-108524000D02*
X137002000Y-111998000D01*
X135734443Y-76153587D02*
X135734443Y-83234443D01*
X113638500Y-111998000D02*
X103279000Y-101638500D01*
X135500000Y-87667000D02*
X140476000Y-92643000D01*
X135734443Y-83234443D02*
X135500000Y-83468886D01*
X135500000Y-83468886D02*
X135500000Y-87667000D01*
%TO.N,GPIO24*%
X124734150Y-73326390D02*
X123238760Y-71831000D01*
X120371000Y-71831000D02*
X119000000Y-70460000D01*
X138000000Y-73000000D02*
X137673610Y-73326390D01*
X137673610Y-73326390D02*
X124734150Y-73326390D01*
X123238760Y-71831000D02*
X120371000Y-71831000D01*
%TO.N,GPIO17*%
X137000000Y-77500000D02*
X140476000Y-80976000D01*
X140877000Y-108690100D02*
X137168100Y-112399000D01*
X103451000Y-102451000D02*
X102466500Y-102451000D01*
X140476000Y-80976000D02*
X140476000Y-92075900D01*
X140476000Y-92075900D02*
X140877000Y-92476900D01*
X140877000Y-92476900D02*
X140877000Y-108690100D01*
X137168100Y-112399000D02*
X113399000Y-112399000D01*
X113399000Y-112399000D02*
X103451000Y-102451000D01*
%TD*%
M02*
