M48
; DRILL file {KiCad 9.0.7} date 2026-05-08T21:33:02+0200
; FORMAT={-:-/ absolute / metric / decimal}
; #@! TF.CreationDate,2026-05-08T21:33:02+02:00
; #@! TF.GenerationSoftware,Kicad,Pcbnew,9.0.7
; #@! TF.FileFunction,Plated,1,4,PTH
FMAT,2
METRIC
; #@! TA.AperFunction,Plated,PTH,ViaDrill
T1C0.300
; #@! TA.AperFunction,Plated,PTH,ComponentDrill
T2C0.600
; #@! TA.AperFunction,Plated,PTH,ComponentDrill
T3C0.800
; #@! TA.AperFunction,Plated,PTH,ComponentDrill
T4C0.900
; #@! TA.AperFunction,Plated,PTH,ComponentDrill
T5C1.000
%
G90
G05
T1
X102.0Y-79.0
X102.466Y-102.451
X102.601Y-82.0
X103.0Y-98.25
X103.0Y-99.25
X103.279Y-101.638
X103.5Y-82.0
X105.167Y-100.667
X105.5Y-76.5
X106.0Y-100.0
X106.47Y-78.53
X107.0Y-100.0
X107.5Y-79.0
X108.0Y-76.5
X108.655Y-77.956
X109.5Y-73.5
X109.5Y-77.25
X109.5Y-79.0
X110.066Y-72.934
X110.631Y-72.369
X111.197Y-71.803
X111.5Y-77.25
X111.7Y-105.326
X112.0Y-79.0
X112.4Y-101.0
X112.5Y-98.5
X113.0Y-76.5
X114.5Y-106.0
X115.5Y-77.0
X116.0Y-106.5
X116.5Y-77.0
X117.438Y-99.25
X118.0Y-67.8
X118.0Y-69.0
X118.0Y-98.5
X121.5Y-90.0
X124.5Y-88.5
X125.5Y-67.8
X125.5Y-69.0
X126.54Y-68.201
X128.686Y-80.0
X129.0Y-69.0
X130.5Y-69.0
X130.937Y-72.725
X131.0Y-75.0
X131.5Y-69.0
X132.0Y-76.0
X132.0Y-94.5
X132.134Y-71.7
X132.482Y-79.482
X133.777Y-71.299
X133.838Y-77.163
X134.5Y-105.0
X135.0Y-69.0
X135.512Y-68.385
X135.619Y-71.436
X135.734Y-76.154
X135.961Y-74.988
X137.0Y-77.5
X138.0Y-71.5
X138.0Y-73.0
X138.0Y-77.0
X138.441Y-74.621
X138.566Y-76.434
X138.632Y-75.637
X138.799Y-73.905
X139.0Y-105.5
X139.475Y-104.5
X139.876Y-103.5
X140.0Y-72.4
X141.5Y-103.5
X141.5Y-104.5
X141.5Y-105.5
T3
X130.0Y-102.012
X137.62Y-102.012
T4
X113.35Y-86.61
X113.35Y-89.15
X113.35Y-91.69
X113.35Y-94.23
X115.89Y-85.34
X115.89Y-87.88
X115.89Y-90.42
X115.89Y-92.96
X129.46Y-86.61
X129.46Y-89.15
X129.46Y-91.69
X129.46Y-94.23
X132.0Y-85.34
X132.0Y-87.88
X132.0Y-90.42
X132.0Y-92.96
T5
X116.46Y-80.0
X119.0Y-70.46
X119.0Y-73.0
X119.0Y-75.54
X119.0Y-80.0
X123.0Y-70.68
X123.0Y-73.22
X123.0Y-75.76
X123.0Y-78.3
X123.0Y-80.84
X123.0Y-83.38
X123.0Y-85.92
X123.0Y-88.46
X123.0Y-91.0
X123.0Y-93.54
X123.0Y-96.08
X123.0Y-98.62
X123.0Y-101.16
X123.0Y-103.7
X123.0Y-106.24
X123.0Y-108.78
T2
X106.18Y-69.605G85X106.18Y-70.205
G05
X106.18Y-73.535G85X106.18Y-74.635
G05
X114.82Y-69.605G85X114.82Y-70.205
G05
X114.82Y-73.535G85X114.82Y-74.635
G05
M30
