ISO-10303-21;
HEADER;
/* Generated by software containing ST-Developer
 * from STEP Tools, Inc. (www.steptools.com) 
 */

FILE_DESCRIPTION(
/* description */ (''),
/* implementation_level */ '2;1');

FILE_NAME(
/* name */ 'frame_demo_2x2_xyxx.stp',
/* time_stamp */ '2026-05-10T22:02:41+02:00',
/* author */ ('schar'),
/* organization */ (''),
/* preprocessor_version */ 'ST-DEVELOPER v19.2',
/* originating_system */ 'Autodesk Inventor 2024',
/* authorisation */ '');

FILE_SCHEMA (('AUTOMOTIVE_DESIGN { 1 0 10303 214 3 1 1 }'));
ENDSEC;

DATA;
#10=MECHANICAL_DESIGN_GEOMETRIC_PRESENTATION_REPRESENTATION('',(#13),#1208);
#11=SHAPE_REPRESENTATION_RELATIONSHIP('SRR','None',#1215,#12);
#12=ADVANCED_BREP_SHAPE_REPRESENTATION('',(#14),#1207);
#13=STYLED_ITEM('',(#1224),#14);
#14=MANIFOLD_SOLID_BREP('Solid1',#723);
#15=FACE_BOUND('',#100,.T.);
#16=FACE_BOUND('',#101,.T.);
#17=FACE_BOUND('',#102,.T.);
#18=FACE_BOUND('',#103,.T.);
#19=FACE_BOUND('',#104,.T.);
#20=FACE_BOUND('',#105,.T.);
#21=FACE_BOUND('',#106,.T.);
#22=FACE_BOUND('',#107,.T.);
#23=FACE_BOUND('',#108,.T.);
#24=FACE_BOUND('',#109,.T.);
#25=FACE_BOUND('',#110,.T.);
#26=FACE_BOUND('',#111,.T.);
#27=FACE_BOUND('',#112,.T.);
#28=FACE_BOUND('',#113,.T.);
#29=FACE_BOUND('',#114,.T.);
#30=FACE_BOUND('',#146,.T.);
#31=FACE_BOUND('',#147,.T.);
#32=FACE_BOUND('',#148,.T.);
#33=FACE_BOUND('',#149,.T.);
#34=FACE_BOUND('',#150,.T.);
#35=FACE_BOUND('',#151,.T.);
#36=FACE_BOUND('',#152,.T.);
#37=FACE_BOUND('',#153,.T.);
#38=FACE_BOUND('',#154,.T.);
#39=FACE_BOUND('',#155,.T.);
#40=FACE_BOUND('',#156,.T.);
#41=FACE_BOUND('',#157,.T.);
#42=FACE_BOUND('',#158,.T.);
#43=FACE_BOUND('',#159,.T.);
#44=FACE_BOUND('',#160,.T.);
#45=PLANE('',#749);
#46=PLANE('',#750);
#47=PLANE('',#768);
#48=PLANE('',#773);
#49=PLANE('',#774);
#50=PLANE('',#775);
#51=PLANE('',#776);
#52=PLANE('',#801);
#53=PLANE('',#802);
#54=PLANE('',#803);
#55=PLANE('',#804);
#56=PLANE('',#805);
#57=PLANE('',#806);
#58=PLANE('',#807);
#59=PLANE('',#808);
#60=PLANE('',#809);
#61=PLANE('',#810);
#62=PLANE('',#811);
#63=FACE_OUTER_BOUND('',#97,.T.);
#64=FACE_OUTER_BOUND('',#98,.T.);
#65=FACE_OUTER_BOUND('',#99,.T.);
#66=FACE_OUTER_BOUND('',#115,.T.);
#67=FACE_OUTER_BOUND('',#116,.T.);
#68=FACE_OUTER_BOUND('',#117,.T.);
#69=FACE_OUTER_BOUND('',#118,.T.);
#70=FACE_OUTER_BOUND('',#119,.T.);
#71=FACE_OUTER_BOUND('',#120,.T.);
#72=FACE_OUTER_BOUND('',#121,.T.);
#73=FACE_OUTER_BOUND('',#122,.T.);
#74=FACE_OUTER_BOUND('',#123,.T.);
#75=FACE_OUTER_BOUND('',#124,.T.);
#76=FACE_OUTER_BOUND('',#125,.T.);
#77=FACE_OUTER_BOUND('',#126,.T.);
#78=FACE_OUTER_BOUND('',#127,.T.);
#79=FACE_OUTER_BOUND('',#128,.T.);
#80=FACE_OUTER_BOUND('',#129,.T.);
#81=FACE_OUTER_BOUND('',#130,.T.);
#82=FACE_OUTER_BOUND('',#131,.T.);
#83=FACE_OUTER_BOUND('',#132,.T.);
#84=FACE_OUTER_BOUND('',#133,.T.);
#85=FACE_OUTER_BOUND('',#134,.T.);
#86=FACE_OUTER_BOUND('',#135,.T.);
#87=FACE_OUTER_BOUND('',#136,.T.);
#88=FACE_OUTER_BOUND('',#137,.T.);
#89=FACE_OUTER_BOUND('',#138,.T.);
#90=FACE_OUTER_BOUND('',#139,.T.);
#91=FACE_OUTER_BOUND('',#140,.T.);
#92=FACE_OUTER_BOUND('',#141,.T.);
#93=FACE_OUTER_BOUND('',#142,.T.);
#94=FACE_OUTER_BOUND('',#143,.T.);
#95=FACE_OUTER_BOUND('',#144,.T.);
#96=FACE_OUTER_BOUND('',#145,.T.);
#97=EDGE_LOOP('',(#481,#482,#483,#484));
#98=EDGE_LOOP('',(#485,#486,#487,#488));
#99=EDGE_LOOP('',(#489,#490,#491,#492,#493,#494,#495,#496));
#100=EDGE_LOOP('',(#497,#498,#499,#500));
#101=EDGE_LOOP('',(#501,#502,#503,#504));
#102=EDGE_LOOP('',(#505));
#103=EDGE_LOOP('',(#506));
#104=EDGE_LOOP('',(#507));
#105=EDGE_LOOP('',(#508));
#106=EDGE_LOOP('',(#509));
#107=EDGE_LOOP('',(#510));
#108=EDGE_LOOP('',(#511));
#109=EDGE_LOOP('',(#512));
#110=EDGE_LOOP('',(#513));
#111=EDGE_LOOP('',(#514));
#112=EDGE_LOOP('',(#515));
#113=EDGE_LOOP('',(#516));
#114=EDGE_LOOP('',(#517,#518,#519,#520));
#115=EDGE_LOOP('',(#521,#522,#523,#524));
#116=EDGE_LOOP('',(#525,#526,#527,#528));
#117=EDGE_LOOP('',(#529,#530,#531,#532));
#118=EDGE_LOOP('',(#533,#534,#535,#536));
#119=EDGE_LOOP('',(#537,#538,#539,#540));
#120=EDGE_LOOP('',(#541,#542,#543,#544));
#121=EDGE_LOOP('',(#545,#546,#547,#548));
#122=EDGE_LOOP('',(#549,#550,#551,#552));
#123=EDGE_LOOP('',(#553,#554,#555,#556));
#124=EDGE_LOOP('',(#557,#558,#559,#560));
#125=EDGE_LOOP('',(#561,#562,#563,#564));
#126=EDGE_LOOP('',(#565,#566,#567,#568));
#127=EDGE_LOOP('',(#569,#570,#571,#572));
#128=EDGE_LOOP('',(#573,#574,#575,#576));
#129=EDGE_LOOP('',(#577,#578,#579,#580));
#130=EDGE_LOOP('',(#581,#582,#583,#584));
#131=EDGE_LOOP('',(#585,#586,#587,#588));
#132=EDGE_LOOP('',(#589,#590,#591,#592));
#133=EDGE_LOOP('',(#593,#594,#595,#596));
#134=EDGE_LOOP('',(#597,#598,#599,#600));
#135=EDGE_LOOP('',(#601,#602,#603,#604));
#136=EDGE_LOOP('',(#605,#606,#607,#608));
#137=EDGE_LOOP('',(#609,#610,#611,#612));
#138=EDGE_LOOP('',(#613,#614,#615,#616));
#139=EDGE_LOOP('',(#617,#618,#619,#620));
#140=EDGE_LOOP('',(#621,#622,#623,#624));
#141=EDGE_LOOP('',(#625,#626,#627,#628));
#142=EDGE_LOOP('',(#629,#630,#631,#632));
#143=EDGE_LOOP('',(#633,#634,#635,#636));
#144=EDGE_LOOP('',(#637,#638,#639,#640));
#145=EDGE_LOOP('',(#641,#642,#643,#644,#645,#646,#647,#648));
#146=EDGE_LOOP('',(#649,#650,#651,#652));
#147=EDGE_LOOP('',(#653,#654,#655,#656));
#148=EDGE_LOOP('',(#657));
#149=EDGE_LOOP('',(#658));
#150=EDGE_LOOP('',(#659));
#151=EDGE_LOOP('',(#660));
#152=EDGE_LOOP('',(#661));
#153=EDGE_LOOP('',(#662));
#154=EDGE_LOOP('',(#663));
#155=EDGE_LOOP('',(#664));
#156=EDGE_LOOP('',(#665));
#157=EDGE_LOOP('',(#666));
#158=EDGE_LOOP('',(#667));
#159=EDGE_LOOP('',(#668));
#160=EDGE_LOOP('',(#669,#670,#671,#672));
#161=LINE('',#1016,#225);
#162=LINE('',#1019,#226);
#163=LINE('',#1022,#227);
#164=LINE('',#1024,#228);
#165=LINE('',#1025,#229);
#166=LINE('',#1028,#230);
#167=LINE('',#1032,#231);
#168=LINE('',#1036,#232);
#169=LINE('',#1040,#233);
#170=LINE('',#1042,#234);
#171=LINE('',#1044,#235);
#172=LINE('',#1045,#236);
#173=LINE('',#1048,#237);
#174=LINE('',#1050,#238);
#175=LINE('',#1052,#239);
#176=LINE('',#1053,#240);
#177=LINE('',#1080,#241);
#178=LINE('',#1082,#242);
#179=LINE('',#1084,#243);
#180=LINE('',#1085,#244);
#181=LINE('',#1090,#245);
#182=LINE('',#1091,#246);
#183=LINE('',#1094,#247);
#184=LINE('',#1095,#248);
#185=LINE('',#1099,#249);
#186=LINE('',#1103,#250);
#187=LINE('',#1106,#251);
#188=LINE('',#1108,#252);
#189=LINE('',#1109,#253);
#190=LINE('',#1112,#254);
#191=LINE('',#1113,#255);
#192=LINE('',#1116,#256);
#193=LINE('',#1117,#257);
#194=LINE('',#1119,#258);
#195=LINE('',#1123,#259);
#196=LINE('',#1127,#260);
#197=LINE('',#1131,#261);
#198=LINE('',#1135,#262);
#199=LINE('',#1139,#263);
#200=LINE('',#1143,#264);
#201=LINE('',#1147,#265);
#202=LINE('',#1151,#266);
#203=LINE('',#1155,#267);
#204=LINE('',#1159,#268);
#205=LINE('',#1163,#269);
#206=LINE('',#1167,#270);
#207=LINE('',#1170,#271);
#208=LINE('',#1172,#272);
#209=LINE('',#1173,#273);
#210=LINE('',#1176,#274);
#211=LINE('',#1177,#275);
#212=LINE('',#1180,#276);
#213=LINE('',#1181,#277);
#214=LINE('',#1183,#278);
#215=LINE('',#1186,#279);
#216=LINE('',#1188,#280);
#217=LINE('',#1189,#281);
#218=LINE('',#1192,#282);
#219=LINE('',#1193,#283);
#220=LINE('',#1196,#284);
#221=LINE('',#1197,#285);
#222=LINE('',#1199,#286);
#223=LINE('',#1201,#287);
#224=LINE('',#1203,#288);
#225=VECTOR('',#818,10.);
#226=VECTOR('',#821,10.);
#227=VECTOR('',#824,10.);
#228=VECTOR('',#825,10.);
#229=VECTOR('',#826,10.);
#230=VECTOR('',#829,10.);
#231=VECTOR('',#832,10.);
#232=VECTOR('',#835,10.);
#233=VECTOR('',#838,10.);
#234=VECTOR('',#839,10.);
#235=VECTOR('',#840,10.);
#236=VECTOR('',#841,10.);
#237=VECTOR('',#842,10.);
#238=VECTOR('',#843,10.);
#239=VECTOR('',#844,10.);
#240=VECTOR('',#845,10.);
#241=VECTOR('',#870,10.);
#242=VECTOR('',#871,10.);
#243=VECTOR('',#872,10.);
#244=VECTOR('',#873,10.);
#245=VECTOR('',#878,10.);
#246=VECTOR('',#879,10.);
#247=VECTOR('',#882,10.);
#248=VECTOR('',#883,10.);
#249=VECTOR('',#888,10.);
#250=VECTOR('',#893,10.);
#251=VECTOR('',#896,10.);
#252=VECTOR('',#897,10.);
#253=VECTOR('',#898,10.);
#254=VECTOR('',#901,10.);
#255=VECTOR('',#902,10.);
#256=VECTOR('',#905,10.);
#257=VECTOR('',#906,10.);
#258=VECTOR('',#909,10.);
#259=VECTOR('',#914,1.49999999999996);
#260=VECTOR('',#919,1.49999999999996);
#261=VECTOR('',#924,1.49999999999996);
#262=VECTOR('',#929,1.49999999999996);
#263=VECTOR('',#934,1.5);
#264=VECTOR('',#939,1.5);
#265=VECTOR('',#944,1.5);
#266=VECTOR('',#949,1.5);
#267=VECTOR('',#954,1.49999999999996);
#268=VECTOR('',#959,1.49999999999996);
#269=VECTOR('',#964,1.49999999999996);
#270=VECTOR('',#969,1.49999999999996);
#271=VECTOR('',#972,10.);
#272=VECTOR('',#973,10.);
#273=VECTOR('',#974,10.);
#274=VECTOR('',#977,10.);
#275=VECTOR('',#978,10.);
#276=VECTOR('',#981,10.);
#277=VECTOR('',#982,10.);
#278=VECTOR('',#985,10.);
#279=VECTOR('',#988,10.);
#280=VECTOR('',#989,10.);
#281=VECTOR('',#990,10.);
#282=VECTOR('',#993,10.);
#283=VECTOR('',#994,10.);
#284=VECTOR('',#997,10.);
#285=VECTOR('',#998,10.);
#286=VECTOR('',#1001,10.);
#287=VECTOR('',#1004,10.);
#288=VECTOR('',#1007,10.);
#289=CIRCLE('',#747,2.);
#290=CIRCLE('',#748,2.);
#291=CIRCLE('',#751,2.);
#292=CIRCLE('',#752,2.);
#293=CIRCLE('',#753,2.);
#294=CIRCLE('',#754,1.49999999999996);
#295=CIRCLE('',#755,1.49999999999996);
#296=CIRCLE('',#756,1.49999999999996);
#297=CIRCLE('',#757,1.49999999999996);
#298=CIRCLE('',#758,1.5);
#299=CIRCLE('',#759,1.5);
#300=CIRCLE('',#760,1.5);
#301=CIRCLE('',#761,1.5);
#302=CIRCLE('',#762,1.49999999999996);
#303=CIRCLE('',#763,1.49999999999996);
#304=CIRCLE('',#764,1.49999999999996);
#305=CIRCLE('',#765,1.49999999999996);
#306=CIRCLE('',#767,2.);
#307=CIRCLE('',#770,2.);
#308=CIRCLE('',#772,2.);
#309=CIRCLE('',#778,1.49999999999996);
#310=CIRCLE('',#780,1.49999999999996);
#311=CIRCLE('',#782,1.49999999999996);
#312=CIRCLE('',#784,1.49999999999996);
#313=CIRCLE('',#786,1.5);
#314=CIRCLE('',#788,1.5);
#315=CIRCLE('',#790,1.5);
#316=CIRCLE('',#792,1.5);
#317=CIRCLE('',#794,1.49999999999996);
#318=CIRCLE('',#796,1.49999999999996);
#319=CIRCLE('',#798,1.49999999999996);
#320=CIRCLE('',#800,1.49999999999996);
#321=VERTEX_POINT('',#1012);
#322=VERTEX_POINT('',#1013);
#323=VERTEX_POINT('',#1015);
#324=VERTEX_POINT('',#1017);
#325=VERTEX_POINT('',#1021);
#326=VERTEX_POINT('',#1023);
#327=VERTEX_POINT('',#1027);
#328=VERTEX_POINT('',#1029);
#329=VERTEX_POINT('',#1031);
#330=VERTEX_POINT('',#1033);
#331=VERTEX_POINT('',#1035);
#332=VERTEX_POINT('',#1038);
#333=VERTEX_POINT('',#1039);
#334=VERTEX_POINT('',#1041);
#335=VERTEX_POINT('',#1043);
#336=VERTEX_POINT('',#1046);
#337=VERTEX_POINT('',#1047);
#338=VERTEX_POINT('',#1049);
#339=VERTEX_POINT('',#1051);
#340=VERTEX_POINT('',#1054);
#341=VERTEX_POINT('',#1056);
#342=VERTEX_POINT('',#1058);
#343=VERTEX_POINT('',#1060);
#344=VERTEX_POINT('',#1062);
#345=VERTEX_POINT('',#1064);
#346=VERTEX_POINT('',#1066);
#347=VERTEX_POINT('',#1068);
#348=VERTEX_POINT('',#1070);
#349=VERTEX_POINT('',#1072);
#350=VERTEX_POINT('',#1074);
#351=VERTEX_POINT('',#1076);
#352=VERTEX_POINT('',#1078);
#353=VERTEX_POINT('',#1079);
#354=VERTEX_POINT('',#1081);
#355=VERTEX_POINT('',#1083);
#356=VERTEX_POINT('',#1087);
#357=VERTEX_POINT('',#1088);
#358=VERTEX_POINT('',#1093);
#359=VERTEX_POINT('',#1097);
#360=VERTEX_POINT('',#1101);
#361=VERTEX_POINT('',#1105);
#362=VERTEX_POINT('',#1107);
#363=VERTEX_POINT('',#1111);
#364=VERTEX_POINT('',#1115);
#365=VERTEX_POINT('',#1121);
#366=VERTEX_POINT('',#1125);
#367=VERTEX_POINT('',#1129);
#368=VERTEX_POINT('',#1133);
#369=VERTEX_POINT('',#1137);
#370=VERTEX_POINT('',#1141);
#371=VERTEX_POINT('',#1145);
#372=VERTEX_POINT('',#1149);
#373=VERTEX_POINT('',#1153);
#374=VERTEX_POINT('',#1157);
#375=VERTEX_POINT('',#1161);
#376=VERTEX_POINT('',#1165);
#377=VERTEX_POINT('',#1169);
#378=VERTEX_POINT('',#1171);
#379=VERTEX_POINT('',#1175);
#380=VERTEX_POINT('',#1179);
#381=VERTEX_POINT('',#1185);
#382=VERTEX_POINT('',#1187);
#383=VERTEX_POINT('',#1191);
#384=VERTEX_POINT('',#1195);
#385=EDGE_CURVE('',#321,#322,#289,.T.);
#386=EDGE_CURVE('',#322,#323,#161,.T.);
#387=EDGE_CURVE('',#323,#324,#290,.T.);
#388=EDGE_CURVE('',#324,#321,#162,.T.);
#389=EDGE_CURVE('',#324,#325,#163,.T.);
#390=EDGE_CURVE('',#326,#325,#164,.T.);
#391=EDGE_CURVE('',#321,#326,#165,.T.);
#392=EDGE_CURVE('',#327,#323,#166,.T.);
#393=EDGE_CURVE('',#328,#327,#291,.T.);
#394=EDGE_CURVE('',#329,#328,#167,.T.);
#395=EDGE_CURVE('',#330,#329,#292,.T.);
#396=EDGE_CURVE('',#331,#330,#168,.T.);
#397=EDGE_CURVE('',#325,#331,#293,.T.);
#398=EDGE_CURVE('',#332,#333,#169,.T.);
#399=EDGE_CURVE('',#334,#332,#170,.T.);
#400=EDGE_CURVE('',#335,#334,#171,.T.);
#401=EDGE_CURVE('',#333,#335,#172,.T.);
#402=EDGE_CURVE('',#336,#337,#173,.T.);
#403=EDGE_CURVE('',#338,#336,#174,.T.);
#404=EDGE_CURVE('',#339,#338,#175,.T.);
#405=EDGE_CURVE('',#337,#339,#176,.T.);
#406=EDGE_CURVE('',#340,#340,#294,.T.);
#407=EDGE_CURVE('',#341,#341,#295,.T.);
#408=EDGE_CURVE('',#342,#342,#296,.T.);
#409=EDGE_CURVE('',#343,#343,#297,.T.);
#410=EDGE_CURVE('',#344,#344,#298,.T.);
#411=EDGE_CURVE('',#345,#345,#299,.T.);
#412=EDGE_CURVE('',#346,#346,#300,.T.);
#413=EDGE_CURVE('',#347,#347,#301,.T.);
#414=EDGE_CURVE('',#348,#348,#302,.T.);
#415=EDGE_CURVE('',#349,#349,#303,.T.);
#416=EDGE_CURVE('',#350,#350,#304,.T.);
#417=EDGE_CURVE('',#351,#351,#305,.T.);
#418=EDGE_CURVE('',#352,#353,#177,.T.);
#419=EDGE_CURVE('',#354,#352,#178,.T.);
#420=EDGE_CURVE('',#355,#354,#179,.T.);
#421=EDGE_CURVE('',#353,#355,#180,.T.);
#422=EDGE_CURVE('',#356,#357,#306,.T.);
#423=EDGE_CURVE('',#357,#328,#181,.T.);
#424=EDGE_CURVE('',#327,#356,#182,.T.);
#425=EDGE_CURVE('',#358,#357,#183,.T.);
#426=EDGE_CURVE('',#329,#358,#184,.T.);
#427=EDGE_CURVE('',#358,#359,#307,.T.);
#428=EDGE_CURVE('',#359,#330,#185,.T.);
#429=EDGE_CURVE('',#360,#326,#308,.T.);
#430=EDGE_CURVE('',#331,#360,#186,.T.);
#431=EDGE_CURVE('',#352,#361,#187,.T.);
#432=EDGE_CURVE('',#362,#361,#188,.T.);
#433=EDGE_CURVE('',#354,#362,#189,.T.);
#434=EDGE_CURVE('',#363,#362,#190,.T.);
#435=EDGE_CURVE('',#355,#363,#191,.T.);
#436=EDGE_CURVE('',#364,#363,#192,.T.);
#437=EDGE_CURVE('',#353,#364,#193,.T.);
#438=EDGE_CURVE('',#361,#364,#194,.T.);
#439=EDGE_CURVE('',#365,#365,#309,.T.);
#440=EDGE_CURVE('',#365,#351,#195,.T.);
#441=EDGE_CURVE('',#366,#366,#310,.T.);
#442=EDGE_CURVE('',#366,#350,#196,.T.);
#443=EDGE_CURVE('',#367,#367,#311,.T.);
#444=EDGE_CURVE('',#367,#349,#197,.T.);
#445=EDGE_CURVE('',#368,#368,#312,.T.);
#446=EDGE_CURVE('',#368,#348,#198,.T.);
#447=EDGE_CURVE('',#369,#369,#313,.T.);
#448=EDGE_CURVE('',#369,#347,#199,.T.);
#449=EDGE_CURVE('',#370,#370,#314,.T.);
#450=EDGE_CURVE('',#370,#346,#200,.T.);
#451=EDGE_CURVE('',#371,#371,#315,.T.);
#452=EDGE_CURVE('',#371,#345,#201,.T.);
#453=EDGE_CURVE('',#372,#372,#316,.T.);
#454=EDGE_CURVE('',#372,#344,#202,.T.);
#455=EDGE_CURVE('',#373,#373,#317,.T.);
#456=EDGE_CURVE('',#373,#343,#203,.T.);
#457=EDGE_CURVE('',#374,#374,#318,.T.);
#458=EDGE_CURVE('',#374,#342,#204,.T.);
#459=EDGE_CURVE('',#375,#375,#319,.T.);
#460=EDGE_CURVE('',#375,#341,#205,.T.);
#461=EDGE_CURVE('',#376,#376,#320,.T.);
#462=EDGE_CURVE('',#376,#340,#206,.T.);
#463=EDGE_CURVE('',#336,#377,#207,.T.);
#464=EDGE_CURVE('',#378,#377,#208,.T.);
#465=EDGE_CURVE('',#338,#378,#209,.T.);
#466=EDGE_CURVE('',#379,#378,#210,.T.);
#467=EDGE_CURVE('',#339,#379,#211,.T.);
#468=EDGE_CURVE('',#380,#379,#212,.T.);
#469=EDGE_CURVE('',#337,#380,#213,.T.);
#470=EDGE_CURVE('',#377,#380,#214,.T.);
#471=EDGE_CURVE('',#332,#381,#215,.T.);
#472=EDGE_CURVE('',#382,#381,#216,.T.);
#473=EDGE_CURVE('',#334,#382,#217,.T.);
#474=EDGE_CURVE('',#383,#382,#218,.T.);
#475=EDGE_CURVE('',#335,#383,#219,.T.);
#476=EDGE_CURVE('',#384,#383,#220,.T.);
#477=EDGE_CURVE('',#333,#384,#221,.T.);
#478=EDGE_CURVE('',#381,#384,#222,.T.);
#479=EDGE_CURVE('',#360,#359,#223,.T.);
#480=EDGE_CURVE('',#356,#322,#224,.T.);
#481=ORIENTED_EDGE('',*,*,#385,.T.);
#482=ORIENTED_EDGE('',*,*,#386,.T.);
#483=ORIENTED_EDGE('',*,*,#387,.T.);
#484=ORIENTED_EDGE('',*,*,#388,.T.);
#485=ORIENTED_EDGE('',*,*,#388,.F.);
#486=ORIENTED_EDGE('',*,*,#389,.T.);
#487=ORIENTED_EDGE('',*,*,#390,.F.);
#488=ORIENTED_EDGE('',*,*,#391,.F.);
#489=ORIENTED_EDGE('',*,*,#387,.F.);
#490=ORIENTED_EDGE('',*,*,#392,.F.);
#491=ORIENTED_EDGE('',*,*,#393,.F.);
#492=ORIENTED_EDGE('',*,*,#394,.F.);
#493=ORIENTED_EDGE('',*,*,#395,.F.);
#494=ORIENTED_EDGE('',*,*,#396,.F.);
#495=ORIENTED_EDGE('',*,*,#397,.F.);
#496=ORIENTED_EDGE('',*,*,#389,.F.);
#497=ORIENTED_EDGE('',*,*,#398,.F.);
#498=ORIENTED_EDGE('',*,*,#399,.F.);
#499=ORIENTED_EDGE('',*,*,#400,.F.);
#500=ORIENTED_EDGE('',*,*,#401,.F.);
#501=ORIENTED_EDGE('',*,*,#402,.F.);
#502=ORIENTED_EDGE('',*,*,#403,.F.);
#503=ORIENTED_EDGE('',*,*,#404,.F.);
#504=ORIENTED_EDGE('',*,*,#405,.F.);
#505=ORIENTED_EDGE('',*,*,#406,.F.);
#506=ORIENTED_EDGE('',*,*,#407,.F.);
#507=ORIENTED_EDGE('',*,*,#408,.F.);
#508=ORIENTED_EDGE('',*,*,#409,.F.);
#509=ORIENTED_EDGE('',*,*,#410,.F.);
#510=ORIENTED_EDGE('',*,*,#411,.F.);
#511=ORIENTED_EDGE('',*,*,#412,.F.);
#512=ORIENTED_EDGE('',*,*,#413,.F.);
#513=ORIENTED_EDGE('',*,*,#414,.F.);
#514=ORIENTED_EDGE('',*,*,#415,.F.);
#515=ORIENTED_EDGE('',*,*,#416,.F.);
#516=ORIENTED_EDGE('',*,*,#417,.F.);
#517=ORIENTED_EDGE('',*,*,#418,.F.);
#518=ORIENTED_EDGE('',*,*,#419,.F.);
#519=ORIENTED_EDGE('',*,*,#420,.F.);
#520=ORIENTED_EDGE('',*,*,#421,.F.);
#521=ORIENTED_EDGE('',*,*,#422,.T.);
#522=ORIENTED_EDGE('',*,*,#423,.T.);
#523=ORIENTED_EDGE('',*,*,#393,.T.);
#524=ORIENTED_EDGE('',*,*,#424,.T.);
#525=ORIENTED_EDGE('',*,*,#423,.F.);
#526=ORIENTED_EDGE('',*,*,#425,.F.);
#527=ORIENTED_EDGE('',*,*,#426,.F.);
#528=ORIENTED_EDGE('',*,*,#394,.T.);
#529=ORIENTED_EDGE('',*,*,#427,.T.);
#530=ORIENTED_EDGE('',*,*,#428,.T.);
#531=ORIENTED_EDGE('',*,*,#395,.T.);
#532=ORIENTED_EDGE('',*,*,#426,.T.);
#533=ORIENTED_EDGE('',*,*,#429,.T.);
#534=ORIENTED_EDGE('',*,*,#390,.T.);
#535=ORIENTED_EDGE('',*,*,#397,.T.);
#536=ORIENTED_EDGE('',*,*,#430,.T.);
#537=ORIENTED_EDGE('',*,*,#419,.T.);
#538=ORIENTED_EDGE('',*,*,#431,.T.);
#539=ORIENTED_EDGE('',*,*,#432,.F.);
#540=ORIENTED_EDGE('',*,*,#433,.F.);
#541=ORIENTED_EDGE('',*,*,#420,.T.);
#542=ORIENTED_EDGE('',*,*,#433,.T.);
#543=ORIENTED_EDGE('',*,*,#434,.F.);
#544=ORIENTED_EDGE('',*,*,#435,.F.);
#545=ORIENTED_EDGE('',*,*,#421,.T.);
#546=ORIENTED_EDGE('',*,*,#435,.T.);
#547=ORIENTED_EDGE('',*,*,#436,.F.);
#548=ORIENTED_EDGE('',*,*,#437,.F.);
#549=ORIENTED_EDGE('',*,*,#418,.T.);
#550=ORIENTED_EDGE('',*,*,#437,.T.);
#551=ORIENTED_EDGE('',*,*,#438,.F.);
#552=ORIENTED_EDGE('',*,*,#431,.F.);
#553=ORIENTED_EDGE('',*,*,#439,.F.);
#554=ORIENTED_EDGE('',*,*,#440,.T.);
#555=ORIENTED_EDGE('',*,*,#417,.T.);
#556=ORIENTED_EDGE('',*,*,#440,.F.);
#557=ORIENTED_EDGE('',*,*,#441,.F.);
#558=ORIENTED_EDGE('',*,*,#442,.T.);
#559=ORIENTED_EDGE('',*,*,#416,.T.);
#560=ORIENTED_EDGE('',*,*,#442,.F.);
#561=ORIENTED_EDGE('',*,*,#443,.F.);
#562=ORIENTED_EDGE('',*,*,#444,.T.);
#563=ORIENTED_EDGE('',*,*,#415,.T.);
#564=ORIENTED_EDGE('',*,*,#444,.F.);
#565=ORIENTED_EDGE('',*,*,#445,.F.);
#566=ORIENTED_EDGE('',*,*,#446,.T.);
#567=ORIENTED_EDGE('',*,*,#414,.T.);
#568=ORIENTED_EDGE('',*,*,#446,.F.);
#569=ORIENTED_EDGE('',*,*,#447,.F.);
#570=ORIENTED_EDGE('',*,*,#448,.T.);
#571=ORIENTED_EDGE('',*,*,#413,.T.);
#572=ORIENTED_EDGE('',*,*,#448,.F.);
#573=ORIENTED_EDGE('',*,*,#449,.F.);
#574=ORIENTED_EDGE('',*,*,#450,.T.);
#575=ORIENTED_EDGE('',*,*,#412,.T.);
#576=ORIENTED_EDGE('',*,*,#450,.F.);
#577=ORIENTED_EDGE('',*,*,#451,.F.);
#578=ORIENTED_EDGE('',*,*,#452,.T.);
#579=ORIENTED_EDGE('',*,*,#411,.T.);
#580=ORIENTED_EDGE('',*,*,#452,.F.);
#581=ORIENTED_EDGE('',*,*,#453,.F.);
#582=ORIENTED_EDGE('',*,*,#454,.T.);
#583=ORIENTED_EDGE('',*,*,#410,.T.);
#584=ORIENTED_EDGE('',*,*,#454,.F.);
#585=ORIENTED_EDGE('',*,*,#455,.F.);
#586=ORIENTED_EDGE('',*,*,#456,.T.);
#587=ORIENTED_EDGE('',*,*,#409,.T.);
#588=ORIENTED_EDGE('',*,*,#456,.F.);
#589=ORIENTED_EDGE('',*,*,#457,.F.);
#590=ORIENTED_EDGE('',*,*,#458,.T.);
#591=ORIENTED_EDGE('',*,*,#408,.T.);
#592=ORIENTED_EDGE('',*,*,#458,.F.);
#593=ORIENTED_EDGE('',*,*,#459,.F.);
#594=ORIENTED_EDGE('',*,*,#460,.T.);
#595=ORIENTED_EDGE('',*,*,#407,.T.);
#596=ORIENTED_EDGE('',*,*,#460,.F.);
#597=ORIENTED_EDGE('',*,*,#461,.F.);
#598=ORIENTED_EDGE('',*,*,#462,.T.);
#599=ORIENTED_EDGE('',*,*,#406,.T.);
#600=ORIENTED_EDGE('',*,*,#462,.F.);
#601=ORIENTED_EDGE('',*,*,#403,.T.);
#602=ORIENTED_EDGE('',*,*,#463,.T.);
#603=ORIENTED_EDGE('',*,*,#464,.F.);
#604=ORIENTED_EDGE('',*,*,#465,.F.);
#605=ORIENTED_EDGE('',*,*,#404,.T.);
#606=ORIENTED_EDGE('',*,*,#465,.T.);
#607=ORIENTED_EDGE('',*,*,#466,.F.);
#608=ORIENTED_EDGE('',*,*,#467,.F.);
#609=ORIENTED_EDGE('',*,*,#405,.T.);
#610=ORIENTED_EDGE('',*,*,#467,.T.);
#611=ORIENTED_EDGE('',*,*,#468,.F.);
#612=ORIENTED_EDGE('',*,*,#469,.F.);
#613=ORIENTED_EDGE('',*,*,#402,.T.);
#614=ORIENTED_EDGE('',*,*,#469,.T.);
#615=ORIENTED_EDGE('',*,*,#470,.F.);
#616=ORIENTED_EDGE('',*,*,#463,.F.);
#617=ORIENTED_EDGE('',*,*,#399,.T.);
#618=ORIENTED_EDGE('',*,*,#471,.T.);
#619=ORIENTED_EDGE('',*,*,#472,.F.);
#620=ORIENTED_EDGE('',*,*,#473,.F.);
#621=ORIENTED_EDGE('',*,*,#400,.T.);
#622=ORIENTED_EDGE('',*,*,#473,.T.);
#623=ORIENTED_EDGE('',*,*,#474,.F.);
#624=ORIENTED_EDGE('',*,*,#475,.F.);
#625=ORIENTED_EDGE('',*,*,#401,.T.);
#626=ORIENTED_EDGE('',*,*,#475,.T.);
#627=ORIENTED_EDGE('',*,*,#476,.F.);
#628=ORIENTED_EDGE('',*,*,#477,.F.);
#629=ORIENTED_EDGE('',*,*,#398,.T.);
#630=ORIENTED_EDGE('',*,*,#477,.T.);
#631=ORIENTED_EDGE('',*,*,#478,.F.);
#632=ORIENTED_EDGE('',*,*,#471,.F.);
#633=ORIENTED_EDGE('',*,*,#428,.F.);
#634=ORIENTED_EDGE('',*,*,#479,.F.);
#635=ORIENTED_EDGE('',*,*,#430,.F.);
#636=ORIENTED_EDGE('',*,*,#396,.T.);
#637=ORIENTED_EDGE('',*,*,#386,.F.);
#638=ORIENTED_EDGE('',*,*,#480,.F.);
#639=ORIENTED_EDGE('',*,*,#424,.F.);
#640=ORIENTED_EDGE('',*,*,#392,.T.);
#641=ORIENTED_EDGE('',*,*,#385,.F.);
#642=ORIENTED_EDGE('',*,*,#391,.T.);
#643=ORIENTED_EDGE('',*,*,#429,.F.);
#644=ORIENTED_EDGE('',*,*,#479,.T.);
#645=ORIENTED_EDGE('',*,*,#427,.F.);
#646=ORIENTED_EDGE('',*,*,#425,.T.);
#647=ORIENTED_EDGE('',*,*,#422,.F.);
#648=ORIENTED_EDGE('',*,*,#480,.T.);
#649=ORIENTED_EDGE('',*,*,#478,.T.);
#650=ORIENTED_EDGE('',*,*,#476,.T.);
#651=ORIENTED_EDGE('',*,*,#474,.T.);
#652=ORIENTED_EDGE('',*,*,#472,.T.);
#653=ORIENTED_EDGE('',*,*,#470,.T.);
#654=ORIENTED_EDGE('',*,*,#468,.T.);
#655=ORIENTED_EDGE('',*,*,#466,.T.);
#656=ORIENTED_EDGE('',*,*,#464,.T.);
#657=ORIENTED_EDGE('',*,*,#461,.T.);
#658=ORIENTED_EDGE('',*,*,#459,.T.);
#659=ORIENTED_EDGE('',*,*,#457,.T.);
#660=ORIENTED_EDGE('',*,*,#455,.T.);
#661=ORIENTED_EDGE('',*,*,#453,.T.);
#662=ORIENTED_EDGE('',*,*,#451,.T.);
#663=ORIENTED_EDGE('',*,*,#449,.T.);
#664=ORIENTED_EDGE('',*,*,#447,.T.);
#665=ORIENTED_EDGE('',*,*,#445,.T.);
#666=ORIENTED_EDGE('',*,*,#443,.T.);
#667=ORIENTED_EDGE('',*,*,#441,.T.);
#668=ORIENTED_EDGE('',*,*,#439,.T.);
#669=ORIENTED_EDGE('',*,*,#438,.T.);
#670=ORIENTED_EDGE('',*,*,#436,.T.);
#671=ORIENTED_EDGE('',*,*,#434,.T.);
#672=ORIENTED_EDGE('',*,*,#432,.T.);
#673=CYLINDRICAL_SURFACE('',#746,2.);
#674=CYLINDRICAL_SURFACE('',#766,2.);
#675=CYLINDRICAL_SURFACE('',#769,2.);
#676=CYLINDRICAL_SURFACE('',#771,2.);
#677=CYLINDRICAL_SURFACE('',#777,1.49999999999996);
#678=CYLINDRICAL_SURFACE('',#779,1.49999999999996);
#679=CYLINDRICAL_SURFACE('',#781,1.49999999999996);
#680=CYLINDRICAL_SURFACE('',#783,1.49999999999996);
#681=CYLINDRICAL_SURFACE('',#785,1.5);
#682=CYLINDRICAL_SURFACE('',#787,1.5);
#683=CYLINDRICAL_SURFACE('',#789,1.5);
#684=CYLINDRICAL_SURFACE('',#791,1.5);
#685=CYLINDRICAL_SURFACE('',#793,1.49999999999996);
#686=CYLINDRICAL_SURFACE('',#795,1.49999999999996);
#687=CYLINDRICAL_SURFACE('',#797,1.49999999999996);
#688=CYLINDRICAL_SURFACE('',#799,1.49999999999996);
#689=ADVANCED_FACE('',(#63),#673,.T.);
#690=ADVANCED_FACE('',(#64),#45,.T.);
#691=ADVANCED_FACE('',(#65,#15,#16,#17,#18,#19,#20,#21,#22,#23,#24,#25,
#26,#27,#28,#29),#46,.F.);
#692=ADVANCED_FACE('',(#66),#674,.T.);
#693=ADVANCED_FACE('',(#67),#47,.T.);
#694=ADVANCED_FACE('',(#68),#675,.T.);
#695=ADVANCED_FACE('',(#69),#676,.T.);
#696=ADVANCED_FACE('',(#70),#48,.T.);
#697=ADVANCED_FACE('',(#71),#49,.T.);
#698=ADVANCED_FACE('',(#72),#50,.T.);
#699=ADVANCED_FACE('',(#73),#51,.T.);
#700=ADVANCED_FACE('',(#74),#677,.F.);
#701=ADVANCED_FACE('',(#75),#678,.F.);
#702=ADVANCED_FACE('',(#76),#679,.F.);
#703=ADVANCED_FACE('',(#77),#680,.F.);
#704=ADVANCED_FACE('',(#78),#681,.F.);
#705=ADVANCED_FACE('',(#79),#682,.F.);
#706=ADVANCED_FACE('',(#80),#683,.F.);
#707=ADVANCED_FACE('',(#81),#684,.F.);
#708=ADVANCED_FACE('',(#82),#685,.F.);
#709=ADVANCED_FACE('',(#83),#686,.F.);
#710=ADVANCED_FACE('',(#84),#687,.F.);
#711=ADVANCED_FACE('',(#85),#688,.F.);
#712=ADVANCED_FACE('',(#86),#52,.T.);
#713=ADVANCED_FACE('',(#87),#53,.T.);
#714=ADVANCED_FACE('',(#88),#54,.T.);
#715=ADVANCED_FACE('',(#89),#55,.T.);
#716=ADVANCED_FACE('',(#90),#56,.T.);
#717=ADVANCED_FACE('',(#91),#57,.T.);
#718=ADVANCED_FACE('',(#92),#58,.T.);
#719=ADVANCED_FACE('',(#93),#59,.T.);
#720=ADVANCED_FACE('',(#94),#60,.T.);
#721=ADVANCED_FACE('',(#95),#61,.T.);
#722=ADVANCED_FACE('',(#96,#30,#31,#32,#33,#34,#35,#36,#37,#38,#39,#40,
#41,#42,#43,#44),#62,.T.);
#723=CLOSED_SHELL('',(#689,#690,#691,#692,#693,#694,#695,#696,#697,#698,
#699,#700,#701,#702,#703,#704,#705,#706,#707,#708,#709,#710,#711,#712,#713,
#714,#715,#716,#717,#718,#719,#720,#721,#722));
#724=DERIVED_UNIT_ELEMENT(#727,1.);
#725=DERIVED_UNIT_ELEMENT(#1210,-3.);
#726=DIMENSIONAL_EXPONENTS(0.,1.,0.,0.,0.,0.,0.);
#727=(
CONVERSION_BASED_UNIT('gram',#729)
MASS_UNIT()
NAMED_UNIT(#726)
);
#728=(
MASS_UNIT()
NAMED_UNIT(*)
SI_UNIT(.KILO.,.GRAM.)
);
#729=MASS_MEASURE_WITH_UNIT(MASS_MEASURE(0.001),#728);
#730=DERIVED_UNIT((#724,#725));
#731=MEASURE_REPRESENTATION_ITEM('density measure',
POSITIVE_RATIO_MEASURE(1.),#730);
#732=PROPERTY_DEFINITION_REPRESENTATION(#737,#734);
#733=PROPERTY_DEFINITION_REPRESENTATION(#738,#735);
#734=REPRESENTATION('material name',(#736),#1207);
#735=REPRESENTATION('density',(#731),#1207);
#736=DESCRIPTIVE_REPRESENTATION_ITEM('Generic','Generic');
#737=PROPERTY_DEFINITION('material property','material name',#1217);
#738=PROPERTY_DEFINITION('material property','density of part',#1217);
#739=DATE_TIME_ROLE('creation_date');
#740=APPLIED_DATE_AND_TIME_ASSIGNMENT(#741,#739,(#1217));
#741=DATE_AND_TIME(#742,#743);
#742=CALENDAR_DATE(2026,8,5);
#743=LOCAL_TIME(0,0,0.,#744);
#744=COORDINATED_UNIVERSAL_TIME_OFFSET(0,0,.BEHIND.);
#745=AXIS2_PLACEMENT_3D('',#1010,#812,#813);
#746=AXIS2_PLACEMENT_3D('',#1011,#814,#815);
#747=AXIS2_PLACEMENT_3D('',#1014,#816,#817);
#748=AXIS2_PLACEMENT_3D('',#1018,#819,#820);
#749=AXIS2_PLACEMENT_3D('',#1020,#822,#823);
#750=AXIS2_PLACEMENT_3D('',#1026,#827,#828);
#751=AXIS2_PLACEMENT_3D('',#1030,#830,#831);
#752=AXIS2_PLACEMENT_3D('',#1034,#833,#834);
#753=AXIS2_PLACEMENT_3D('',#1037,#836,#837);
#754=AXIS2_PLACEMENT_3D('',#1055,#846,#847);
#755=AXIS2_PLACEMENT_3D('',#1057,#848,#849);
#756=AXIS2_PLACEMENT_3D('',#1059,#850,#851);
#757=AXIS2_PLACEMENT_3D('',#1061,#852,#853);
#758=AXIS2_PLACEMENT_3D('',#1063,#854,#855);
#759=AXIS2_PLACEMENT_3D('',#1065,#856,#857);
#760=AXIS2_PLACEMENT_3D('',#1067,#858,#859);
#761=AXIS2_PLACEMENT_3D('',#1069,#860,#861);
#762=AXIS2_PLACEMENT_3D('',#1071,#862,#863);
#763=AXIS2_PLACEMENT_3D('',#1073,#864,#865);
#764=AXIS2_PLACEMENT_3D('',#1075,#866,#867);
#765=AXIS2_PLACEMENT_3D('',#1077,#868,#869);
#766=AXIS2_PLACEMENT_3D('',#1086,#874,#875);
#767=AXIS2_PLACEMENT_3D('',#1089,#876,#877);
#768=AXIS2_PLACEMENT_3D('',#1092,#880,#881);
#769=AXIS2_PLACEMENT_3D('',#1096,#884,#885);
#770=AXIS2_PLACEMENT_3D('',#1098,#886,#887);
#771=AXIS2_PLACEMENT_3D('',#1100,#889,#890);
#772=AXIS2_PLACEMENT_3D('',#1102,#891,#892);
#773=AXIS2_PLACEMENT_3D('',#1104,#894,#895);
#774=AXIS2_PLACEMENT_3D('',#1110,#899,#900);
#775=AXIS2_PLACEMENT_3D('',#1114,#903,#904);
#776=AXIS2_PLACEMENT_3D('',#1118,#907,#908);
#777=AXIS2_PLACEMENT_3D('',#1120,#910,#911);
#778=AXIS2_PLACEMENT_3D('',#1122,#912,#913);
#779=AXIS2_PLACEMENT_3D('',#1124,#915,#916);
#780=AXIS2_PLACEMENT_3D('',#1126,#917,#918);
#781=AXIS2_PLACEMENT_3D('',#1128,#920,#921);
#782=AXIS2_PLACEMENT_3D('',#1130,#922,#923);
#783=AXIS2_PLACEMENT_3D('',#1132,#925,#926);
#784=AXIS2_PLACEMENT_3D('',#1134,#927,#928);
#785=AXIS2_PLACEMENT_3D('',#1136,#930,#931);
#786=AXIS2_PLACEMENT_3D('',#1138,#932,#933);
#787=AXIS2_PLACEMENT_3D('',#1140,#935,#936);
#788=AXIS2_PLACEMENT_3D('',#1142,#937,#938);
#789=AXIS2_PLACEMENT_3D('',#1144,#940,#941);
#790=AXIS2_PLACEMENT_3D('',#1146,#942,#943);
#791=AXIS2_PLACEMENT_3D('',#1148,#945,#946);
#792=AXIS2_PLACEMENT_3D('',#1150,#947,#948);
#793=AXIS2_PLACEMENT_3D('',#1152,#950,#951);
#794=AXIS2_PLACEMENT_3D('',#1154,#952,#953);
#795=AXIS2_PLACEMENT_3D('',#1156,#955,#956);
#796=AXIS2_PLACEMENT_3D('',#1158,#957,#958);
#797=AXIS2_PLACEMENT_3D('',#1160,#960,#961);
#798=AXIS2_PLACEMENT_3D('',#1162,#962,#963);
#799=AXIS2_PLACEMENT_3D('',#1164,#965,#966);
#800=AXIS2_PLACEMENT_3D('',#1166,#967,#968);
#801=AXIS2_PLACEMENT_3D('',#1168,#970,#971);
#802=AXIS2_PLACEMENT_3D('',#1174,#975,#976);
#803=AXIS2_PLACEMENT_3D('',#1178,#979,#980);
#804=AXIS2_PLACEMENT_3D('',#1182,#983,#984);
#805=AXIS2_PLACEMENT_3D('',#1184,#986,#987);
#806=AXIS2_PLACEMENT_3D('',#1190,#991,#992);
#807=AXIS2_PLACEMENT_3D('',#1194,#995,#996);
#808=AXIS2_PLACEMENT_3D('',#1198,#999,#1000);
#809=AXIS2_PLACEMENT_3D('',#1200,#1002,#1003);
#810=AXIS2_PLACEMENT_3D('',#1202,#1005,#1006);
#811=AXIS2_PLACEMENT_3D('',#1204,#1008,#1009);
#812=DIRECTION('axis',(0.,0.,1.));
#813=DIRECTION('refdir',(1.,0.,0.));
#814=DIRECTION('center_axis',(0.,0.,1.));
#815=DIRECTION('ref_axis',(0.707106781186548,0.707106781186548,0.));
#816=DIRECTION('center_axis',(0.,0.,-1.));
#817=DIRECTION('ref_axis',(0.707106781186548,0.707106781186548,0.));
#818=DIRECTION('',(0.,0.,-1.));
#819=DIRECTION('center_axis',(0.,0.,1.));
#820=DIRECTION('ref_axis',(0.707106781186548,0.707106781186548,0.));
#821=DIRECTION('',(0.,0.,1.));
#822=DIRECTION('center_axis',(0.,1.,0.));
#823=DIRECTION('ref_axis',(-1.,0.,0.));
#824=DIRECTION('',(-1.,0.,0.));
#825=DIRECTION('',(0.,0.,-1.));
#826=DIRECTION('',(-1.,0.,0.));
#827=DIRECTION('center_axis',(0.,0.,1.));
#828=DIRECTION('ref_axis',(1.,0.,0.));
#829=DIRECTION('',(0.,1.,0.));
#830=DIRECTION('center_axis',(0.,0.,1.));
#831=DIRECTION('ref_axis',(0.707106781186549,-0.707106781186546,0.));
#832=DIRECTION('',(1.,0.,0.));
#833=DIRECTION('center_axis',(0.,0.,1.));
#834=DIRECTION('ref_axis',(-0.707106781186548,-0.707106781186548,0.));
#835=DIRECTION('',(0.,-1.,0.));
#836=DIRECTION('center_axis',(0.,0.,1.));
#837=DIRECTION('ref_axis',(-0.707106781186546,0.707106781186549,0.));
#838=DIRECTION('',(-1.,0.,0.));
#839=DIRECTION('',(0.,-1.,0.));
#840=DIRECTION('',(1.,0.,0.));
#841=DIRECTION('',(0.,1.,0.));
#842=DIRECTION('',(-1.,0.,0.));
#843=DIRECTION('',(0.,-1.,0.));
#844=DIRECTION('',(1.,0.,0.));
#845=DIRECTION('',(0.,1.,0.));
#846=DIRECTION('center_axis',(0.,0.,-1.));
#847=DIRECTION('ref_axis',(-1.,0.,0.));
#848=DIRECTION('center_axis',(0.,0.,-1.));
#849=DIRECTION('ref_axis',(-1.,0.,0.));
#850=DIRECTION('center_axis',(0.,0.,-1.));
#851=DIRECTION('ref_axis',(-1.,0.,0.));
#852=DIRECTION('center_axis',(0.,0.,-1.));
#853=DIRECTION('ref_axis',(-1.,0.,0.));
#854=DIRECTION('center_axis',(0.,0.,-1.));
#855=DIRECTION('ref_axis',(-1.,0.,0.));
#856=DIRECTION('center_axis',(0.,0.,-1.));
#857=DIRECTION('ref_axis',(-1.,0.,0.));
#858=DIRECTION('center_axis',(0.,0.,-1.));
#859=DIRECTION('ref_axis',(-1.,0.,0.));
#860=DIRECTION('center_axis',(0.,0.,-1.));
#861=DIRECTION('ref_axis',(-1.,0.,0.));
#862=DIRECTION('center_axis',(0.,0.,-1.));
#863=DIRECTION('ref_axis',(-1.,0.,0.));
#864=DIRECTION('center_axis',(0.,0.,-1.));
#865=DIRECTION('ref_axis',(-1.,0.,0.));
#866=DIRECTION('center_axis',(0.,0.,-1.));
#867=DIRECTION('ref_axis',(-1.,0.,0.));
#868=DIRECTION('center_axis',(0.,0.,-1.));
#869=DIRECTION('ref_axis',(-1.,0.,0.));
#870=DIRECTION('',(0.,-1.,0.));
#871=DIRECTION('',(1.,0.,0.));
#872=DIRECTION('',(0.,1.,0.));
#873=DIRECTION('',(-1.,0.,0.));
#874=DIRECTION('center_axis',(0.,0.,1.));
#875=DIRECTION('ref_axis',(0.707106781186549,-0.707106781186546,0.));
#876=DIRECTION('center_axis',(0.,0.,-1.));
#877=DIRECTION('ref_axis',(0.707106781186549,-0.707106781186546,0.));
#878=DIRECTION('',(0.,0.,-1.));
#879=DIRECTION('',(0.,0.,1.));
#880=DIRECTION('center_axis',(0.,-1.,0.));
#881=DIRECTION('ref_axis',(1.,0.,0.));
#882=DIRECTION('',(1.,0.,0.));
#883=DIRECTION('',(0.,0.,1.));
#884=DIRECTION('center_axis',(0.,0.,1.));
#885=DIRECTION('ref_axis',(-0.707106781186548,-0.707106781186548,0.));
#886=DIRECTION('center_axis',(0.,0.,-1.));
#887=DIRECTION('ref_axis',(-0.707106781186548,-0.707106781186548,0.));
#888=DIRECTION('',(0.,0.,-1.));
#889=DIRECTION('center_axis',(0.,0.,1.));
#890=DIRECTION('ref_axis',(-0.707106781186546,0.707106781186549,0.));
#891=DIRECTION('center_axis',(0.,0.,-1.));
#892=DIRECTION('ref_axis',(-0.707106781186546,0.707106781186549,0.));
#893=DIRECTION('',(0.,0.,1.));
#894=DIRECTION('center_axis',(0.,-1.,0.));
#895=DIRECTION('ref_axis',(1.,0.,0.));
#896=DIRECTION('',(0.,0.,1.));
#897=DIRECTION('',(1.,0.,0.));
#898=DIRECTION('',(0.,0.,1.));
#899=DIRECTION('center_axis',(1.,0.,0.));
#900=DIRECTION('ref_axis',(0.,1.,0.));
#901=DIRECTION('',(0.,1.,0.));
#902=DIRECTION('',(0.,0.,1.));
#903=DIRECTION('center_axis',(0.,1.,0.));
#904=DIRECTION('ref_axis',(-1.,0.,0.));
#905=DIRECTION('',(-1.,0.,0.));
#906=DIRECTION('',(0.,0.,1.));
#907=DIRECTION('center_axis',(-1.,0.,0.));
#908=DIRECTION('ref_axis',(0.,-1.,0.));
#909=DIRECTION('',(0.,-1.,0.));
#910=DIRECTION('center_axis',(0.,0.,1.));
#911=DIRECTION('ref_axis',(-1.,0.,0.));
#912=DIRECTION('center_axis',(0.,0.,-1.));
#913=DIRECTION('ref_axis',(-1.,0.,0.));
#914=DIRECTION('',(0.,0.,-1.));
#915=DIRECTION('center_axis',(0.,0.,1.));
#916=DIRECTION('ref_axis',(-1.,0.,0.));
#917=DIRECTION('center_axis',(0.,0.,-1.));
#918=DIRECTION('ref_axis',(-1.,0.,0.));
#919=DIRECTION('',(0.,0.,-1.));
#920=DIRECTION('center_axis',(0.,0.,1.));
#921=DIRECTION('ref_axis',(-1.,0.,0.));
#922=DIRECTION('center_axis',(0.,0.,-1.));
#923=DIRECTION('ref_axis',(-1.,0.,0.));
#924=DIRECTION('',(0.,0.,-1.));
#925=DIRECTION('center_axis',(0.,0.,1.));
#926=DIRECTION('ref_axis',(-1.,0.,0.));
#927=DIRECTION('center_axis',(0.,0.,-1.));
#928=DIRECTION('ref_axis',(-1.,0.,0.));
#929=DIRECTION('',(0.,0.,-1.));
#930=DIRECTION('center_axis',(0.,0.,1.));
#931=DIRECTION('ref_axis',(-1.,0.,0.));
#932=DIRECTION('center_axis',(0.,0.,-1.));
#933=DIRECTION('ref_axis',(-1.,0.,0.));
#934=DIRECTION('',(0.,0.,-1.));
#935=DIRECTION('center_axis',(0.,0.,1.));
#936=DIRECTION('ref_axis',(-1.,0.,0.));
#937=DIRECTION('center_axis',(0.,0.,-1.));
#938=DIRECTION('ref_axis',(-1.,0.,0.));
#939=DIRECTION('',(0.,0.,-1.));
#940=DIRECTION('center_axis',(0.,0.,1.));
#941=DIRECTION('ref_axis',(-1.,0.,0.));
#942=DIRECTION('center_axis',(0.,0.,-1.));
#943=DIRECTION('ref_axis',(-1.,0.,0.));
#944=DIRECTION('',(0.,0.,-1.));
#945=DIRECTION('center_axis',(0.,0.,1.));
#946=DIRECTION('ref_axis',(-1.,0.,0.));
#947=DIRECTION('center_axis',(0.,0.,-1.));
#948=DIRECTION('ref_axis',(-1.,0.,0.));
#949=DIRECTION('',(0.,0.,-1.));
#950=DIRECTION('center_axis',(0.,0.,1.));
#951=DIRECTION('ref_axis',(-1.,0.,0.));
#952=DIRECTION('center_axis',(0.,0.,-1.));
#953=DIRECTION('ref_axis',(-1.,0.,0.));
#954=DIRECTION('',(0.,0.,-1.));
#955=DIRECTION('center_axis',(0.,0.,1.));
#956=DIRECTION('ref_axis',(-1.,0.,0.));
#957=DIRECTION('center_axis',(0.,0.,-1.));
#958=DIRECTION('ref_axis',(-1.,0.,0.));
#959=DIRECTION('',(0.,0.,-1.));
#960=DIRECTION('center_axis',(0.,0.,1.));
#961=DIRECTION('ref_axis',(-1.,0.,0.));
#962=DIRECTION('center_axis',(0.,0.,-1.));
#963=DIRECTION('ref_axis',(-1.,0.,0.));
#964=DIRECTION('',(0.,0.,-1.));
#965=DIRECTION('center_axis',(0.,0.,1.));
#966=DIRECTION('ref_axis',(-1.,0.,0.));
#967=DIRECTION('center_axis',(0.,0.,-1.));
#968=DIRECTION('ref_axis',(-1.,0.,0.));
#969=DIRECTION('',(0.,0.,-1.));
#970=DIRECTION('center_axis',(-1.,0.,0.));
#971=DIRECTION('ref_axis',(0.,-1.,0.));
#972=DIRECTION('',(0.,0.,1.));
#973=DIRECTION('',(0.,-1.,0.));
#974=DIRECTION('',(0.,0.,1.));
#975=DIRECTION('center_axis',(0.,-1.,0.));
#976=DIRECTION('ref_axis',(1.,0.,0.));
#977=DIRECTION('',(1.,0.,0.));
#978=DIRECTION('',(0.,0.,1.));
#979=DIRECTION('center_axis',(1.,0.,0.));
#980=DIRECTION('ref_axis',(0.,1.,0.));
#981=DIRECTION('',(0.,1.,0.));
#982=DIRECTION('',(0.,0.,1.));
#983=DIRECTION('center_axis',(0.,1.,0.));
#984=DIRECTION('ref_axis',(-1.,0.,0.));
#985=DIRECTION('',(-1.,0.,0.));
#986=DIRECTION('center_axis',(-1.,0.,0.));
#987=DIRECTION('ref_axis',(0.,-1.,0.));
#988=DIRECTION('',(0.,0.,1.));
#989=DIRECTION('',(0.,-1.,0.));
#990=DIRECTION('',(0.,0.,1.));
#991=DIRECTION('center_axis',(0.,-1.,0.));
#992=DIRECTION('ref_axis',(1.,0.,0.));
#993=DIRECTION('',(1.,0.,0.));
#994=DIRECTION('',(0.,0.,1.));
#995=DIRECTION('center_axis',(1.,0.,0.));
#996=DIRECTION('ref_axis',(0.,1.,0.));
#997=DIRECTION('',(0.,1.,0.));
#998=DIRECTION('',(0.,0.,1.));
#999=DIRECTION('center_axis',(0.,1.,0.));
#1000=DIRECTION('ref_axis',(-1.,0.,0.));
#1001=DIRECTION('',(-1.,0.,0.));
#1002=DIRECTION('center_axis',(-1.,0.,0.));
#1003=DIRECTION('ref_axis',(0.,-1.,0.));
#1004=DIRECTION('',(0.,-1.,0.));
#1005=DIRECTION('center_axis',(1.,0.,0.));
#1006=DIRECTION('ref_axis',(0.,1.,0.));
#1007=DIRECTION('',(0.,1.,0.));
#1008=DIRECTION('center_axis',(0.,0.,1.));
#1009=DIRECTION('ref_axis',(1.,0.,0.));
#1010=CARTESIAN_POINT('',(0.,0.,0.));
#1011=CARTESIAN_POINT('Origin',(27.9999999999994,27.999999999999,0.));
#1012=CARTESIAN_POINT('',(27.9999999999994,29.999999999999,10.));
#1013=CARTESIAN_POINT('',(29.9999999999994,27.999999999999,10.));
#1014=CARTESIAN_POINT('Origin',(27.9999999999994,27.999999999999,10.));
#1015=CARTESIAN_POINT('',(29.9999999999994,27.999999999999,0.));
#1016=CARTESIAN_POINT('',(29.9999999999994,27.999999999999,0.));
#1017=CARTESIAN_POINT('',(27.9999999999994,29.999999999999,0.));
#1018=CARTESIAN_POINT('Origin',(27.9999999999994,27.999999999999,0.));
#1019=CARTESIAN_POINT('',(27.9999999999994,29.999999999999,0.));
#1020=CARTESIAN_POINT('Origin',(29.9999999999994,29.999999999999,0.));
#1021=CARTESIAN_POINT('',(-87.9999999999999,29.999999999999,0.));
#1022=CARTESIAN_POINT('',(29.9999999999994,29.999999999999,0.));
#1023=CARTESIAN_POINT('',(-87.9999999999999,29.999999999999,10.));
#1024=CARTESIAN_POINT('',(-87.9999999999999,29.999999999999,0.));
#1025=CARTESIAN_POINT('',(29.9999999999994,29.999999999999,10.));
#1026=CARTESIAN_POINT('Origin',(-30.,-30.0000000000003,0.));
#1027=CARTESIAN_POINT('',(29.9999999999994,-87.9999999999996,0.));
#1028=CARTESIAN_POINT('',(29.9999999999994,-89.9999999999996,0.));
#1029=CARTESIAN_POINT('',(27.9999999999994,-89.9999999999996,0.));
#1030=CARTESIAN_POINT('Origin',(27.9999999999994,-87.9999999999996,0.));
#1031=CARTESIAN_POINT('',(-87.9999999999999,-89.9999999999996,0.));
#1032=CARTESIAN_POINT('',(-89.9999999999999,-89.9999999999996,0.));
#1033=CARTESIAN_POINT('',(-89.9999999999999,-87.9999999999996,0.));
#1034=CARTESIAN_POINT('Origin',(-87.9999999999999,-87.9999999999996,0.));
#1035=CARTESIAN_POINT('',(-89.9999999999999,27.999999999999,0.));
#1036=CARTESIAN_POINT('',(-89.9999999999999,29.999999999999,0.));
#1037=CARTESIAN_POINT('Origin',(-87.9999999999999,27.999999999999,0.));
#1038=CARTESIAN_POINT('',(24.9999999999996,-84.9999999999993,0.));
#1039=CARTESIAN_POINT('',(-84.9999999999999,-84.9999999999993,0.));
#1040=CARTESIAN_POINT('',(24.9999999999996,-84.9999999999993,0.));
#1041=CARTESIAN_POINT('',(24.9999999999996,-34.9999999999996,0.));
#1042=CARTESIAN_POINT('',(24.9999999999996,-34.9999999999996,0.));
#1043=CARTESIAN_POINT('',(-84.9999999999999,-34.9999999999996,0.));
#1044=CARTESIAN_POINT('',(-84.9999999999999,-34.9999999999996,0.));
#1045=CARTESIAN_POINT('',(-84.9999999999999,-84.9999999999993,0.));
#1046=CARTESIAN_POINT('',(-35.0000000000002,-24.9999999999995,0.));
#1047=CARTESIAN_POINT('',(-84.9999999999999,-24.9999999999995,0.));
#1048=CARTESIAN_POINT('',(-35.0000000000002,-24.9999999999995,0.));
#1049=CARTESIAN_POINT('',(-35.0000000000002,24.999999999999,0.));
#1050=CARTESIAN_POINT('',(-35.0000000000002,24.999999999999,0.));
#1051=CARTESIAN_POINT('',(-84.9999999999999,24.999999999999,0.));
#1052=CARTESIAN_POINT('',(-84.9999999999999,24.999999999999,0.));
#1053=CARTESIAN_POINT('',(-84.9999999999999,-24.9999999999995,0.));
#1054=CARTESIAN_POINT('',(-85.2677669529664,26.7677669529653,0.));
#1055=CARTESIAN_POINT('Origin',(-86.7677669529664,26.7677669529653,0.));
#1056=CARTESIAN_POINT('',(-85.2677669529666,-26.7677669529659,0.));
#1057=CARTESIAN_POINT('Origin',(-86.7677669529665,-26.7677669529659,0.));
#1058=CARTESIAN_POINT('',(-31.732233047035,-26.767766952966,0.));
#1059=CARTESIAN_POINT('Origin',(-33.232233047035,-26.767766952966,0.));
#1060=CARTESIAN_POINT('',(-31.7322330470348,26.7677669529653,0.));
#1061=CARTESIAN_POINT('Origin',(-33.2322330470347,26.7677669529653,0.));
#1062=CARTESIAN_POINT('',(-85.2680000000001,-33.2319999999996,0.));
#1063=CARTESIAN_POINT('Origin',(-86.7680000000001,-33.2319999999996,0.));
#1064=CARTESIAN_POINT('',(-85.2679999999999,-86.7679999999996,0.));
#1065=CARTESIAN_POINT('Origin',(-86.7679999999999,-86.7679999999996,0.));
#1066=CARTESIAN_POINT('',(28.268,-86.7679999999993,0.));
#1067=CARTESIAN_POINT('Origin',(26.768,-86.7679999999993,0.));
#1068=CARTESIAN_POINT('',(28.2679999999998,-33.2319999999993,0.));
#1069=CARTESIAN_POINT('Origin',(26.7679999999998,-33.2319999999993,0.));
#1070=CARTESIAN_POINT('',(-25.2677669529656,-26.767766952966,0.));
#1071=CARTESIAN_POINT('Origin',(-26.7677669529655,-26.767766952966,0.));
#1072=CARTESIAN_POINT('',(28.267766952966,-26.7677669529659,0.));
#1073=CARTESIAN_POINT('Origin',(26.7677669529661,-26.7677669529659,0.));
#1074=CARTESIAN_POINT('',(28.2677669529658,26.7677669529653,0.));
#1075=CARTESIAN_POINT('Origin',(26.7677669529659,26.7677669529653,0.));
#1076=CARTESIAN_POINT('',(-25.2677669529658,26.7677669529653,0.));
#1077=CARTESIAN_POINT('Origin',(-26.7677669529658,26.7677669529653,0.));
#1078=CARTESIAN_POINT('',(24.9999999999996,24.999999999999,0.));
#1079=CARTESIAN_POINT('',(24.9999999999996,-24.9999999999995,0.));
#1080=CARTESIAN_POINT('',(24.9999999999996,24.999999999999,0.));
#1081=CARTESIAN_POINT('',(-24.9999999999992,24.999999999999,0.));
#1082=CARTESIAN_POINT('',(-24.9999999999992,24.999999999999,0.));
#1083=CARTESIAN_POINT('',(-24.9999999999992,-24.9999999999995,0.));
#1084=CARTESIAN_POINT('',(-24.9999999999992,-24.9999999999995,0.));
#1085=CARTESIAN_POINT('',(24.9999999999996,-24.9999999999995,0.));
#1086=CARTESIAN_POINT('Origin',(27.9999999999994,-87.9999999999996,0.));
#1087=CARTESIAN_POINT('',(29.9999999999994,-87.9999999999996,10.));
#1088=CARTESIAN_POINT('',(27.9999999999994,-89.9999999999996,10.));
#1089=CARTESIAN_POINT('Origin',(27.9999999999994,-87.9999999999996,10.));
#1090=CARTESIAN_POINT('',(27.9999999999994,-89.9999999999996,0.));
#1091=CARTESIAN_POINT('',(29.9999999999994,-87.9999999999996,0.));
#1092=CARTESIAN_POINT('Origin',(-89.9999999999999,-89.9999999999996,0.));
#1093=CARTESIAN_POINT('',(-87.9999999999999,-89.9999999999996,10.));
#1094=CARTESIAN_POINT('',(-89.9999999999999,-89.9999999999996,10.));
#1095=CARTESIAN_POINT('',(-87.9999999999999,-89.9999999999996,0.));
#1096=CARTESIAN_POINT('Origin',(-87.9999999999999,-87.9999999999996,0.));
#1097=CARTESIAN_POINT('',(-89.9999999999999,-87.9999999999996,10.));
#1098=CARTESIAN_POINT('Origin',(-87.9999999999999,-87.9999999999996,10.));
#1099=CARTESIAN_POINT('',(-89.9999999999999,-87.9999999999996,0.));
#1100=CARTESIAN_POINT('Origin',(-87.9999999999999,27.999999999999,0.));
#1101=CARTESIAN_POINT('',(-89.9999999999999,27.999999999999,10.));
#1102=CARTESIAN_POINT('Origin',(-87.9999999999999,27.999999999999,10.));
#1103=CARTESIAN_POINT('',(-89.9999999999999,27.999999999999,0.));
#1104=CARTESIAN_POINT('Origin',(-24.9999999999992,24.999999999999,0.));
#1105=CARTESIAN_POINT('',(24.9999999999996,24.999999999999,10.));
#1106=CARTESIAN_POINT('',(24.9999999999996,24.999999999999,0.));
#1107=CARTESIAN_POINT('',(-24.9999999999992,24.999999999999,10.));
#1108=CARTESIAN_POINT('',(-24.9999999999992,24.999999999999,10.));
#1109=CARTESIAN_POINT('',(-24.9999999999992,24.999999999999,0.));
#1110=CARTESIAN_POINT('Origin',(-24.9999999999992,-24.9999999999995,0.));
#1111=CARTESIAN_POINT('',(-24.9999999999992,-24.9999999999995,10.));
#1112=CARTESIAN_POINT('',(-24.9999999999992,-24.9999999999995,10.));
#1113=CARTESIAN_POINT('',(-24.9999999999992,-24.9999999999995,0.));
#1114=CARTESIAN_POINT('Origin',(24.9999999999996,-24.9999999999995,0.));
#1115=CARTESIAN_POINT('',(24.9999999999996,-24.9999999999995,10.));
#1116=CARTESIAN_POINT('',(24.9999999999996,-24.9999999999995,10.));
#1117=CARTESIAN_POINT('',(24.9999999999996,-24.9999999999995,0.));
#1118=CARTESIAN_POINT('Origin',(24.9999999999996,24.999999999999,0.));
#1119=CARTESIAN_POINT('',(24.9999999999996,24.999999999999,10.));
#1120=CARTESIAN_POINT('Origin',(-26.7677669529658,26.7677669529653,0.));
#1121=CARTESIAN_POINT('',(-25.2677669529658,26.7677669529653,10.));
#1122=CARTESIAN_POINT('Origin',(-26.7677669529658,26.7677669529653,10.));
#1123=CARTESIAN_POINT('',(-25.2677669529658,26.7677669529653,0.));
#1124=CARTESIAN_POINT('Origin',(26.7677669529659,26.7677669529653,0.));
#1125=CARTESIAN_POINT('',(28.2677669529658,26.7677669529654,10.));
#1126=CARTESIAN_POINT('Origin',(26.7677669529659,26.7677669529653,10.));
#1127=CARTESIAN_POINT('',(28.2677669529658,26.7677669529653,0.));
#1128=CARTESIAN_POINT('Origin',(26.7677669529661,-26.7677669529659,0.));
#1129=CARTESIAN_POINT('',(28.267766952966,-26.7677669529659,10.));
#1130=CARTESIAN_POINT('Origin',(26.7677669529661,-26.7677669529659,10.));
#1131=CARTESIAN_POINT('',(28.267766952966,-26.7677669529659,0.));
#1132=CARTESIAN_POINT('Origin',(-26.7677669529655,-26.767766952966,0.));
#1133=CARTESIAN_POINT('',(-25.2677669529656,-26.767766952966,10.));
#1134=CARTESIAN_POINT('Origin',(-26.7677669529655,-26.767766952966,10.));
#1135=CARTESIAN_POINT('',(-25.2677669529656,-26.767766952966,0.));
#1136=CARTESIAN_POINT('Origin',(26.7679999999998,-33.2319999999993,0.));
#1137=CARTESIAN_POINT('',(28.2679999999998,-33.2319999999993,10.));
#1138=CARTESIAN_POINT('Origin',(26.7679999999998,-33.2319999999993,10.));
#1139=CARTESIAN_POINT('',(28.2679999999998,-33.2319999999993,0.));
#1140=CARTESIAN_POINT('Origin',(26.768,-86.7679999999993,0.));
#1141=CARTESIAN_POINT('',(28.268,-86.7679999999993,10.));
#1142=CARTESIAN_POINT('Origin',(26.768,-86.7679999999993,10.));
#1143=CARTESIAN_POINT('',(28.268,-86.7679999999993,0.));
#1144=CARTESIAN_POINT('Origin',(-86.7679999999999,-86.7679999999996,0.));
#1145=CARTESIAN_POINT('',(-85.2679999999999,-86.7679999999996,10.));
#1146=CARTESIAN_POINT('Origin',(-86.7679999999999,-86.7679999999996,10.));
#1147=CARTESIAN_POINT('',(-85.2679999999999,-86.7679999999996,0.));
#1148=CARTESIAN_POINT('Origin',(-86.7680000000001,-33.2319999999996,0.));
#1149=CARTESIAN_POINT('',(-85.2680000000001,-33.2319999999996,10.));
#1150=CARTESIAN_POINT('Origin',(-86.7680000000001,-33.2319999999996,10.));
#1151=CARTESIAN_POINT('',(-85.2680000000001,-33.2319999999996,0.));
#1152=CARTESIAN_POINT('Origin',(-33.2322330470347,26.7677669529653,0.));
#1153=CARTESIAN_POINT('',(-31.7322330470348,26.7677669529653,10.));
#1154=CARTESIAN_POINT('Origin',(-33.2322330470347,26.7677669529653,10.));
#1155=CARTESIAN_POINT('',(-31.7322330470348,26.7677669529653,0.));
#1156=CARTESIAN_POINT('Origin',(-33.232233047035,-26.767766952966,0.));
#1157=CARTESIAN_POINT('',(-31.732233047035,-26.767766952966,10.));
#1158=CARTESIAN_POINT('Origin',(-33.232233047035,-26.767766952966,10.));
#1159=CARTESIAN_POINT('',(-31.732233047035,-26.767766952966,0.));
#1160=CARTESIAN_POINT('Origin',(-86.7677669529665,-26.7677669529659,0.));
#1161=CARTESIAN_POINT('',(-85.2677669529666,-26.7677669529659,10.));
#1162=CARTESIAN_POINT('Origin',(-86.7677669529665,-26.7677669529659,10.));
#1163=CARTESIAN_POINT('',(-85.2677669529666,-26.7677669529659,0.));
#1164=CARTESIAN_POINT('Origin',(-86.7677669529664,26.7677669529653,0.));
#1165=CARTESIAN_POINT('',(-85.2677669529664,26.7677669529654,10.));
#1166=CARTESIAN_POINT('Origin',(-86.7677669529664,26.7677669529653,10.));
#1167=CARTESIAN_POINT('',(-85.2677669529664,26.7677669529653,0.));
#1168=CARTESIAN_POINT('Origin',(-35.0000000000002,24.999999999999,0.));
#1169=CARTESIAN_POINT('',(-35.0000000000002,-24.9999999999995,10.));
#1170=CARTESIAN_POINT('',(-35.0000000000002,-24.9999999999995,0.));
#1171=CARTESIAN_POINT('',(-35.0000000000002,24.999999999999,10.));
#1172=CARTESIAN_POINT('',(-35.0000000000002,24.999999999999,10.));
#1173=CARTESIAN_POINT('',(-35.0000000000002,24.999999999999,0.));
#1174=CARTESIAN_POINT('Origin',(-84.9999999999999,24.999999999999,0.));
#1175=CARTESIAN_POINT('',(-84.9999999999999,24.999999999999,10.));
#1176=CARTESIAN_POINT('',(-84.9999999999999,24.999999999999,10.));
#1177=CARTESIAN_POINT('',(-84.9999999999999,24.999999999999,0.));
#1178=CARTESIAN_POINT('Origin',(-84.9999999999999,-24.9999999999995,0.));
#1179=CARTESIAN_POINT('',(-84.9999999999999,-24.9999999999995,10.));
#1180=CARTESIAN_POINT('',(-84.9999999999999,-24.9999999999995,10.));
#1181=CARTESIAN_POINT('',(-84.9999999999999,-24.9999999999995,0.));
#1182=CARTESIAN_POINT('Origin',(-35.0000000000002,-24.9999999999995,0.));
#1183=CARTESIAN_POINT('',(-35.0000000000002,-24.9999999999995,10.));
#1184=CARTESIAN_POINT('Origin',(24.9999999999996,-34.9999999999996,0.));
#1185=CARTESIAN_POINT('',(24.9999999999996,-84.9999999999993,10.));
#1186=CARTESIAN_POINT('',(24.9999999999996,-84.9999999999993,0.));
#1187=CARTESIAN_POINT('',(24.9999999999996,-34.9999999999996,10.));
#1188=CARTESIAN_POINT('',(24.9999999999996,-34.9999999999996,10.));
#1189=CARTESIAN_POINT('',(24.9999999999996,-34.9999999999996,0.));
#1190=CARTESIAN_POINT('Origin',(-84.9999999999999,-34.9999999999996,0.));
#1191=CARTESIAN_POINT('',(-84.9999999999999,-34.9999999999996,10.));
#1192=CARTESIAN_POINT('',(-84.9999999999999,-34.9999999999996,10.));
#1193=CARTESIAN_POINT('',(-84.9999999999999,-34.9999999999996,0.));
#1194=CARTESIAN_POINT('Origin',(-84.9999999999999,-84.9999999999993,0.));
#1195=CARTESIAN_POINT('',(-84.9999999999999,-84.9999999999993,10.));
#1196=CARTESIAN_POINT('',(-84.9999999999999,-84.9999999999993,10.));
#1197=CARTESIAN_POINT('',(-84.9999999999999,-84.9999999999993,0.));
#1198=CARTESIAN_POINT('Origin',(24.9999999999996,-84.9999999999993,0.));
#1199=CARTESIAN_POINT('',(24.9999999999996,-84.9999999999993,10.));
#1200=CARTESIAN_POINT('Origin',(-89.9999999999999,29.999999999999,0.));
#1201=CARTESIAN_POINT('',(-89.9999999999999,29.999999999999,10.));
#1202=CARTESIAN_POINT('Origin',(29.9999999999994,-89.9999999999996,0.));
#1203=CARTESIAN_POINT('',(29.9999999999994,-89.9999999999996,10.));
#1204=CARTESIAN_POINT('Origin',(-30.,-30.0000000000003,10.));
#1205=UNCERTAINTY_MEASURE_WITH_UNIT(LENGTH_MEASURE(0.01),#1209,
'DISTANCE_ACCURACY_VALUE',
'Maximum model space distance between geometric entities at asserted c
onnectivities');
#1206=UNCERTAINTY_MEASURE_WITH_UNIT(LENGTH_MEASURE(0.01),#1209,
'DISTANCE_ACCURACY_VALUE',
'Maximum model space distance between geometric entities at asserted c
onnectivities');
#1207=(
GEOMETRIC_REPRESENTATION_CONTEXT(3)
GLOBAL_UNCERTAINTY_ASSIGNED_CONTEXT((#1205))
GLOBAL_UNIT_ASSIGNED_CONTEXT((#1209,#1211,#1212))
REPRESENTATION_CONTEXT('','3D')
);
#1208=(
GEOMETRIC_REPRESENTATION_CONTEXT(3)
GLOBAL_UNCERTAINTY_ASSIGNED_CONTEXT((#1206))
GLOBAL_UNIT_ASSIGNED_CONTEXT((#1209,#1211,#1212))
REPRESENTATION_CONTEXT('','3D')
);
#1209=(
LENGTH_UNIT()
NAMED_UNIT(*)
SI_UNIT(.MILLI.,.METRE.)
);
#1210=(
LENGTH_UNIT()
NAMED_UNIT(*)
SI_UNIT(.CENTI.,.METRE.)
);
#1211=(
NAMED_UNIT(*)
PLANE_ANGLE_UNIT()
SI_UNIT($,.RADIAN.)
);
#1212=(
NAMED_UNIT(*)
SI_UNIT($,.STERADIAN.)
SOLID_ANGLE_UNIT()
);
#1213=SHAPE_DEFINITION_REPRESENTATION(#1214,#1215);
#1214=PRODUCT_DEFINITION_SHAPE('',$,#1217);
#1215=SHAPE_REPRESENTATION('',(#745),#1207);
#1216=PRODUCT_DEFINITION_CONTEXT('part definition',#1221,'design');
#1217=PRODUCT_DEFINITION('frame_demo_2x2_xyxx','frame_demo_2x2_xyxx',#1218,
#1216);
#1218=PRODUCT_DEFINITION_FORMATION('',$,#1223);
#1219=PRODUCT_RELATED_PRODUCT_CATEGORY('frame_demo_2x2_xyxx',
'frame_demo_2x2_xyxx',(#1223));
#1220=APPLICATION_PROTOCOL_DEFINITION('international standard',
'automotive_design',2009,#1221);
#1221=APPLICATION_CONTEXT(
'Core Data for Automotive Mechanical Design Process');
#1222=PRODUCT_CONTEXT('part definition',#1221,'mechanical');
#1223=PRODUCT('frame_demo_2x2_xyxx','frame_demo_2x2_xyxx',$,(#1222));
#1224=PRESENTATION_STYLE_ASSIGNMENT((#1225));
#1225=SURFACE_STYLE_USAGE(.BOTH.,#1228);
#1226=SURFACE_STYLE_RENDERING_WITH_PROPERTIES($,#1232,(#1227));
#1227=SURFACE_STYLE_TRANSPARENT(0.);
#1228=SURFACE_SIDE_STYLE('',(#1229,#1226));
#1229=SURFACE_STYLE_FILL_AREA(#1230);
#1230=FILL_AREA_STYLE('',(#1231));
#1231=FILL_AREA_STYLE_COLOUR('',#1232);
#1232=COLOUR_RGB('',0.749019607843137,0.749019607843137,0.749019607843137);
ENDSEC;
END-ISO-10303-21;
