ISO-10303-21;
HEADER;
/* Generated by software containing ST-Developer
 * from STEP Tools, Inc. (www.steptools.com) 
 */

FILE_DESCRIPTION(
/* description */ (''),
/* implementation_level */ '2;1');

FILE_NAME(
/* name */ 'rack_2x1.stp',
/* time_stamp */ '2026-05-10T22:03:07+02:00',
/* author */ ('schar'),
/* organization */ (''),
/* preprocessor_version */ 'ST-DEVELOPER v19.2',
/* originating_system */ 'Autodesk Inventor 2024',
/* authorisation */ '');

FILE_SCHEMA (('AUTOMOTIVE_DESIGN { 1 0 10303 214 3 1 1 }'));
ENDSEC;

DATA;
#10=MECHANICAL_DESIGN_GEOMETRIC_PRESENTATION_REPRESENTATION('',(#13),#776);
#11=SHAPE_REPRESENTATION_RELATIONSHIP('SRR','None',#783,#12);
#12=ADVANCED_BREP_SHAPE_REPRESENTATION('',(#14),#775);
#13=STYLED_ITEM('',(#792),#14);
#14=MANIFOLD_SOLID_BREP('Solid1',#467);
#15=FACE_BOUND('',#102,.T.);
#16=FACE_BOUND('',#103,.T.);
#17=FACE_BOUND('',#104,.T.);
#18=FACE_BOUND('',#105,.T.);
#19=FACE_BOUND('',#106,.T.);
#20=FACE_BOUND('',#107,.T.);
#21=FACE_BOUND('',#108,.T.);
#22=FACE_BOUND('',#109,.T.);
#23=FACE_BOUND('',#110,.T.);
#24=FACE_BOUND('',#111,.T.);
#25=FACE_BOUND('',#113,.T.);
#26=FACE_BOUND('',#114,.T.);
#27=FACE_BOUND('',#115,.T.);
#28=FACE_BOUND('',#116,.T.);
#29=FACE_BOUND('',#117,.T.);
#30=FACE_BOUND('',#118,.T.);
#31=FACE_BOUND('',#119,.T.);
#32=FACE_BOUND('',#120,.T.);
#33=FACE_BOUND('',#121,.T.);
#34=FACE_BOUND('',#122,.T.);
#35=CIRCLE('',#495,1.49999999999997);
#36=CIRCLE('',#496,1.49999999999997);
#37=CIRCLE('',#498,1.49999999999997);
#38=CIRCLE('',#499,1.49999999999997);
#39=CIRCLE('',#501,1.49999999999997);
#40=CIRCLE('',#502,1.49999999999997);
#41=CIRCLE('',#504,1.49999999999997);
#42=CIRCLE('',#505,1.49999999999997);
#43=CIRCLE('',#507,1.49999999999997);
#44=CIRCLE('',#508,1.49999999999997);
#45=CIRCLE('',#510,1.49999999999997);
#46=CIRCLE('',#511,1.49999999999997);
#47=CIRCLE('',#513,1.49999999999997);
#48=CIRCLE('',#514,1.49999999999997);
#49=CIRCLE('',#516,1.49999999999997);
#50=CIRCLE('',#517,1.49999999999997);
#51=CYLINDRICAL_SURFACE('',#494,1.49999999999997);
#52=CYLINDRICAL_SURFACE('',#497,1.49999999999997);
#53=CYLINDRICAL_SURFACE('',#500,1.49999999999997);
#54=CYLINDRICAL_SURFACE('',#503,1.49999999999997);
#55=CYLINDRICAL_SURFACE('',#506,1.49999999999997);
#56=CYLINDRICAL_SURFACE('',#509,1.49999999999997);
#57=CYLINDRICAL_SURFACE('',#512,1.49999999999997);
#58=CYLINDRICAL_SURFACE('',#515,1.49999999999997);
#59=FACE_OUTER_BOUND('',#81,.T.);
#60=FACE_OUTER_BOUND('',#82,.T.);
#61=FACE_OUTER_BOUND('',#83,.T.);
#62=FACE_OUTER_BOUND('',#84,.T.);
#63=FACE_OUTER_BOUND('',#85,.T.);
#64=FACE_OUTER_BOUND('',#86,.T.);
#65=FACE_OUTER_BOUND('',#87,.T.);
#66=FACE_OUTER_BOUND('',#88,.T.);
#67=FACE_OUTER_BOUND('',#89,.T.);
#68=FACE_OUTER_BOUND('',#90,.T.);
#69=FACE_OUTER_BOUND('',#91,.T.);
#70=FACE_OUTER_BOUND('',#92,.T.);
#71=FACE_OUTER_BOUND('',#93,.T.);
#72=FACE_OUTER_BOUND('',#94,.T.);
#73=FACE_OUTER_BOUND('',#95,.T.);
#74=FACE_OUTER_BOUND('',#96,.T.);
#75=FACE_OUTER_BOUND('',#97,.T.);
#76=FACE_OUTER_BOUND('',#98,.T.);
#77=FACE_OUTER_BOUND('',#99,.T.);
#78=FACE_OUTER_BOUND('',#100,.T.);
#79=FACE_OUTER_BOUND('',#101,.T.);
#80=FACE_OUTER_BOUND('',#112,.T.);
#81=EDGE_LOOP('',(#311,#312,#313,#314));
#82=EDGE_LOOP('',(#315,#316,#317,#318));
#83=EDGE_LOOP('',(#319,#320,#321,#322));
#84=EDGE_LOOP('',(#323,#324,#325,#326));
#85=EDGE_LOOP('',(#327,#328,#329,#330));
#86=EDGE_LOOP('',(#331,#332,#333,#334));
#87=EDGE_LOOP('',(#335,#336,#337,#338));
#88=EDGE_LOOP('',(#339,#340,#341,#342));
#89=EDGE_LOOP('',(#343,#344,#345,#346));
#90=EDGE_LOOP('',(#347,#348,#349,#350));
#91=EDGE_LOOP('',(#351,#352,#353,#354));
#92=EDGE_LOOP('',(#355,#356,#357,#358));
#93=EDGE_LOOP('',(#359,#360,#361,#362));
#94=EDGE_LOOP('',(#363,#364,#365,#366));
#95=EDGE_LOOP('',(#367,#368,#369,#370));
#96=EDGE_LOOP('',(#371,#372,#373,#374));
#97=EDGE_LOOP('',(#375,#376,#377,#378));
#98=EDGE_LOOP('',(#379,#380,#381,#382));
#99=EDGE_LOOP('',(#383,#384,#385,#386));
#100=EDGE_LOOP('',(#387,#388,#389,#390));
#101=EDGE_LOOP('',(#391,#392,#393,#394));
#102=EDGE_LOOP('',(#395,#396,#397,#398));
#103=EDGE_LOOP('',(#399));
#104=EDGE_LOOP('',(#400));
#105=EDGE_LOOP('',(#401));
#106=EDGE_LOOP('',(#402));
#107=EDGE_LOOP('',(#403));
#108=EDGE_LOOP('',(#404));
#109=EDGE_LOOP('',(#405));
#110=EDGE_LOOP('',(#406));
#111=EDGE_LOOP('',(#407,#408,#409,#410));
#112=EDGE_LOOP('',(#411,#412,#413,#414));
#113=EDGE_LOOP('',(#415,#416,#417,#418));
#114=EDGE_LOOP('',(#419));
#115=EDGE_LOOP('',(#420));
#116=EDGE_LOOP('',(#421));
#117=EDGE_LOOP('',(#422));
#118=EDGE_LOOP('',(#423));
#119=EDGE_LOOP('',(#424));
#120=EDGE_LOOP('',(#425));
#121=EDGE_LOOP('',(#426));
#122=EDGE_LOOP('',(#427,#428,#429,#430));
#123=LINE('',#654,#167);
#124=LINE('',#656,#168);
#125=LINE('',#658,#169);
#126=LINE('',#659,#170);
#127=LINE('',#662,#171);
#128=LINE('',#664,#172);
#129=LINE('',#665,#173);
#130=LINE('',#668,#174);
#131=LINE('',#670,#175);
#132=LINE('',#671,#176);
#133=LINE('',#673,#177);
#134=LINE('',#674,#178);
#135=LINE('',#679,#179);
#136=LINE('',#685,#180);
#137=LINE('',#691,#181);
#138=LINE('',#697,#182);
#139=LINE('',#703,#183);
#140=LINE('',#709,#184);
#141=LINE('',#715,#185);
#142=LINE('',#721,#186);
#143=LINE('',#726,#187);
#144=LINE('',#728,#188);
#145=LINE('',#730,#189);
#146=LINE('',#731,#190);
#147=LINE('',#734,#191);
#148=LINE('',#736,#192);
#149=LINE('',#737,#193);
#150=LINE('',#740,#194);
#151=LINE('',#742,#195);
#152=LINE('',#743,#196);
#153=LINE('',#745,#197);
#154=LINE('',#746,#198);
#155=LINE('',#750,#199);
#156=LINE('',#752,#200);
#157=LINE('',#754,#201);
#158=LINE('',#755,#202);
#159=LINE('',#758,#203);
#160=LINE('',#760,#204);
#161=LINE('',#761,#205);
#162=LINE('',#764,#206);
#163=LINE('',#766,#207);
#164=LINE('',#767,#208);
#165=LINE('',#769,#209);
#166=LINE('',#770,#210);
#167=VECTOR('',#532,10.);
#168=VECTOR('',#533,10.);
#169=VECTOR('',#534,10.);
#170=VECTOR('',#535,10.);
#171=VECTOR('',#538,10.);
#172=VECTOR('',#539,10.);
#173=VECTOR('',#540,10.);
#174=VECTOR('',#543,10.);
#175=VECTOR('',#544,10.);
#176=VECTOR('',#545,10.);
#177=VECTOR('',#548,10.);
#178=VECTOR('',#549,10.);
#179=VECTOR('',#554,1.49999999999997);
#180=VECTOR('',#561,1.49999999999997);
#181=VECTOR('',#568,1.49999999999997);
#182=VECTOR('',#575,1.49999999999997);
#183=VECTOR('',#582,1.49999999999997);
#184=VECTOR('',#589,1.49999999999997);
#185=VECTOR('',#596,1.49999999999997);
#186=VECTOR('',#603,1.49999999999997);
#187=VECTOR('',#608,10.);
#188=VECTOR('',#609,10.);
#189=VECTOR('',#610,10.);
#190=VECTOR('',#611,10.);
#191=VECTOR('',#614,10.);
#192=VECTOR('',#615,10.);
#193=VECTOR('',#616,10.);
#194=VECTOR('',#619,10.);
#195=VECTOR('',#620,10.);
#196=VECTOR('',#621,10.);
#197=VECTOR('',#624,10.);
#198=VECTOR('',#625,10.);
#199=VECTOR('',#628,10.);
#200=VECTOR('',#629,10.);
#201=VECTOR('',#630,10.);
#202=VECTOR('',#631,10.);
#203=VECTOR('',#634,10.);
#204=VECTOR('',#635,10.);
#205=VECTOR('',#636,10.);
#206=VECTOR('',#639,10.);
#207=VECTOR('',#640,10.);
#208=VECTOR('',#641,10.);
#209=VECTOR('',#644,10.);
#210=VECTOR('',#645,10.);
#211=VERTEX_POINT('',#652);
#212=VERTEX_POINT('',#653);
#213=VERTEX_POINT('',#655);
#214=VERTEX_POINT('',#657);
#215=VERTEX_POINT('',#661);
#216=VERTEX_POINT('',#663);
#217=VERTEX_POINT('',#667);
#218=VERTEX_POINT('',#669);
#219=VERTEX_POINT('',#676);
#220=VERTEX_POINT('',#678);
#221=VERTEX_POINT('',#682);
#222=VERTEX_POINT('',#684);
#223=VERTEX_POINT('',#688);
#224=VERTEX_POINT('',#690);
#225=VERTEX_POINT('',#694);
#226=VERTEX_POINT('',#696);
#227=VERTEX_POINT('',#700);
#228=VERTEX_POINT('',#702);
#229=VERTEX_POINT('',#706);
#230=VERTEX_POINT('',#708);
#231=VERTEX_POINT('',#712);
#232=VERTEX_POINT('',#714);
#233=VERTEX_POINT('',#718);
#234=VERTEX_POINT('',#720);
#235=VERTEX_POINT('',#724);
#236=VERTEX_POINT('',#725);
#237=VERTEX_POINT('',#727);
#238=VERTEX_POINT('',#729);
#239=VERTEX_POINT('',#733);
#240=VERTEX_POINT('',#735);
#241=VERTEX_POINT('',#739);
#242=VERTEX_POINT('',#741);
#243=VERTEX_POINT('',#748);
#244=VERTEX_POINT('',#749);
#245=VERTEX_POINT('',#751);
#246=VERTEX_POINT('',#753);
#247=VERTEX_POINT('',#757);
#248=VERTEX_POINT('',#759);
#249=VERTEX_POINT('',#763);
#250=VERTEX_POINT('',#765);
#251=EDGE_CURVE('',#211,#212,#123,.T.);
#252=EDGE_CURVE('',#212,#213,#124,.T.);
#253=EDGE_CURVE('',#214,#213,#125,.T.);
#254=EDGE_CURVE('',#211,#214,#126,.T.);
#255=EDGE_CURVE('',#215,#211,#127,.T.);
#256=EDGE_CURVE('',#216,#214,#128,.T.);
#257=EDGE_CURVE('',#215,#216,#129,.T.);
#258=EDGE_CURVE('',#217,#215,#130,.T.);
#259=EDGE_CURVE('',#218,#216,#131,.T.);
#260=EDGE_CURVE('',#217,#218,#132,.T.);
#261=EDGE_CURVE('',#212,#217,#133,.T.);
#262=EDGE_CURVE('',#213,#218,#134,.T.);
#263=EDGE_CURVE('',#219,#219,#35,.T.);
#264=EDGE_CURVE('',#219,#220,#135,.T.);
#265=EDGE_CURVE('',#220,#220,#36,.T.);
#266=EDGE_CURVE('',#221,#221,#37,.T.);
#267=EDGE_CURVE('',#221,#222,#136,.T.);
#268=EDGE_CURVE('',#222,#222,#38,.T.);
#269=EDGE_CURVE('',#223,#223,#39,.T.);
#270=EDGE_CURVE('',#223,#224,#137,.T.);
#271=EDGE_CURVE('',#224,#224,#40,.T.);
#272=EDGE_CURVE('',#225,#225,#41,.T.);
#273=EDGE_CURVE('',#225,#226,#138,.T.);
#274=EDGE_CURVE('',#226,#226,#42,.T.);
#275=EDGE_CURVE('',#227,#227,#43,.T.);
#276=EDGE_CURVE('',#227,#228,#139,.T.);
#277=EDGE_CURVE('',#228,#228,#44,.T.);
#278=EDGE_CURVE('',#229,#229,#45,.T.);
#279=EDGE_CURVE('',#229,#230,#140,.T.);
#280=EDGE_CURVE('',#230,#230,#46,.T.);
#281=EDGE_CURVE('',#231,#231,#47,.T.);
#282=EDGE_CURVE('',#231,#232,#141,.T.);
#283=EDGE_CURVE('',#232,#232,#48,.T.);
#284=EDGE_CURVE('',#233,#233,#49,.T.);
#285=EDGE_CURVE('',#233,#234,#142,.T.);
#286=EDGE_CURVE('',#234,#234,#50,.T.);
#287=EDGE_CURVE('',#235,#236,#143,.T.);
#288=EDGE_CURVE('',#236,#237,#144,.T.);
#289=EDGE_CURVE('',#238,#237,#145,.T.);
#290=EDGE_CURVE('',#235,#238,#146,.T.);
#291=EDGE_CURVE('',#239,#235,#147,.T.);
#292=EDGE_CURVE('',#240,#238,#148,.T.);
#293=EDGE_CURVE('',#239,#240,#149,.T.);
#294=EDGE_CURVE('',#241,#239,#150,.T.);
#295=EDGE_CURVE('',#242,#240,#151,.T.);
#296=EDGE_CURVE('',#241,#242,#152,.T.);
#297=EDGE_CURVE('',#236,#241,#153,.T.);
#298=EDGE_CURVE('',#237,#242,#154,.T.);
#299=EDGE_CURVE('',#243,#244,#155,.T.);
#300=EDGE_CURVE('',#244,#245,#156,.T.);
#301=EDGE_CURVE('',#246,#245,#157,.T.);
#302=EDGE_CURVE('',#243,#246,#158,.T.);
#303=EDGE_CURVE('',#247,#243,#159,.T.);
#304=EDGE_CURVE('',#248,#246,#160,.T.);
#305=EDGE_CURVE('',#247,#248,#161,.T.);
#306=EDGE_CURVE('',#249,#247,#162,.T.);
#307=EDGE_CURVE('',#250,#248,#163,.T.);
#308=EDGE_CURVE('',#249,#250,#164,.T.);
#309=EDGE_CURVE('',#244,#249,#165,.T.);
#310=EDGE_CURVE('',#245,#250,#166,.T.);
#311=ORIENTED_EDGE('',*,*,#251,.T.);
#312=ORIENTED_EDGE('',*,*,#252,.T.);
#313=ORIENTED_EDGE('',*,*,#253,.F.);
#314=ORIENTED_EDGE('',*,*,#254,.F.);
#315=ORIENTED_EDGE('',*,*,#255,.T.);
#316=ORIENTED_EDGE('',*,*,#254,.T.);
#317=ORIENTED_EDGE('',*,*,#256,.F.);
#318=ORIENTED_EDGE('',*,*,#257,.F.);
#319=ORIENTED_EDGE('',*,*,#258,.T.);
#320=ORIENTED_EDGE('',*,*,#257,.T.);
#321=ORIENTED_EDGE('',*,*,#259,.F.);
#322=ORIENTED_EDGE('',*,*,#260,.F.);
#323=ORIENTED_EDGE('',*,*,#261,.T.);
#324=ORIENTED_EDGE('',*,*,#260,.T.);
#325=ORIENTED_EDGE('',*,*,#262,.F.);
#326=ORIENTED_EDGE('',*,*,#252,.F.);
#327=ORIENTED_EDGE('',*,*,#263,.F.);
#328=ORIENTED_EDGE('',*,*,#264,.T.);
#329=ORIENTED_EDGE('',*,*,#265,.T.);
#330=ORIENTED_EDGE('',*,*,#264,.F.);
#331=ORIENTED_EDGE('',*,*,#266,.F.);
#332=ORIENTED_EDGE('',*,*,#267,.T.);
#333=ORIENTED_EDGE('',*,*,#268,.T.);
#334=ORIENTED_EDGE('',*,*,#267,.F.);
#335=ORIENTED_EDGE('',*,*,#269,.F.);
#336=ORIENTED_EDGE('',*,*,#270,.T.);
#337=ORIENTED_EDGE('',*,*,#271,.T.);
#338=ORIENTED_EDGE('',*,*,#270,.F.);
#339=ORIENTED_EDGE('',*,*,#272,.F.);
#340=ORIENTED_EDGE('',*,*,#273,.T.);
#341=ORIENTED_EDGE('',*,*,#274,.T.);
#342=ORIENTED_EDGE('',*,*,#273,.F.);
#343=ORIENTED_EDGE('',*,*,#275,.F.);
#344=ORIENTED_EDGE('',*,*,#276,.T.);
#345=ORIENTED_EDGE('',*,*,#277,.T.);
#346=ORIENTED_EDGE('',*,*,#276,.F.);
#347=ORIENTED_EDGE('',*,*,#278,.F.);
#348=ORIENTED_EDGE('',*,*,#279,.T.);
#349=ORIENTED_EDGE('',*,*,#280,.T.);
#350=ORIENTED_EDGE('',*,*,#279,.F.);
#351=ORIENTED_EDGE('',*,*,#281,.F.);
#352=ORIENTED_EDGE('',*,*,#282,.T.);
#353=ORIENTED_EDGE('',*,*,#283,.T.);
#354=ORIENTED_EDGE('',*,*,#282,.F.);
#355=ORIENTED_EDGE('',*,*,#284,.F.);
#356=ORIENTED_EDGE('',*,*,#285,.T.);
#357=ORIENTED_EDGE('',*,*,#286,.T.);
#358=ORIENTED_EDGE('',*,*,#285,.F.);
#359=ORIENTED_EDGE('',*,*,#287,.T.);
#360=ORIENTED_EDGE('',*,*,#288,.T.);
#361=ORIENTED_EDGE('',*,*,#289,.F.);
#362=ORIENTED_EDGE('',*,*,#290,.F.);
#363=ORIENTED_EDGE('',*,*,#291,.T.);
#364=ORIENTED_EDGE('',*,*,#290,.T.);
#365=ORIENTED_EDGE('',*,*,#292,.F.);
#366=ORIENTED_EDGE('',*,*,#293,.F.);
#367=ORIENTED_EDGE('',*,*,#294,.T.);
#368=ORIENTED_EDGE('',*,*,#293,.T.);
#369=ORIENTED_EDGE('',*,*,#295,.F.);
#370=ORIENTED_EDGE('',*,*,#296,.F.);
#371=ORIENTED_EDGE('',*,*,#297,.T.);
#372=ORIENTED_EDGE('',*,*,#296,.T.);
#373=ORIENTED_EDGE('',*,*,#298,.F.);
#374=ORIENTED_EDGE('',*,*,#288,.F.);
#375=ORIENTED_EDGE('',*,*,#299,.T.);
#376=ORIENTED_EDGE('',*,*,#300,.T.);
#377=ORIENTED_EDGE('',*,*,#301,.F.);
#378=ORIENTED_EDGE('',*,*,#302,.F.);
#379=ORIENTED_EDGE('',*,*,#303,.T.);
#380=ORIENTED_EDGE('',*,*,#302,.T.);
#381=ORIENTED_EDGE('',*,*,#304,.F.);
#382=ORIENTED_EDGE('',*,*,#305,.F.);
#383=ORIENTED_EDGE('',*,*,#306,.T.);
#384=ORIENTED_EDGE('',*,*,#305,.T.);
#385=ORIENTED_EDGE('',*,*,#307,.F.);
#386=ORIENTED_EDGE('',*,*,#308,.F.);
#387=ORIENTED_EDGE('',*,*,#309,.T.);
#388=ORIENTED_EDGE('',*,*,#308,.T.);
#389=ORIENTED_EDGE('',*,*,#310,.F.);
#390=ORIENTED_EDGE('',*,*,#300,.F.);
#391=ORIENTED_EDGE('',*,*,#310,.T.);
#392=ORIENTED_EDGE('',*,*,#307,.T.);
#393=ORIENTED_EDGE('',*,*,#304,.T.);
#394=ORIENTED_EDGE('',*,*,#301,.T.);
#395=ORIENTED_EDGE('',*,*,#298,.T.);
#396=ORIENTED_EDGE('',*,*,#295,.T.);
#397=ORIENTED_EDGE('',*,*,#292,.T.);
#398=ORIENTED_EDGE('',*,*,#289,.T.);
#399=ORIENTED_EDGE('',*,*,#284,.T.);
#400=ORIENTED_EDGE('',*,*,#281,.T.);
#401=ORIENTED_EDGE('',*,*,#278,.T.);
#402=ORIENTED_EDGE('',*,*,#275,.T.);
#403=ORIENTED_EDGE('',*,*,#272,.T.);
#404=ORIENTED_EDGE('',*,*,#269,.T.);
#405=ORIENTED_EDGE('',*,*,#266,.T.);
#406=ORIENTED_EDGE('',*,*,#263,.T.);
#407=ORIENTED_EDGE('',*,*,#262,.T.);
#408=ORIENTED_EDGE('',*,*,#259,.T.);
#409=ORIENTED_EDGE('',*,*,#256,.T.);
#410=ORIENTED_EDGE('',*,*,#253,.T.);
#411=ORIENTED_EDGE('',*,*,#309,.F.);
#412=ORIENTED_EDGE('',*,*,#299,.F.);
#413=ORIENTED_EDGE('',*,*,#303,.F.);
#414=ORIENTED_EDGE('',*,*,#306,.F.);
#415=ORIENTED_EDGE('',*,*,#297,.F.);
#416=ORIENTED_EDGE('',*,*,#287,.F.);
#417=ORIENTED_EDGE('',*,*,#291,.F.);
#418=ORIENTED_EDGE('',*,*,#294,.F.);
#419=ORIENTED_EDGE('',*,*,#286,.F.);
#420=ORIENTED_EDGE('',*,*,#283,.F.);
#421=ORIENTED_EDGE('',*,*,#280,.F.);
#422=ORIENTED_EDGE('',*,*,#277,.F.);
#423=ORIENTED_EDGE('',*,*,#274,.F.);
#424=ORIENTED_EDGE('',*,*,#271,.F.);
#425=ORIENTED_EDGE('',*,*,#268,.F.);
#426=ORIENTED_EDGE('',*,*,#265,.F.);
#427=ORIENTED_EDGE('',*,*,#261,.F.);
#428=ORIENTED_EDGE('',*,*,#251,.F.);
#429=ORIENTED_EDGE('',*,*,#255,.F.);
#430=ORIENTED_EDGE('',*,*,#258,.F.);
#431=PLANE('',#490);
#432=PLANE('',#491);
#433=PLANE('',#492);
#434=PLANE('',#493);
#435=PLANE('',#518);
#436=PLANE('',#519);
#437=PLANE('',#520);
#438=PLANE('',#521);
#439=PLANE('',#522);
#440=PLANE('',#523);
#441=PLANE('',#524);
#442=PLANE('',#525);
#443=PLANE('',#526);
#444=PLANE('',#527);
#445=ADVANCED_FACE('',(#59),#431,.T.);
#446=ADVANCED_FACE('',(#60),#432,.T.);
#447=ADVANCED_FACE('',(#61),#433,.T.);
#448=ADVANCED_FACE('',(#62),#434,.T.);
#449=ADVANCED_FACE('',(#63),#51,.F.);
#450=ADVANCED_FACE('',(#64),#52,.F.);
#451=ADVANCED_FACE('',(#65),#53,.F.);
#452=ADVANCED_FACE('',(#66),#54,.F.);
#453=ADVANCED_FACE('',(#67),#55,.F.);
#454=ADVANCED_FACE('',(#68),#56,.F.);
#455=ADVANCED_FACE('',(#69),#57,.F.);
#456=ADVANCED_FACE('',(#70),#58,.F.);
#457=ADVANCED_FACE('',(#71),#435,.T.);
#458=ADVANCED_FACE('',(#72),#436,.T.);
#459=ADVANCED_FACE('',(#73),#437,.T.);
#460=ADVANCED_FACE('',(#74),#438,.T.);
#461=ADVANCED_FACE('',(#75),#439,.T.);
#462=ADVANCED_FACE('',(#76),#440,.T.);
#463=ADVANCED_FACE('',(#77),#441,.T.);
#464=ADVANCED_FACE('',(#78),#442,.T.);
#465=ADVANCED_FACE('',(#79,#15,#16,#17,#18,#19,#20,#21,#22,#23,#24),#443,
 .T.);
#466=ADVANCED_FACE('',(#80,#25,#26,#27,#28,#29,#30,#31,#32,#33,#34),#444,
 .F.);
#467=CLOSED_SHELL('',(#445,#446,#447,#448,#449,#450,#451,#452,#453,#454,
#455,#456,#457,#458,#459,#460,#461,#462,#463,#464,#465,#466));
#468=DERIVED_UNIT_ELEMENT(#471,1.);
#469=DERIVED_UNIT_ELEMENT(#778,-3.);
#470=DIMENSIONAL_EXPONENTS(0.,1.,0.,0.,0.,0.,0.);
#471=(
CONVERSION_BASED_UNIT('gram',#473)
MASS_UNIT()
NAMED_UNIT(#470)
);
#472=(
MASS_UNIT()
NAMED_UNIT(*)
SI_UNIT(.KILO.,.GRAM.)
);
#473=MASS_MEASURE_WITH_UNIT(MASS_MEASURE(0.001),#472);
#474=DERIVED_UNIT((#468,#469));
#475=MEASURE_REPRESENTATION_ITEM('density measure',
POSITIVE_RATIO_MEASURE(1.),#474);
#476=PROPERTY_DEFINITION_REPRESENTATION(#481,#478);
#477=PROPERTY_DEFINITION_REPRESENTATION(#482,#479);
#478=REPRESENTATION('material name',(#480),#775);
#479=REPRESENTATION('density',(#475),#775);
#480=DESCRIPTIVE_REPRESENTATION_ITEM('Generic','Generic');
#481=PROPERTY_DEFINITION('material property','material name',#785);
#482=PROPERTY_DEFINITION('material property','density of part',#785);
#483=DATE_TIME_ROLE('creation_date');
#484=APPLIED_DATE_AND_TIME_ASSIGNMENT(#485,#483,(#785));
#485=DATE_AND_TIME(#486,#487);
#486=CALENDAR_DATE(2026,7,4);
#487=LOCAL_TIME(0,0,0.,#488);
#488=COORDINATED_UNIVERSAL_TIME_OFFSET(0,0,.BEHIND.);
#489=AXIS2_PLACEMENT_3D('',#650,#528,#529);
#490=AXIS2_PLACEMENT_3D('',#651,#530,#531);
#491=AXIS2_PLACEMENT_3D('',#660,#536,#537);
#492=AXIS2_PLACEMENT_3D('',#666,#541,#542);
#493=AXIS2_PLACEMENT_3D('',#672,#546,#547);
#494=AXIS2_PLACEMENT_3D('',#675,#550,#551);
#495=AXIS2_PLACEMENT_3D('',#677,#552,#553);
#496=AXIS2_PLACEMENT_3D('',#680,#555,#556);
#497=AXIS2_PLACEMENT_3D('',#681,#557,#558);
#498=AXIS2_PLACEMENT_3D('',#683,#559,#560);
#499=AXIS2_PLACEMENT_3D('',#686,#562,#563);
#500=AXIS2_PLACEMENT_3D('',#687,#564,#565);
#501=AXIS2_PLACEMENT_3D('',#689,#566,#567);
#502=AXIS2_PLACEMENT_3D('',#692,#569,#570);
#503=AXIS2_PLACEMENT_3D('',#693,#571,#572);
#504=AXIS2_PLACEMENT_3D('',#695,#573,#574);
#505=AXIS2_PLACEMENT_3D('',#698,#576,#577);
#506=AXIS2_PLACEMENT_3D('',#699,#578,#579);
#507=AXIS2_PLACEMENT_3D('',#701,#580,#581);
#508=AXIS2_PLACEMENT_3D('',#704,#583,#584);
#509=AXIS2_PLACEMENT_3D('',#705,#585,#586);
#510=AXIS2_PLACEMENT_3D('',#707,#587,#588);
#511=AXIS2_PLACEMENT_3D('',#710,#590,#591);
#512=AXIS2_PLACEMENT_3D('',#711,#592,#593);
#513=AXIS2_PLACEMENT_3D('',#713,#594,#595);
#514=AXIS2_PLACEMENT_3D('',#716,#597,#598);
#515=AXIS2_PLACEMENT_3D('',#717,#599,#600);
#516=AXIS2_PLACEMENT_3D('',#719,#601,#602);
#517=AXIS2_PLACEMENT_3D('',#722,#604,#605);
#518=AXIS2_PLACEMENT_3D('',#723,#606,#607);
#519=AXIS2_PLACEMENT_3D('',#732,#612,#613);
#520=AXIS2_PLACEMENT_3D('',#738,#617,#618);
#521=AXIS2_PLACEMENT_3D('',#744,#622,#623);
#522=AXIS2_PLACEMENT_3D('',#747,#626,#627);
#523=AXIS2_PLACEMENT_3D('',#756,#632,#633);
#524=AXIS2_PLACEMENT_3D('',#762,#637,#638);
#525=AXIS2_PLACEMENT_3D('',#768,#642,#643);
#526=AXIS2_PLACEMENT_3D('',#771,#646,#647);
#527=AXIS2_PLACEMENT_3D('',#772,#648,#649);
#528=DIRECTION('axis',(0.,0.,1.));
#529=DIRECTION('refdir',(1.,0.,0.));
#530=DIRECTION('center_axis',(1.,0.,0.));
#531=DIRECTION('ref_axis',(0.,1.,0.));
#532=DIRECTION('',(0.,1.,0.));
#533=DIRECTION('',(0.,0.,1.));
#534=DIRECTION('',(0.,1.,0.));
#535=DIRECTION('',(0.,0.,1.));
#536=DIRECTION('center_axis',(0.,1.,0.));
#537=DIRECTION('ref_axis',(-1.,0.,0.));
#538=DIRECTION('',(-1.,0.,0.));
#539=DIRECTION('',(-1.,0.,0.));
#540=DIRECTION('',(0.,0.,1.));
#541=DIRECTION('center_axis',(-1.,0.,0.));
#542=DIRECTION('ref_axis',(0.,-1.,0.));
#543=DIRECTION('',(0.,-1.,0.));
#544=DIRECTION('',(0.,-1.,0.));
#545=DIRECTION('',(0.,0.,1.));
#546=DIRECTION('center_axis',(0.,-1.,0.));
#547=DIRECTION('ref_axis',(1.,0.,0.));
#548=DIRECTION('',(1.,0.,0.));
#549=DIRECTION('',(1.,0.,0.));
#550=DIRECTION('center_axis',(0.,0.,1.));
#551=DIRECTION('ref_axis',(-1.,0.,0.));
#552=DIRECTION('center_axis',(0.,0.,-1.));
#553=DIRECTION('ref_axis',(-1.,0.,0.));
#554=DIRECTION('',(0.,0.,-1.));
#555=DIRECTION('center_axis',(0.,0.,-1.));
#556=DIRECTION('ref_axis',(-1.,0.,0.));
#557=DIRECTION('center_axis',(0.,0.,1.));
#558=DIRECTION('ref_axis',(-1.,0.,0.));
#559=DIRECTION('center_axis',(0.,0.,-1.));
#560=DIRECTION('ref_axis',(-1.,0.,0.));
#561=DIRECTION('',(0.,0.,-1.));
#562=DIRECTION('center_axis',(0.,0.,-1.));
#563=DIRECTION('ref_axis',(-1.,0.,0.));
#564=DIRECTION('center_axis',(0.,0.,1.));
#565=DIRECTION('ref_axis',(-1.,0.,0.));
#566=DIRECTION('center_axis',(0.,0.,-1.));
#567=DIRECTION('ref_axis',(-1.,0.,0.));
#568=DIRECTION('',(0.,0.,-1.));
#569=DIRECTION('center_axis',(0.,0.,-1.));
#570=DIRECTION('ref_axis',(-1.,0.,0.));
#571=DIRECTION('center_axis',(0.,0.,1.));
#572=DIRECTION('ref_axis',(-1.,0.,0.));
#573=DIRECTION('center_axis',(0.,0.,-1.));
#574=DIRECTION('ref_axis',(-1.,0.,0.));
#575=DIRECTION('',(0.,0.,-1.));
#576=DIRECTION('center_axis',(0.,0.,-1.));
#577=DIRECTION('ref_axis',(-1.,0.,0.));
#578=DIRECTION('center_axis',(0.,0.,1.));
#579=DIRECTION('ref_axis',(-1.,0.,0.));
#580=DIRECTION('center_axis',(0.,0.,-1.));
#581=DIRECTION('ref_axis',(-1.,0.,0.));
#582=DIRECTION('',(0.,0.,-1.));
#583=DIRECTION('center_axis',(0.,0.,-1.));
#584=DIRECTION('ref_axis',(-1.,0.,0.));
#585=DIRECTION('center_axis',(0.,0.,1.));
#586=DIRECTION('ref_axis',(-1.,0.,0.));
#587=DIRECTION('center_axis',(0.,0.,-1.));
#588=DIRECTION('ref_axis',(-1.,0.,0.));
#589=DIRECTION('',(0.,0.,-1.));
#590=DIRECTION('center_axis',(0.,0.,-1.));
#591=DIRECTION('ref_axis',(-1.,0.,0.));
#592=DIRECTION('center_axis',(0.,0.,1.));
#593=DIRECTION('ref_axis',(-1.,0.,0.));
#594=DIRECTION('center_axis',(0.,0.,-1.));
#595=DIRECTION('ref_axis',(-1.,0.,0.));
#596=DIRECTION('',(0.,0.,-1.));
#597=DIRECTION('center_axis',(0.,0.,-1.));
#598=DIRECTION('ref_axis',(-1.,0.,0.));
#599=DIRECTION('center_axis',(0.,0.,1.));
#600=DIRECTION('ref_axis',(-1.,0.,0.));
#601=DIRECTION('center_axis',(0.,0.,-1.));
#602=DIRECTION('ref_axis',(-1.,0.,0.));
#603=DIRECTION('',(0.,0.,-1.));
#604=DIRECTION('center_axis',(0.,0.,-1.));
#605=DIRECTION('ref_axis',(-1.,0.,0.));
#606=DIRECTION('center_axis',(1.,0.,0.));
#607=DIRECTION('ref_axis',(0.,1.,0.));
#608=DIRECTION('',(0.,1.,0.));
#609=DIRECTION('',(0.,0.,1.));
#610=DIRECTION('',(0.,1.,0.));
#611=DIRECTION('',(0.,0.,1.));
#612=DIRECTION('center_axis',(0.,1.,0.));
#613=DIRECTION('ref_axis',(-1.,0.,0.));
#614=DIRECTION('',(-1.,0.,0.));
#615=DIRECTION('',(-1.,0.,0.));
#616=DIRECTION('',(0.,0.,1.));
#617=DIRECTION('center_axis',(-1.,0.,0.));
#618=DIRECTION('ref_axis',(0.,-1.,0.));
#619=DIRECTION('',(0.,-1.,0.));
#620=DIRECTION('',(0.,-1.,0.));
#621=DIRECTION('',(0.,0.,1.));
#622=DIRECTION('center_axis',(0.,-1.,0.));
#623=DIRECTION('ref_axis',(1.,0.,0.));
#624=DIRECTION('',(1.,0.,0.));
#625=DIRECTION('',(1.,0.,0.));
#626=DIRECTION('center_axis',(0.,-1.,0.));
#627=DIRECTION('ref_axis',(1.,0.,0.));
#628=DIRECTION('',(1.,0.,0.));
#629=DIRECTION('',(0.,0.,1.));
#630=DIRECTION('',(1.,0.,0.));
#631=DIRECTION('',(0.,0.,1.));
#632=DIRECTION('center_axis',(-1.,0.,0.));
#633=DIRECTION('ref_axis',(0.,-1.,0.));
#634=DIRECTION('',(0.,-1.,0.));
#635=DIRECTION('',(0.,-1.,0.));
#636=DIRECTION('',(0.,0.,1.));
#637=DIRECTION('center_axis',(0.,1.,0.));
#638=DIRECTION('ref_axis',(-1.,0.,0.));
#639=DIRECTION('',(-1.,0.,0.));
#640=DIRECTION('',(-1.,0.,0.));
#641=DIRECTION('',(0.,0.,1.));
#642=DIRECTION('center_axis',(1.,0.,0.));
#643=DIRECTION('ref_axis',(0.,1.,0.));
#644=DIRECTION('',(0.,1.,0.));
#645=DIRECTION('',(0.,1.,0.));
#646=DIRECTION('center_axis',(0.,0.,1.));
#647=DIRECTION('ref_axis',(1.,0.,0.));
#648=DIRECTION('center_axis',(0.,0.,1.));
#649=DIRECTION('ref_axis',(1.,0.,0.));
#650=CARTESIAN_POINT('',(0.,0.,0.));
#651=CARTESIAN_POINT('Origin',(-25.2,-25.2,0.));
#652=CARTESIAN_POINT('',(-25.2,-25.2,0.));
#653=CARTESIAN_POINT('',(-25.2,25.2,0.));
#654=CARTESIAN_POINT('',(-25.2,-25.2,0.));
#655=CARTESIAN_POINT('',(-25.2,25.2,7.));
#656=CARTESIAN_POINT('',(-25.2,25.2,0.));
#657=CARTESIAN_POINT('',(-25.2,-25.2,7.));
#658=CARTESIAN_POINT('',(-25.2,-25.2,7.));
#659=CARTESIAN_POINT('',(-25.2,-25.2,0.));
#660=CARTESIAN_POINT('Origin',(25.2,-25.2,0.));
#661=CARTESIAN_POINT('',(25.2,-25.2,0.));
#662=CARTESIAN_POINT('',(25.2,-25.2,0.));
#663=CARTESIAN_POINT('',(25.2,-25.2,7.));
#664=CARTESIAN_POINT('',(25.2,-25.2,7.));
#665=CARTESIAN_POINT('',(25.2,-25.2,0.));
#666=CARTESIAN_POINT('Origin',(25.2,25.2,0.));
#667=CARTESIAN_POINT('',(25.2,25.2,0.));
#668=CARTESIAN_POINT('',(25.2,25.2,0.));
#669=CARTESIAN_POINT('',(25.2,25.2,7.));
#670=CARTESIAN_POINT('',(25.2,25.2,7.));
#671=CARTESIAN_POINT('',(25.2,25.2,0.));
#672=CARTESIAN_POINT('Origin',(-25.2,25.2,0.));
#673=CARTESIAN_POINT('',(-25.2,25.2,0.));
#674=CARTESIAN_POINT('',(-25.2,25.2,7.));
#675=CARTESIAN_POINT('Origin',(-26.7677669529656,-26.7677669529654,0.));
#676=CARTESIAN_POINT('',(-25.2677669529656,-26.7677669529654,7.));
#677=CARTESIAN_POINT('Origin',(-26.7677669529656,-26.7677669529654,7.));
#678=CARTESIAN_POINT('',(-25.2677669529656,-26.7677669529654,0.));
#679=CARTESIAN_POINT('',(-25.2677669529656,-26.7677669529654,0.));
#680=CARTESIAN_POINT('Origin',(-26.7677669529656,-26.7677669529654,0.));
#681=CARTESIAN_POINT('Origin',(26.7677669529661,-26.7677669529655,0.));
#682=CARTESIAN_POINT('',(28.267766952966,-26.7677669529655,7.));
#683=CARTESIAN_POINT('Origin',(26.7677669529661,-26.7677669529655,7.));
#684=CARTESIAN_POINT('',(28.267766952966,-26.7677669529655,0.));
#685=CARTESIAN_POINT('',(28.267766952966,-26.7677669529655,0.));
#686=CARTESIAN_POINT('Origin',(26.7677669529661,-26.7677669529655,0.));
#687=CARTESIAN_POINT('Origin',(26.767766952966,26.7677669529658,0.));
#688=CARTESIAN_POINT('',(28.267766952966,26.7677669529658,7.));
#689=CARTESIAN_POINT('Origin',(26.767766952966,26.7677669529658,7.));
#690=CARTESIAN_POINT('',(28.267766952966,26.7677669529658,0.));
#691=CARTESIAN_POINT('',(28.267766952966,26.7677669529658,0.));
#692=CARTESIAN_POINT('Origin',(26.767766952966,26.7677669529658,0.));
#693=CARTESIAN_POINT('Origin',(-26.7677669529657,26.7677669529659,0.));
#694=CARTESIAN_POINT('',(-25.2677669529657,26.7677669529659,7.));
#695=CARTESIAN_POINT('Origin',(-26.7677669529657,26.7677669529659,7.));
#696=CARTESIAN_POINT('',(-25.2677669529657,26.7677669529659,0.));
#697=CARTESIAN_POINT('',(-25.2677669529657,26.7677669529659,0.));
#698=CARTESIAN_POINT('Origin',(-26.7677669529657,26.7677669529659,0.));
#699=CARTESIAN_POINT('Origin',(-33.2322330470343,26.7677669529659,0.));
#700=CARTESIAN_POINT('',(-31.7322330470344,26.7677669529659,7.));
#701=CARTESIAN_POINT('Origin',(-33.2322330470343,26.7677669529659,7.));
#702=CARTESIAN_POINT('',(-31.7322330470344,26.7677669529659,0.));
#703=CARTESIAN_POINT('',(-31.7322330470344,26.7677669529659,0.));
#704=CARTESIAN_POINT('Origin',(-33.2322330470343,26.7677669529659,0.));
#705=CARTESIAN_POINT('Origin',(-86.7677669529661,-26.7677669529655,0.));
#706=CARTESIAN_POINT('',(-85.2677669529661,-26.7677669529655,7.));
#707=CARTESIAN_POINT('Origin',(-86.7677669529661,-26.7677669529655,7.));
#708=CARTESIAN_POINT('',(-85.2677669529661,-26.7677669529655,0.));
#709=CARTESIAN_POINT('',(-85.2677669529661,-26.7677669529655,0.));
#710=CARTESIAN_POINT('Origin',(-86.7677669529661,-26.7677669529655,0.));
#711=CARTESIAN_POINT('Origin',(-33.2322330470344,-26.7677669529654,0.));
#712=CARTESIAN_POINT('',(-31.7322330470344,-26.7677669529654,7.));
#713=CARTESIAN_POINT('Origin',(-33.2322330470344,-26.7677669529654,7.));
#714=CARTESIAN_POINT('',(-31.7322330470344,-26.7677669529654,0.));
#715=CARTESIAN_POINT('',(-31.7322330470344,-26.7677669529654,0.));
#716=CARTESIAN_POINT('Origin',(-33.2322330470344,-26.7677669529654,0.));
#717=CARTESIAN_POINT('Origin',(-86.767766952966,26.7677669529658,0.));
#718=CARTESIAN_POINT('',(-85.2677669529661,26.7677669529658,7.));
#719=CARTESIAN_POINT('Origin',(-86.767766952966,26.7677669529658,7.));
#720=CARTESIAN_POINT('',(-85.2677669529661,26.7677669529658,0.));
#721=CARTESIAN_POINT('',(-85.2677669529661,26.7677669529658,0.));
#722=CARTESIAN_POINT('Origin',(-86.767766952966,26.7677669529658,0.));
#723=CARTESIAN_POINT('Origin',(-85.2,-25.2,0.));
#724=CARTESIAN_POINT('',(-85.2,-25.2,0.));
#725=CARTESIAN_POINT('',(-85.2,25.2,0.));
#726=CARTESIAN_POINT('',(-85.2,-25.2,0.));
#727=CARTESIAN_POINT('',(-85.2,25.2,7.));
#728=CARTESIAN_POINT('',(-85.2,25.2,0.));
#729=CARTESIAN_POINT('',(-85.2,-25.2,7.));
#730=CARTESIAN_POINT('',(-85.2,-25.2,7.));
#731=CARTESIAN_POINT('',(-85.2,-25.2,0.));
#732=CARTESIAN_POINT('Origin',(-34.8,-25.2,0.));
#733=CARTESIAN_POINT('',(-34.8,-25.2,0.));
#734=CARTESIAN_POINT('',(-34.8,-25.2,0.));
#735=CARTESIAN_POINT('',(-34.8,-25.2,7.));
#736=CARTESIAN_POINT('',(-34.8,-25.2,7.));
#737=CARTESIAN_POINT('',(-34.8,-25.2,0.));
#738=CARTESIAN_POINT('Origin',(-34.8,25.2,0.));
#739=CARTESIAN_POINT('',(-34.8,25.2,0.));
#740=CARTESIAN_POINT('',(-34.8,25.2,0.));
#741=CARTESIAN_POINT('',(-34.8,25.2,7.));
#742=CARTESIAN_POINT('',(-34.8,25.2,7.));
#743=CARTESIAN_POINT('',(-34.8,25.2,0.));
#744=CARTESIAN_POINT('Origin',(-85.2,25.2,0.));
#745=CARTESIAN_POINT('',(-85.2,25.2,0.));
#746=CARTESIAN_POINT('',(-85.2,25.2,7.));
#747=CARTESIAN_POINT('Origin',(-90.,-30.,0.));
#748=CARTESIAN_POINT('',(-90.,-30.,0.));
#749=CARTESIAN_POINT('',(30.,-30.,0.));
#750=CARTESIAN_POINT('',(-90.,-30.,0.));
#751=CARTESIAN_POINT('',(30.,-30.,7.));
#752=CARTESIAN_POINT('',(30.,-30.,0.));
#753=CARTESIAN_POINT('',(-90.,-30.,7.));
#754=CARTESIAN_POINT('',(-90.,-30.,7.));
#755=CARTESIAN_POINT('',(-90.,-30.,0.));
#756=CARTESIAN_POINT('Origin',(-90.,30.,0.));
#757=CARTESIAN_POINT('',(-90.,30.,0.));
#758=CARTESIAN_POINT('',(-90.,30.,0.));
#759=CARTESIAN_POINT('',(-90.,30.,7.));
#760=CARTESIAN_POINT('',(-90.,30.,7.));
#761=CARTESIAN_POINT('',(-90.,30.,0.));
#762=CARTESIAN_POINT('Origin',(30.,30.,0.));
#763=CARTESIAN_POINT('',(30.,30.,0.));
#764=CARTESIAN_POINT('',(30.,30.,0.));
#765=CARTESIAN_POINT('',(30.,30.,7.));
#766=CARTESIAN_POINT('',(30.,30.,7.));
#767=CARTESIAN_POINT('',(30.,30.,0.));
#768=CARTESIAN_POINT('Origin',(30.,-30.,0.));
#769=CARTESIAN_POINT('',(30.,-30.,0.));
#770=CARTESIAN_POINT('',(30.,-30.,7.));
#771=CARTESIAN_POINT('Origin',(-30.,0.,7.));
#772=CARTESIAN_POINT('Origin',(-30.,0.,0.));
#773=UNCERTAINTY_MEASURE_WITH_UNIT(LENGTH_MEASURE(0.01),#777,
'DISTANCE_ACCURACY_VALUE',
'Maximum model space distance between geometric entities at asserted c
onnectivities');
#774=UNCERTAINTY_MEASURE_WITH_UNIT(LENGTH_MEASURE(0.01),#777,
'DISTANCE_ACCURACY_VALUE',
'Maximum model space distance between geometric entities at asserted c
onnectivities');
#775=(
GEOMETRIC_REPRESENTATION_CONTEXT(3)
GLOBAL_UNCERTAINTY_ASSIGNED_CONTEXT((#773))
GLOBAL_UNIT_ASSIGNED_CONTEXT((#777,#779,#780))
REPRESENTATION_CONTEXT('','3D')
);
#776=(
GEOMETRIC_REPRESENTATION_CONTEXT(3)
GLOBAL_UNCERTAINTY_ASSIGNED_CONTEXT((#774))
GLOBAL_UNIT_ASSIGNED_CONTEXT((#777,#779,#780))
REPRESENTATION_CONTEXT('','3D')
);
#777=(
LENGTH_UNIT()
NAMED_UNIT(*)
SI_UNIT(.MILLI.,.METRE.)
);
#778=(
LENGTH_UNIT()
NAMED_UNIT(*)
SI_UNIT(.CENTI.,.METRE.)
);
#779=(
NAMED_UNIT(*)
PLANE_ANGLE_UNIT()
SI_UNIT($,.RADIAN.)
);
#780=(
NAMED_UNIT(*)
SI_UNIT($,.STERADIAN.)
SOLID_ANGLE_UNIT()
);
#781=SHAPE_DEFINITION_REPRESENTATION(#782,#783);
#782=PRODUCT_DEFINITION_SHAPE('',$,#785);
#783=SHAPE_REPRESENTATION('',(#489),#775);
#784=PRODUCT_DEFINITION_CONTEXT('part definition',#789,'design');
#785=PRODUCT_DEFINITION('rack_2x1','rack_2x1',#786,#784);
#786=PRODUCT_DEFINITION_FORMATION('',$,#791);
#787=PRODUCT_RELATED_PRODUCT_CATEGORY('rack_2x1','rack_2x1',(#791));
#788=APPLICATION_PROTOCOL_DEFINITION('international standard',
'automotive_design',2009,#789);
#789=APPLICATION_CONTEXT(
'Core Data for Automotive Mechanical Design Process');
#790=PRODUCT_CONTEXT('part definition',#789,'mechanical');
#791=PRODUCT('rack_2x1','rack_2x1',$,(#790));
#792=PRESENTATION_STYLE_ASSIGNMENT((#793));
#793=SURFACE_STYLE_USAGE(.BOTH.,#796);
#794=SURFACE_STYLE_RENDERING_WITH_PROPERTIES($,#800,(#795));
#795=SURFACE_STYLE_TRANSPARENT(0.);
#796=SURFACE_SIDE_STYLE('',(#797,#794));
#797=SURFACE_STYLE_FILL_AREA(#798);
#798=FILL_AREA_STYLE('',(#799));
#799=FILL_AREA_STYLE_COLOUR('',#800);
#800=COLOUR_RGB('',0.749019607843137,0.749019607843137,0.749019607843137);
ENDSEC;
END-ISO-10303-21;
