ISO-10303-21;
HEADER;
/* Generated by software containing ST-Developer
 * from STEP Tools, Inc. (www.steptools.com) 
 */

FILE_DESCRIPTION(
/* description */ (''),
/* implementation_level */ '2;1');

FILE_NAME(
/* name */ 'rack_C2x1.stp',
/* time_stamp */ '2026-05-10T22:03:18+02:00',
/* author */ ('schar'),
/* organization */ (''),
/* preprocessor_version */ 'ST-DEVELOPER v19.2',
/* originating_system */ 'Autodesk Inventor 2024',
/* authorisation */ '');

FILE_SCHEMA (('AUTOMOTIVE_DESIGN { 1 0 10303 214 3 1 1 }'));
ENDSEC;

DATA;
#10=MECHANICAL_DESIGN_GEOMETRIC_PRESENTATION_REPRESENTATION('',(#13),#484);
#11=SHAPE_REPRESENTATION_RELATIONSHIP('SRR','None',#491,#12);
#12=ADVANCED_BREP_SHAPE_REPRESENTATION('',(#14),#483);
#13=STYLED_ITEM('',(#500),#14);
#14=MANIFOLD_SOLID_BREP('Solid1',#287);
#15=FACE_BOUND('',#62,.T.);
#16=FACE_BOUND('',#63,.T.);
#17=FACE_BOUND('',#64,.T.);
#18=FACE_BOUND('',#65,.T.);
#19=FACE_BOUND('',#66,.T.);
#20=FACE_BOUND('',#68,.T.);
#21=FACE_BOUND('',#69,.T.);
#22=FACE_BOUND('',#70,.T.);
#23=FACE_BOUND('',#71,.T.);
#24=FACE_BOUND('',#72,.T.);
#25=PLANE('',#319);
#26=PLANE('',#320);
#27=PLANE('',#321);
#28=PLANE('',#322);
#29=PLANE('',#326);
#30=PLANE('',#327);
#31=PLANE('',#328);
#32=PLANE('',#329);
#33=PLANE('',#330);
#34=PLANE('',#331);
#35=FACE_OUTER_BOUND('',#49,.T.);
#36=FACE_OUTER_BOUND('',#50,.T.);
#37=FACE_OUTER_BOUND('',#51,.T.);
#38=FACE_OUTER_BOUND('',#52,.T.);
#39=FACE_OUTER_BOUND('',#53,.T.);
#40=FACE_OUTER_BOUND('',#54,.T.);
#41=FACE_OUTER_BOUND('',#55,.T.);
#42=FACE_OUTER_BOUND('',#56,.T.);
#43=FACE_OUTER_BOUND('',#57,.T.);
#44=FACE_OUTER_BOUND('',#58,.T.);
#45=FACE_OUTER_BOUND('',#59,.T.);
#46=FACE_OUTER_BOUND('',#60,.T.);
#47=FACE_OUTER_BOUND('',#61,.T.);
#48=FACE_OUTER_BOUND('',#67,.T.);
#49=EDGE_LOOP('',(#197,#198,#199,#200));
#50=EDGE_LOOP('',(#201,#202,#203,#204));
#51=EDGE_LOOP('',(#205,#206,#207,#208));
#52=EDGE_LOOP('',(#209,#210,#211,#212));
#53=EDGE_LOOP('',(#213,#214,#215,#216));
#54=EDGE_LOOP('',(#217,#218,#219,#220));
#55=EDGE_LOOP('',(#221,#222,#223,#224));
#56=EDGE_LOOP('',(#225,#226,#227,#228));
#57=EDGE_LOOP('',(#229,#230,#231,#232));
#58=EDGE_LOOP('',(#233,#234,#235,#236));
#59=EDGE_LOOP('',(#237,#238,#239,#240));
#60=EDGE_LOOP('',(#241,#242,#243,#244));
#61=EDGE_LOOP('',(#245,#246,#247,#248));
#62=EDGE_LOOP('',(#249));
#63=EDGE_LOOP('',(#250,#251,#252,#253));
#64=EDGE_LOOP('',(#254));
#65=EDGE_LOOP('',(#255));
#66=EDGE_LOOP('',(#256));
#67=EDGE_LOOP('',(#257,#258,#259,#260));
#68=EDGE_LOOP('',(#261));
#69=EDGE_LOOP('',(#262,#263,#264,#265));
#70=EDGE_LOOP('',(#266));
#71=EDGE_LOOP('',(#267));
#72=EDGE_LOOP('',(#268));
#73=LINE('',#411,#101);
#74=LINE('',#417,#102);
#75=LINE('',#423,#103);
#76=LINE('',#428,#104);
#77=LINE('',#430,#105);
#78=LINE('',#432,#106);
#79=LINE('',#433,#107);
#80=LINE('',#436,#108);
#81=LINE('',#438,#109);
#82=LINE('',#439,#110);
#83=LINE('',#442,#111);
#84=LINE('',#444,#112);
#85=LINE('',#445,#113);
#86=LINE('',#447,#114);
#87=LINE('',#448,#115);
#88=LINE('',#453,#116);
#89=LINE('',#458,#117);
#90=LINE('',#460,#118);
#91=LINE('',#462,#119);
#92=LINE('',#463,#120);
#93=LINE('',#466,#121);
#94=LINE('',#468,#122);
#95=LINE('',#469,#123);
#96=LINE('',#472,#124);
#97=LINE('',#474,#125);
#98=LINE('',#475,#126);
#99=LINE('',#477,#127);
#100=LINE('',#478,#128);
#101=VECTOR('',#338,1.5);
#102=VECTOR('',#345,1.5);
#103=VECTOR('',#352,1.5);
#104=VECTOR('',#357,10.);
#105=VECTOR('',#358,10.);
#106=VECTOR('',#359,10.);
#107=VECTOR('',#360,10.);
#108=VECTOR('',#363,10.);
#109=VECTOR('',#364,10.);
#110=VECTOR('',#365,10.);
#111=VECTOR('',#368,10.);
#112=VECTOR('',#369,10.);
#113=VECTOR('',#370,10.);
#114=VECTOR('',#373,10.);
#115=VECTOR('',#374,10.);
#116=VECTOR('',#379,1.5);
#117=VECTOR('',#384,10.);
#118=VECTOR('',#385,10.);
#119=VECTOR('',#386,10.);
#120=VECTOR('',#387,10.);
#121=VECTOR('',#390,10.);
#122=VECTOR('',#391,10.);
#123=VECTOR('',#392,10.);
#124=VECTOR('',#395,10.);
#125=VECTOR('',#396,10.);
#126=VECTOR('',#397,10.);
#127=VECTOR('',#400,10.);
#128=VECTOR('',#401,10.);
#129=CIRCLE('',#311,1.5);
#130=CIRCLE('',#312,1.5);
#131=CIRCLE('',#314,1.5);
#132=CIRCLE('',#315,1.5);
#133=CIRCLE('',#317,1.5);
#134=CIRCLE('',#318,1.5);
#135=CIRCLE('',#324,1.5);
#136=CIRCLE('',#325,1.5);
#137=VERTEX_POINT('',#408);
#138=VERTEX_POINT('',#410);
#139=VERTEX_POINT('',#414);
#140=VERTEX_POINT('',#416);
#141=VERTEX_POINT('',#420);
#142=VERTEX_POINT('',#422);
#143=VERTEX_POINT('',#426);
#144=VERTEX_POINT('',#427);
#145=VERTEX_POINT('',#429);
#146=VERTEX_POINT('',#431);
#147=VERTEX_POINT('',#435);
#148=VERTEX_POINT('',#437);
#149=VERTEX_POINT('',#441);
#150=VERTEX_POINT('',#443);
#151=VERTEX_POINT('',#450);
#152=VERTEX_POINT('',#452);
#153=VERTEX_POINT('',#456);
#154=VERTEX_POINT('',#457);
#155=VERTEX_POINT('',#459);
#156=VERTEX_POINT('',#461);
#157=VERTEX_POINT('',#465);
#158=VERTEX_POINT('',#467);
#159=VERTEX_POINT('',#471);
#160=VERTEX_POINT('',#473);
#161=EDGE_CURVE('',#137,#137,#129,.T.);
#162=EDGE_CURVE('',#137,#138,#73,.T.);
#163=EDGE_CURVE('',#138,#138,#130,.T.);
#164=EDGE_CURVE('',#139,#139,#131,.T.);
#165=EDGE_CURVE('',#139,#140,#74,.T.);
#166=EDGE_CURVE('',#140,#140,#132,.T.);
#167=EDGE_CURVE('',#141,#141,#133,.T.);
#168=EDGE_CURVE('',#141,#142,#75,.T.);
#169=EDGE_CURVE('',#142,#142,#134,.T.);
#170=EDGE_CURVE('',#143,#144,#76,.T.);
#171=EDGE_CURVE('',#144,#145,#77,.T.);
#172=EDGE_CURVE('',#146,#145,#78,.T.);
#173=EDGE_CURVE('',#143,#146,#79,.T.);
#174=EDGE_CURVE('',#147,#143,#80,.T.);
#175=EDGE_CURVE('',#148,#146,#81,.T.);
#176=EDGE_CURVE('',#147,#148,#82,.T.);
#177=EDGE_CURVE('',#149,#147,#83,.T.);
#178=EDGE_CURVE('',#150,#148,#84,.T.);
#179=EDGE_CURVE('',#149,#150,#85,.T.);
#180=EDGE_CURVE('',#144,#149,#86,.T.);
#181=EDGE_CURVE('',#145,#150,#87,.T.);
#182=EDGE_CURVE('',#151,#151,#135,.T.);
#183=EDGE_CURVE('',#151,#152,#88,.T.);
#184=EDGE_CURVE('',#152,#152,#136,.T.);
#185=EDGE_CURVE('',#153,#154,#89,.T.);
#186=EDGE_CURVE('',#154,#155,#90,.T.);
#187=EDGE_CURVE('',#156,#155,#91,.T.);
#188=EDGE_CURVE('',#153,#156,#92,.T.);
#189=EDGE_CURVE('',#157,#153,#93,.T.);
#190=EDGE_CURVE('',#158,#156,#94,.T.);
#191=EDGE_CURVE('',#157,#158,#95,.T.);
#192=EDGE_CURVE('',#159,#157,#96,.T.);
#193=EDGE_CURVE('',#160,#158,#97,.T.);
#194=EDGE_CURVE('',#159,#160,#98,.T.);
#195=EDGE_CURVE('',#154,#159,#99,.T.);
#196=EDGE_CURVE('',#155,#160,#100,.T.);
#197=ORIENTED_EDGE('',*,*,#161,.F.);
#198=ORIENTED_EDGE('',*,*,#162,.T.);
#199=ORIENTED_EDGE('',*,*,#163,.T.);
#200=ORIENTED_EDGE('',*,*,#162,.F.);
#201=ORIENTED_EDGE('',*,*,#164,.F.);
#202=ORIENTED_EDGE('',*,*,#165,.T.);
#203=ORIENTED_EDGE('',*,*,#166,.T.);
#204=ORIENTED_EDGE('',*,*,#165,.F.);
#205=ORIENTED_EDGE('',*,*,#167,.F.);
#206=ORIENTED_EDGE('',*,*,#168,.T.);
#207=ORIENTED_EDGE('',*,*,#169,.T.);
#208=ORIENTED_EDGE('',*,*,#168,.F.);
#209=ORIENTED_EDGE('',*,*,#170,.T.);
#210=ORIENTED_EDGE('',*,*,#171,.T.);
#211=ORIENTED_EDGE('',*,*,#172,.F.);
#212=ORIENTED_EDGE('',*,*,#173,.F.);
#213=ORIENTED_EDGE('',*,*,#174,.T.);
#214=ORIENTED_EDGE('',*,*,#173,.T.);
#215=ORIENTED_EDGE('',*,*,#175,.F.);
#216=ORIENTED_EDGE('',*,*,#176,.F.);
#217=ORIENTED_EDGE('',*,*,#177,.T.);
#218=ORIENTED_EDGE('',*,*,#176,.T.);
#219=ORIENTED_EDGE('',*,*,#178,.F.);
#220=ORIENTED_EDGE('',*,*,#179,.F.);
#221=ORIENTED_EDGE('',*,*,#180,.T.);
#222=ORIENTED_EDGE('',*,*,#179,.T.);
#223=ORIENTED_EDGE('',*,*,#181,.F.);
#224=ORIENTED_EDGE('',*,*,#171,.F.);
#225=ORIENTED_EDGE('',*,*,#182,.F.);
#226=ORIENTED_EDGE('',*,*,#183,.T.);
#227=ORIENTED_EDGE('',*,*,#184,.T.);
#228=ORIENTED_EDGE('',*,*,#183,.F.);
#229=ORIENTED_EDGE('',*,*,#185,.T.);
#230=ORIENTED_EDGE('',*,*,#186,.T.);
#231=ORIENTED_EDGE('',*,*,#187,.F.);
#232=ORIENTED_EDGE('',*,*,#188,.F.);
#233=ORIENTED_EDGE('',*,*,#189,.T.);
#234=ORIENTED_EDGE('',*,*,#188,.T.);
#235=ORIENTED_EDGE('',*,*,#190,.F.);
#236=ORIENTED_EDGE('',*,*,#191,.F.);
#237=ORIENTED_EDGE('',*,*,#192,.T.);
#238=ORIENTED_EDGE('',*,*,#191,.T.);
#239=ORIENTED_EDGE('',*,*,#193,.F.);
#240=ORIENTED_EDGE('',*,*,#194,.F.);
#241=ORIENTED_EDGE('',*,*,#195,.T.);
#242=ORIENTED_EDGE('',*,*,#194,.T.);
#243=ORIENTED_EDGE('',*,*,#196,.F.);
#244=ORIENTED_EDGE('',*,*,#186,.F.);
#245=ORIENTED_EDGE('',*,*,#196,.T.);
#246=ORIENTED_EDGE('',*,*,#193,.T.);
#247=ORIENTED_EDGE('',*,*,#190,.T.);
#248=ORIENTED_EDGE('',*,*,#187,.T.);
#249=ORIENTED_EDGE('',*,*,#182,.T.);
#250=ORIENTED_EDGE('',*,*,#181,.T.);
#251=ORIENTED_EDGE('',*,*,#178,.T.);
#252=ORIENTED_EDGE('',*,*,#175,.T.);
#253=ORIENTED_EDGE('',*,*,#172,.T.);
#254=ORIENTED_EDGE('',*,*,#167,.T.);
#255=ORIENTED_EDGE('',*,*,#164,.T.);
#256=ORIENTED_EDGE('',*,*,#161,.T.);
#257=ORIENTED_EDGE('',*,*,#195,.F.);
#258=ORIENTED_EDGE('',*,*,#185,.F.);
#259=ORIENTED_EDGE('',*,*,#189,.F.);
#260=ORIENTED_EDGE('',*,*,#192,.F.);
#261=ORIENTED_EDGE('',*,*,#184,.F.);
#262=ORIENTED_EDGE('',*,*,#180,.F.);
#263=ORIENTED_EDGE('',*,*,#170,.F.);
#264=ORIENTED_EDGE('',*,*,#174,.F.);
#265=ORIENTED_EDGE('',*,*,#177,.F.);
#266=ORIENTED_EDGE('',*,*,#169,.F.);
#267=ORIENTED_EDGE('',*,*,#166,.F.);
#268=ORIENTED_EDGE('',*,*,#163,.F.);
#269=CYLINDRICAL_SURFACE('',#310,1.5);
#270=CYLINDRICAL_SURFACE('',#313,1.5);
#271=CYLINDRICAL_SURFACE('',#316,1.5);
#272=CYLINDRICAL_SURFACE('',#323,1.5);
#273=ADVANCED_FACE('',(#35),#269,.F.);
#274=ADVANCED_FACE('',(#36),#270,.F.);
#275=ADVANCED_FACE('',(#37),#271,.F.);
#276=ADVANCED_FACE('',(#38),#25,.T.);
#277=ADVANCED_FACE('',(#39),#26,.T.);
#278=ADVANCED_FACE('',(#40),#27,.T.);
#279=ADVANCED_FACE('',(#41),#28,.T.);
#280=ADVANCED_FACE('',(#42),#272,.F.);
#281=ADVANCED_FACE('',(#43),#29,.T.);
#282=ADVANCED_FACE('',(#44),#30,.T.);
#283=ADVANCED_FACE('',(#45),#31,.T.);
#284=ADVANCED_FACE('',(#46),#32,.T.);
#285=ADVANCED_FACE('',(#47,#15,#16,#17,#18,#19),#33,.T.);
#286=ADVANCED_FACE('',(#48,#20,#21,#22,#23,#24),#34,.F.);
#287=CLOSED_SHELL('',(#273,#274,#275,#276,#277,#278,#279,#280,#281,#282,
#283,#284,#285,#286));
#288=DERIVED_UNIT_ELEMENT(#291,1.);
#289=DERIVED_UNIT_ELEMENT(#486,-3.);
#290=DIMENSIONAL_EXPONENTS(0.,1.,0.,0.,0.,0.,0.);
#291=(
CONVERSION_BASED_UNIT('gram',#293)
MASS_UNIT()
NAMED_UNIT(#290)
);
#292=(
MASS_UNIT()
NAMED_UNIT(*)
SI_UNIT(.KILO.,.GRAM.)
);
#293=MASS_MEASURE_WITH_UNIT(MASS_MEASURE(0.001),#292);
#294=DERIVED_UNIT((#288,#289));
#295=MEASURE_REPRESENTATION_ITEM('density measure',
POSITIVE_RATIO_MEASURE(1.),#294);
#296=PROPERTY_DEFINITION_REPRESENTATION(#301,#298);
#297=PROPERTY_DEFINITION_REPRESENTATION(#302,#299);
#298=REPRESENTATION('material name',(#300),#483);
#299=REPRESENTATION('density',(#295),#483);
#300=DESCRIPTIVE_REPRESENTATION_ITEM('Generic','Generic');
#301=PROPERTY_DEFINITION('material property','material name',#493);
#302=PROPERTY_DEFINITION('material property','density of part',#493);
#303=DATE_TIME_ROLE('creation_date');
#304=APPLIED_DATE_AND_TIME_ASSIGNMENT(#305,#303,(#493));
#305=DATE_AND_TIME(#306,#307);
#306=CALENDAR_DATE(2026,7,4);
#307=LOCAL_TIME(0,0,0.,#308);
#308=COORDINATED_UNIVERSAL_TIME_OFFSET(0,0,.BEHIND.);
#309=AXIS2_PLACEMENT_3D('',#406,#332,#333);
#310=AXIS2_PLACEMENT_3D('',#407,#334,#335);
#311=AXIS2_PLACEMENT_3D('',#409,#336,#337);
#312=AXIS2_PLACEMENT_3D('',#412,#339,#340);
#313=AXIS2_PLACEMENT_3D('',#413,#341,#342);
#314=AXIS2_PLACEMENT_3D('',#415,#343,#344);
#315=AXIS2_PLACEMENT_3D('',#418,#346,#347);
#316=AXIS2_PLACEMENT_3D('',#419,#348,#349);
#317=AXIS2_PLACEMENT_3D('',#421,#350,#351);
#318=AXIS2_PLACEMENT_3D('',#424,#353,#354);
#319=AXIS2_PLACEMENT_3D('',#425,#355,#356);
#320=AXIS2_PLACEMENT_3D('',#434,#361,#362);
#321=AXIS2_PLACEMENT_3D('',#440,#366,#367);
#322=AXIS2_PLACEMENT_3D('',#446,#371,#372);
#323=AXIS2_PLACEMENT_3D('',#449,#375,#376);
#324=AXIS2_PLACEMENT_3D('',#451,#377,#378);
#325=AXIS2_PLACEMENT_3D('',#454,#380,#381);
#326=AXIS2_PLACEMENT_3D('',#455,#382,#383);
#327=AXIS2_PLACEMENT_3D('',#464,#388,#389);
#328=AXIS2_PLACEMENT_3D('',#470,#393,#394);
#329=AXIS2_PLACEMENT_3D('',#476,#398,#399);
#330=AXIS2_PLACEMENT_3D('',#479,#402,#403);
#331=AXIS2_PLACEMENT_3D('',#480,#404,#405);
#332=DIRECTION('axis',(0.,0.,1.));
#333=DIRECTION('refdir',(1.,0.,0.));
#334=DIRECTION('center_axis',(0.,0.,1.));
#335=DIRECTION('ref_axis',(-1.,0.,0.));
#336=DIRECTION('center_axis',(0.,0.,-1.));
#337=DIRECTION('ref_axis',(-1.,0.,0.));
#338=DIRECTION('',(0.,0.,-1.));
#339=DIRECTION('center_axis',(0.,0.,-1.));
#340=DIRECTION('ref_axis',(-1.,0.,0.));
#341=DIRECTION('center_axis',(0.,0.,1.));
#342=DIRECTION('ref_axis',(-1.,0.,0.));
#343=DIRECTION('center_axis',(0.,0.,-1.));
#344=DIRECTION('ref_axis',(-1.,0.,0.));
#345=DIRECTION('',(0.,0.,-1.));
#346=DIRECTION('center_axis',(0.,0.,-1.));
#347=DIRECTION('ref_axis',(-1.,0.,0.));
#348=DIRECTION('center_axis',(0.,0.,1.));
#349=DIRECTION('ref_axis',(-1.,0.,0.));
#350=DIRECTION('center_axis',(0.,0.,-1.));
#351=DIRECTION('ref_axis',(-1.,0.,0.));
#352=DIRECTION('',(0.,0.,-1.));
#353=DIRECTION('center_axis',(0.,0.,-1.));
#354=DIRECTION('ref_axis',(-1.,0.,0.));
#355=DIRECTION('center_axis',(-1.,0.,0.));
#356=DIRECTION('ref_axis',(0.,-1.,0.));
#357=DIRECTION('',(0.,-1.,0.));
#358=DIRECTION('',(0.,0.,1.));
#359=DIRECTION('',(0.,-1.,0.));
#360=DIRECTION('',(0.,0.,1.));
#361=DIRECTION('center_axis',(0.,-1.,0.));
#362=DIRECTION('ref_axis',(1.,0.,0.));
#363=DIRECTION('',(1.,0.,0.));
#364=DIRECTION('',(1.,0.,0.));
#365=DIRECTION('',(0.,0.,1.));
#366=DIRECTION('center_axis',(1.,0.,0.));
#367=DIRECTION('ref_axis',(0.,1.,0.));
#368=DIRECTION('',(0.,1.,0.));
#369=DIRECTION('',(0.,1.,0.));
#370=DIRECTION('',(0.,0.,1.));
#371=DIRECTION('center_axis',(0.,1.,0.));
#372=DIRECTION('ref_axis',(-1.,0.,0.));
#373=DIRECTION('',(-1.,0.,0.));
#374=DIRECTION('',(-1.,0.,0.));
#375=DIRECTION('center_axis',(0.,0.,1.));
#376=DIRECTION('ref_axis',(-1.,0.,0.));
#377=DIRECTION('center_axis',(0.,0.,-1.));
#378=DIRECTION('ref_axis',(-1.,0.,0.));
#379=DIRECTION('',(0.,0.,-1.));
#380=DIRECTION('center_axis',(0.,0.,-1.));
#381=DIRECTION('ref_axis',(-1.,0.,0.));
#382=DIRECTION('center_axis',(0.,1.,0.));
#383=DIRECTION('ref_axis',(-1.,0.,0.));
#384=DIRECTION('',(-1.,0.,0.));
#385=DIRECTION('',(0.,0.,1.));
#386=DIRECTION('',(-1.,0.,0.));
#387=DIRECTION('',(0.,0.,1.));
#388=DIRECTION('center_axis',(1.,0.,0.));
#389=DIRECTION('ref_axis',(0.,1.,0.));
#390=DIRECTION('',(0.,1.,0.));
#391=DIRECTION('',(0.,1.,0.));
#392=DIRECTION('',(0.,0.,1.));
#393=DIRECTION('center_axis',(0.,-1.,0.));
#394=DIRECTION('ref_axis',(1.,0.,0.));
#395=DIRECTION('',(1.,0.,0.));
#396=DIRECTION('',(1.,0.,0.));
#397=DIRECTION('',(0.,0.,1.));
#398=DIRECTION('center_axis',(-1.,0.,0.));
#399=DIRECTION('ref_axis',(0.,-1.,0.));
#400=DIRECTION('',(0.,-1.,0.));
#401=DIRECTION('',(0.,-1.,0.));
#402=DIRECTION('center_axis',(0.,0.,1.));
#403=DIRECTION('ref_axis',(1.,0.,0.));
#404=DIRECTION('center_axis',(0.,0.,1.));
#405=DIRECTION('ref_axis',(1.,0.,0.));
#406=CARTESIAN_POINT('',(0.,0.,0.));
#407=CARTESIAN_POINT('Origin',(-26.768,-26.768,0.));
#408=CARTESIAN_POINT('',(-25.268,-26.768,7.));
#409=CARTESIAN_POINT('Origin',(-26.768,-26.768,7.));
#410=CARTESIAN_POINT('',(-25.268,-26.768,0.));
#411=CARTESIAN_POINT('',(-25.268,-26.768,0.));
#412=CARTESIAN_POINT('Origin',(-26.768,-26.768,0.));
#413=CARTESIAN_POINT('Origin',(86.768,26.768,0.));
#414=CARTESIAN_POINT('',(88.268,26.768,7.));
#415=CARTESIAN_POINT('Origin',(86.768,26.768,7.));
#416=CARTESIAN_POINT('',(88.268,26.768,0.));
#417=CARTESIAN_POINT('',(88.268,26.768,0.));
#418=CARTESIAN_POINT('Origin',(86.768,26.768,0.));
#419=CARTESIAN_POINT('Origin',(86.768,-26.768,0.));
#420=CARTESIAN_POINT('',(88.268,-26.768,7.));
#421=CARTESIAN_POINT('Origin',(86.768,-26.768,7.));
#422=CARTESIAN_POINT('',(88.268,-26.768,0.));
#423=CARTESIAN_POINT('',(88.268,-26.768,0.));
#424=CARTESIAN_POINT('Origin',(86.768,-26.768,0.));
#425=CARTESIAN_POINT('Origin',(85.2,25.2,0.));
#426=CARTESIAN_POINT('',(85.2,25.2,0.));
#427=CARTESIAN_POINT('',(85.2,-25.2,0.));
#428=CARTESIAN_POINT('',(85.2,25.2,0.));
#429=CARTESIAN_POINT('',(85.2,-25.2,7.));
#430=CARTESIAN_POINT('',(85.2,-25.2,0.));
#431=CARTESIAN_POINT('',(85.2,25.2,7.));
#432=CARTESIAN_POINT('',(85.2,25.2,7.));
#433=CARTESIAN_POINT('',(85.2,25.2,0.));
#434=CARTESIAN_POINT('Origin',(-25.2,25.2,0.));
#435=CARTESIAN_POINT('',(-25.2,25.2,0.));
#436=CARTESIAN_POINT('',(-25.2,25.2,0.));
#437=CARTESIAN_POINT('',(-25.2,25.2,7.));
#438=CARTESIAN_POINT('',(-25.2,25.2,7.));
#439=CARTESIAN_POINT('',(-25.2,25.2,0.));
#440=CARTESIAN_POINT('Origin',(-25.2,-25.2,0.));
#441=CARTESIAN_POINT('',(-25.2,-25.2,0.));
#442=CARTESIAN_POINT('',(-25.2,-25.2,0.));
#443=CARTESIAN_POINT('',(-25.2,-25.2,7.));
#444=CARTESIAN_POINT('',(-25.2,-25.2,7.));
#445=CARTESIAN_POINT('',(-25.2,-25.2,0.));
#446=CARTESIAN_POINT('Origin',(85.2,-25.2,0.));
#447=CARTESIAN_POINT('',(85.2,-25.2,0.));
#448=CARTESIAN_POINT('',(85.2,-25.2,7.));
#449=CARTESIAN_POINT('Origin',(-26.768,26.768,0.));
#450=CARTESIAN_POINT('',(-25.268,26.768,7.));
#451=CARTESIAN_POINT('Origin',(-26.768,26.768,7.));
#452=CARTESIAN_POINT('',(-25.268,26.768,0.));
#453=CARTESIAN_POINT('',(-25.268,26.768,0.));
#454=CARTESIAN_POINT('Origin',(-26.768,26.768,0.));
#455=CARTESIAN_POINT('Origin',(90.,30.,0.));
#456=CARTESIAN_POINT('',(90.,30.,0.));
#457=CARTESIAN_POINT('',(-30.,30.,0.));
#458=CARTESIAN_POINT('',(90.,30.,0.));
#459=CARTESIAN_POINT('',(-30.,30.,7.));
#460=CARTESIAN_POINT('',(-30.,30.,0.));
#461=CARTESIAN_POINT('',(90.,30.,7.));
#462=CARTESIAN_POINT('',(90.,30.,7.));
#463=CARTESIAN_POINT('',(90.,30.,0.));
#464=CARTESIAN_POINT('Origin',(90.,-30.,0.));
#465=CARTESIAN_POINT('',(90.,-30.,0.));
#466=CARTESIAN_POINT('',(90.,-30.,0.));
#467=CARTESIAN_POINT('',(90.,-30.,7.));
#468=CARTESIAN_POINT('',(90.,-30.,7.));
#469=CARTESIAN_POINT('',(90.,-30.,0.));
#470=CARTESIAN_POINT('Origin',(-30.,-30.,0.));
#471=CARTESIAN_POINT('',(-30.,-30.,0.));
#472=CARTESIAN_POINT('',(-30.,-30.,0.));
#473=CARTESIAN_POINT('',(-30.,-30.,7.));
#474=CARTESIAN_POINT('',(-30.,-30.,7.));
#475=CARTESIAN_POINT('',(-30.,-30.,0.));
#476=CARTESIAN_POINT('Origin',(-30.,30.,0.));
#477=CARTESIAN_POINT('',(-30.,30.,0.));
#478=CARTESIAN_POINT('',(-30.,30.,7.));
#479=CARTESIAN_POINT('Origin',(30.,0.,7.));
#480=CARTESIAN_POINT('Origin',(30.,0.,0.));
#481=UNCERTAINTY_MEASURE_WITH_UNIT(LENGTH_MEASURE(0.01),#485,
'DISTANCE_ACCURACY_VALUE',
'Maximum model space distance between geometric entities at asserted c
onnectivities');
#482=UNCERTAINTY_MEASURE_WITH_UNIT(LENGTH_MEASURE(0.01),#485,
'DISTANCE_ACCURACY_VALUE',
'Maximum model space distance between geometric entities at asserted c
onnectivities');
#483=(
GEOMETRIC_REPRESENTATION_CONTEXT(3)
GLOBAL_UNCERTAINTY_ASSIGNED_CONTEXT((#481))
GLOBAL_UNIT_ASSIGNED_CONTEXT((#485,#487,#488))
REPRESENTATION_CONTEXT('','3D')
);
#484=(
GEOMETRIC_REPRESENTATION_CONTEXT(3)
GLOBAL_UNCERTAINTY_ASSIGNED_CONTEXT((#482))
GLOBAL_UNIT_ASSIGNED_CONTEXT((#485,#487,#488))
REPRESENTATION_CONTEXT('','3D')
);
#485=(
LENGTH_UNIT()
NAMED_UNIT(*)
SI_UNIT(.MILLI.,.METRE.)
);
#486=(
LENGTH_UNIT()
NAMED_UNIT(*)
SI_UNIT(.CENTI.,.METRE.)
);
#487=(
NAMED_UNIT(*)
PLANE_ANGLE_UNIT()
SI_UNIT($,.RADIAN.)
);
#488=(
NAMED_UNIT(*)
SI_UNIT($,.STERADIAN.)
SOLID_ANGLE_UNIT()
);
#489=SHAPE_DEFINITION_REPRESENTATION(#490,#491);
#490=PRODUCT_DEFINITION_SHAPE('',$,#493);
#491=SHAPE_REPRESENTATION('',(#309),#483);
#492=PRODUCT_DEFINITION_CONTEXT('part definition',#497,'design');
#493=PRODUCT_DEFINITION('rack_C2x1','rack_C2x1',#494,#492);
#494=PRODUCT_DEFINITION_FORMATION('',$,#499);
#495=PRODUCT_RELATED_PRODUCT_CATEGORY('rack_C2x1','rack_C2x1',(#499));
#496=APPLICATION_PROTOCOL_DEFINITION('international standard',
'automotive_design',2009,#497);
#497=APPLICATION_CONTEXT(
'Core Data for Automotive Mechanical Design Process');
#498=PRODUCT_CONTEXT('part definition',#497,'mechanical');
#499=PRODUCT('rack_C2x1','rack_C2x1',$,(#498));
#500=PRESENTATION_STYLE_ASSIGNMENT((#501));
#501=SURFACE_STYLE_USAGE(.BOTH.,#504);
#502=SURFACE_STYLE_RENDERING_WITH_PROPERTIES($,#508,(#503));
#503=SURFACE_STYLE_TRANSPARENT(0.);
#504=SURFACE_SIDE_STYLE('',(#505,#502));
#505=SURFACE_STYLE_FILL_AREA(#506);
#506=FILL_AREA_STYLE('',(#507));
#507=FILL_AREA_STYLE_COLOUR('',#508);
#508=COLOUR_RGB('',0.749019607843137,0.749019607843137,0.749019607843137);
ENDSEC;
END-ISO-10303-21;
