ISO-10303-21;
HEADER;
/* Generated by software containing ST-Developer
 * from STEP Tools, Inc. (www.steptools.com) 
 */

FILE_DESCRIPTION(
/* description */ (''),
/* implementation_level */ '2;1');

FILE_NAME(
/* name */ 'APEM_5236CDB.stp',
/* time_stamp */ '2026-05-10T22:03:49+02:00',
/* author */ ('schar'),
/* organization */ (''),
/* preprocessor_version */ 'ST-DEVELOPER v19.2',
/* originating_system */ 'Autodesk Inventor 2024',
/* authorisation */ '');

FILE_SCHEMA (('AUTOMOTIVE_DESIGN { 1 0 10303 214 3 1 1 }'));
ENDSEC;

DATA;
#10=MECHANICAL_DESIGN_GEOMETRIC_PRESENTATION_REPRESENTATION('',(#13),#327);
#11=SHAPE_REPRESENTATION_RELATIONSHIP('SRR','None',#334,#12);
#12=ADVANCED_BREP_SHAPE_REPRESENTATION('',(#14),#326);
#13=STYLED_ITEM('',(#343),#14);
#14=MANIFOLD_SOLID_BREP('Solid1',#182);
#15=FACE_BOUND('',#41,.T.);
#16=FACE_BOUND('',#44,.T.);
#17=FACE_BOUND('',#50,.T.);
#18=PLANE('',#208);
#19=PLANE('',#213);
#20=PLANE('',#214);
#21=PLANE('',#215);
#22=PLANE('',#216);
#23=PLANE('',#217);
#24=PLANE('',#218);
#25=PLANE('',#219);
#26=PLANE('',#222);
#27=FACE_OUTER_BOUND('',#39,.T.);
#28=FACE_OUTER_BOUND('',#40,.T.);
#29=FACE_OUTER_BOUND('',#42,.T.);
#30=FACE_OUTER_BOUND('',#43,.T.);
#31=FACE_OUTER_BOUND('',#45,.T.);
#32=FACE_OUTER_BOUND('',#46,.T.);
#33=FACE_OUTER_BOUND('',#47,.T.);
#34=FACE_OUTER_BOUND('',#48,.T.);
#35=FACE_OUTER_BOUND('',#49,.T.);
#36=FACE_OUTER_BOUND('',#51,.T.);
#37=FACE_OUTER_BOUND('',#52,.T.);
#38=FACE_OUTER_BOUND('',#53,.T.);
#39=EDGE_LOOP('',(#125,#126,#127,#128));
#40=EDGE_LOOP('',(#129));
#41=EDGE_LOOP('',(#130));
#42=EDGE_LOOP('',(#131,#132,#133,#134));
#43=EDGE_LOOP('',(#135));
#44=EDGE_LOOP('',(#136));
#45=EDGE_LOOP('',(#137,#138,#139,#140));
#46=EDGE_LOOP('',(#141,#142,#143,#144));
#47=EDGE_LOOP('',(#145,#146,#147,#148));
#48=EDGE_LOOP('',(#149,#150,#151,#152));
#49=EDGE_LOOP('',(#153,#154,#155,#156));
#50=EDGE_LOOP('',(#157));
#51=EDGE_LOOP('',(#158,#159,#160,#161));
#52=EDGE_LOOP('',(#162,#163,#164,#165));
#53=EDGE_LOOP('',(#166));
#54=LINE('',#281,#69);
#55=LINE('',#290,#70);
#56=LINE('',#296,#71);
#57=LINE('',#298,#72);
#58=LINE('',#300,#73);
#59=LINE('',#301,#74);
#60=LINE('',#304,#75);
#61=LINE('',#306,#76);
#62=LINE('',#307,#77);
#63=LINE('',#310,#78);
#64=LINE('',#312,#79);
#65=LINE('',#313,#80);
#66=LINE('',#315,#81);
#67=LINE('',#316,#82);
#68=LINE('',#322,#83);
#69=VECTOR('',#229,2.25);
#70=VECTOR('',#240,3.175);
#71=VECTOR('',#247,10.);
#72=VECTOR('',#248,10.);
#73=VECTOR('',#249,10.);
#74=VECTOR('',#250,10.);
#75=VECTOR('',#253,10.);
#76=VECTOR('',#254,10.);
#77=VECTOR('',#255,10.);
#78=VECTOR('',#258,10.);
#79=VECTOR('',#259,10.);
#80=VECTOR('',#260,10.);
#81=VECTOR('',#263,10.);
#82=VECTOR('',#264,10.);
#83=VECTOR('',#273,1.5);
#84=CIRCLE('',#206,2.25);
#85=CIRCLE('',#207,2.25);
#86=CIRCLE('',#209,1.5);
#87=CIRCLE('',#211,3.175);
#88=CIRCLE('',#212,3.175);
#89=CIRCLE('',#221,1.5);
#90=VERTEX_POINT('',#278);
#91=VERTEX_POINT('',#280);
#92=VERTEX_POINT('',#284);
#93=VERTEX_POINT('',#287);
#94=VERTEX_POINT('',#289);
#95=VERTEX_POINT('',#294);
#96=VERTEX_POINT('',#295);
#97=VERTEX_POINT('',#297);
#98=VERTEX_POINT('',#299);
#99=VERTEX_POINT('',#303);
#100=VERTEX_POINT('',#305);
#101=VERTEX_POINT('',#309);
#102=VERTEX_POINT('',#311);
#103=VERTEX_POINT('',#320);
#104=EDGE_CURVE('',#90,#90,#84,.T.);
#105=EDGE_CURVE('',#90,#91,#54,.T.);
#106=EDGE_CURVE('',#91,#91,#85,.T.);
#107=EDGE_CURVE('',#92,#92,#86,.T.);
#108=EDGE_CURVE('',#93,#93,#87,.T.);
#109=EDGE_CURVE('',#93,#94,#55,.T.);
#110=EDGE_CURVE('',#94,#94,#88,.T.);
#111=EDGE_CURVE('',#95,#96,#56,.T.);
#112=EDGE_CURVE('',#96,#97,#57,.T.);
#113=EDGE_CURVE('',#98,#97,#58,.T.);
#114=EDGE_CURVE('',#95,#98,#59,.T.);
#115=EDGE_CURVE('',#99,#95,#60,.T.);
#116=EDGE_CURVE('',#100,#98,#61,.T.);
#117=EDGE_CURVE('',#99,#100,#62,.T.);
#118=EDGE_CURVE('',#101,#99,#63,.T.);
#119=EDGE_CURVE('',#102,#100,#64,.T.);
#120=EDGE_CURVE('',#101,#102,#65,.T.);
#121=EDGE_CURVE('',#96,#101,#66,.T.);
#122=EDGE_CURVE('',#97,#102,#67,.T.);
#123=EDGE_CURVE('',#103,#103,#89,.T.);
#124=EDGE_CURVE('',#103,#92,#68,.T.);
#125=ORIENTED_EDGE('',*,*,#104,.F.);
#126=ORIENTED_EDGE('',*,*,#105,.T.);
#127=ORIENTED_EDGE('',*,*,#106,.T.);
#128=ORIENTED_EDGE('',*,*,#105,.F.);
#129=ORIENTED_EDGE('',*,*,#106,.F.);
#130=ORIENTED_EDGE('',*,*,#107,.T.);
#131=ORIENTED_EDGE('',*,*,#108,.F.);
#132=ORIENTED_EDGE('',*,*,#109,.T.);
#133=ORIENTED_EDGE('',*,*,#110,.F.);
#134=ORIENTED_EDGE('',*,*,#109,.F.);
#135=ORIENTED_EDGE('',*,*,#108,.T.);
#136=ORIENTED_EDGE('',*,*,#104,.T.);
#137=ORIENTED_EDGE('',*,*,#111,.T.);
#138=ORIENTED_EDGE('',*,*,#112,.T.);
#139=ORIENTED_EDGE('',*,*,#113,.F.);
#140=ORIENTED_EDGE('',*,*,#114,.F.);
#141=ORIENTED_EDGE('',*,*,#115,.T.);
#142=ORIENTED_EDGE('',*,*,#114,.T.);
#143=ORIENTED_EDGE('',*,*,#116,.F.);
#144=ORIENTED_EDGE('',*,*,#117,.F.);
#145=ORIENTED_EDGE('',*,*,#118,.T.);
#146=ORIENTED_EDGE('',*,*,#117,.T.);
#147=ORIENTED_EDGE('',*,*,#119,.F.);
#148=ORIENTED_EDGE('',*,*,#120,.F.);
#149=ORIENTED_EDGE('',*,*,#121,.T.);
#150=ORIENTED_EDGE('',*,*,#120,.T.);
#151=ORIENTED_EDGE('',*,*,#122,.F.);
#152=ORIENTED_EDGE('',*,*,#112,.F.);
#153=ORIENTED_EDGE('',*,*,#122,.T.);
#154=ORIENTED_EDGE('',*,*,#119,.T.);
#155=ORIENTED_EDGE('',*,*,#116,.T.);
#156=ORIENTED_EDGE('',*,*,#113,.T.);
#157=ORIENTED_EDGE('',*,*,#110,.T.);
#158=ORIENTED_EDGE('',*,*,#121,.F.);
#159=ORIENTED_EDGE('',*,*,#111,.F.);
#160=ORIENTED_EDGE('',*,*,#115,.F.);
#161=ORIENTED_EDGE('',*,*,#118,.F.);
#162=ORIENTED_EDGE('',*,*,#123,.F.);
#163=ORIENTED_EDGE('',*,*,#124,.T.);
#164=ORIENTED_EDGE('',*,*,#107,.F.);
#165=ORIENTED_EDGE('',*,*,#124,.F.);
#166=ORIENTED_EDGE('',*,*,#123,.T.);
#167=CYLINDRICAL_SURFACE('',#205,2.25);
#168=CYLINDRICAL_SURFACE('',#210,3.175);
#169=CYLINDRICAL_SURFACE('',#220,1.5);
#170=ADVANCED_FACE('',(#27),#167,.F.);
#171=ADVANCED_FACE('',(#28,#15),#18,.T.);
#172=ADVANCED_FACE('',(#29),#168,.T.);
#173=ADVANCED_FACE('',(#30,#16),#19,.T.);
#174=ADVANCED_FACE('',(#31),#20,.T.);
#175=ADVANCED_FACE('',(#32),#21,.T.);
#176=ADVANCED_FACE('',(#33),#22,.T.);
#177=ADVANCED_FACE('',(#34),#23,.T.);
#178=ADVANCED_FACE('',(#35,#17),#24,.T.);
#179=ADVANCED_FACE('',(#36),#25,.F.);
#180=ADVANCED_FACE('',(#37),#169,.T.);
#181=ADVANCED_FACE('',(#38),#26,.T.);
#182=CLOSED_SHELL('',(#170,#171,#172,#173,#174,#175,#176,#177,#178,#179,
#180,#181));
#183=DERIVED_UNIT_ELEMENT(#186,1.);
#184=DERIVED_UNIT_ELEMENT(#329,-3.);
#185=DIMENSIONAL_EXPONENTS(0.,1.,0.,0.,0.,0.,0.);
#186=(
CONVERSION_BASED_UNIT('gram',#188)
MASS_UNIT()
NAMED_UNIT(#185)
);
#187=(
MASS_UNIT()
NAMED_UNIT(*)
SI_UNIT(.KILO.,.GRAM.)
);
#188=MASS_MEASURE_WITH_UNIT(MASS_MEASURE(0.001),#187);
#189=DERIVED_UNIT((#183,#184));
#190=MEASURE_REPRESENTATION_ITEM('density measure',
POSITIVE_RATIO_MEASURE(8.),#189);
#191=PROPERTY_DEFINITION_REPRESENTATION(#196,#193);
#192=PROPERTY_DEFINITION_REPRESENTATION(#197,#194);
#193=REPRESENTATION('material name',(#195),#326);
#194=REPRESENTATION('density',(#190),#326);
#195=DESCRIPTIVE_REPRESENTATION_ITEM('Stainless Steel',
'Stainless Steel');
#196=PROPERTY_DEFINITION('material property','material name',#336);
#197=PROPERTY_DEFINITION('material property','density of part',#336);
#198=DATE_TIME_ROLE('creation_date');
#199=APPLIED_DATE_AND_TIME_ASSIGNMENT(#200,#198,(#336));
#200=DATE_AND_TIME(#201,#202);
#201=CALENDAR_DATE(2026,7,4);
#202=LOCAL_TIME(0,0,0.,#203);
#203=COORDINATED_UNIVERSAL_TIME_OFFSET(0,0,.BEHIND.);
#204=AXIS2_PLACEMENT_3D('',#276,#223,#224);
#205=AXIS2_PLACEMENT_3D('',#277,#225,#226);
#206=AXIS2_PLACEMENT_3D('',#279,#227,#228);
#207=AXIS2_PLACEMENT_3D('',#282,#230,#231);
#208=AXIS2_PLACEMENT_3D('',#283,#232,#233);
#209=AXIS2_PLACEMENT_3D('',#285,#234,#235);
#210=AXIS2_PLACEMENT_3D('',#286,#236,#237);
#211=AXIS2_PLACEMENT_3D('',#288,#238,#239);
#212=AXIS2_PLACEMENT_3D('',#291,#241,#242);
#213=AXIS2_PLACEMENT_3D('',#292,#243,#244);
#214=AXIS2_PLACEMENT_3D('',#293,#245,#246);
#215=AXIS2_PLACEMENT_3D('',#302,#251,#252);
#216=AXIS2_PLACEMENT_3D('',#308,#256,#257);
#217=AXIS2_PLACEMENT_3D('',#314,#261,#262);
#218=AXIS2_PLACEMENT_3D('',#317,#265,#266);
#219=AXIS2_PLACEMENT_3D('',#318,#267,#268);
#220=AXIS2_PLACEMENT_3D('',#319,#269,#270);
#221=AXIS2_PLACEMENT_3D('',#321,#271,#272);
#222=AXIS2_PLACEMENT_3D('',#323,#274,#275);
#223=DIRECTION('axis',(0.,0.,1.));
#224=DIRECTION('refdir',(1.,0.,0.));
#225=DIRECTION('center_axis',(-1.,0.,0.));
#226=DIRECTION('ref_axis',(0.,0.,-1.));
#227=DIRECTION('center_axis',(-1.,0.,0.));
#228=DIRECTION('ref_axis',(0.,0.,-1.));
#229=DIRECTION('',(-1.,0.,0.));
#230=DIRECTION('center_axis',(-1.,0.,0.));
#231=DIRECTION('ref_axis',(0.,0.,-1.));
#232=DIRECTION('center_axis',(1.,0.,0.));
#233=DIRECTION('ref_axis',(0.,0.,-1.));
#234=DIRECTION('center_axis',(-1.,0.,0.));
#235=DIRECTION('ref_axis',(0.,0.,1.));
#236=DIRECTION('center_axis',(1.,0.,0.));
#237=DIRECTION('ref_axis',(0.,0.,-1.));
#238=DIRECTION('center_axis',(1.,0.,0.));
#239=DIRECTION('ref_axis',(0.,0.,-1.));
#240=DIRECTION('',(-1.,0.,0.));
#241=DIRECTION('center_axis',(-1.,0.,0.));
#242=DIRECTION('ref_axis',(0.,0.,-1.));
#243=DIRECTION('center_axis',(1.,0.,0.));
#244=DIRECTION('ref_axis',(0.,0.,-1.));
#245=DIRECTION('center_axis',(0.,0.,1.));
#246=DIRECTION('ref_axis',(0.,-1.,0.));
#247=DIRECTION('',(0.,-1.,0.));
#248=DIRECTION('',(1.,0.,0.));
#249=DIRECTION('',(0.,-1.,0.));
#250=DIRECTION('',(1.,0.,0.));
#251=DIRECTION('center_axis',(0.,1.,0.));
#252=DIRECTION('ref_axis',(0.,0.,1.));
#253=DIRECTION('',(0.,0.,1.));
#254=DIRECTION('',(0.,0.,1.));
#255=DIRECTION('',(1.,0.,0.));
#256=DIRECTION('center_axis',(0.,0.,-1.));
#257=DIRECTION('ref_axis',(0.,1.,0.));
#258=DIRECTION('',(0.,1.,0.));
#259=DIRECTION('',(0.,1.,0.));
#260=DIRECTION('',(1.,0.,0.));
#261=DIRECTION('center_axis',(0.,-1.,0.));
#262=DIRECTION('ref_axis',(0.,0.,-1.));
#263=DIRECTION('',(0.,0.,-1.));
#264=DIRECTION('',(0.,0.,-1.));
#265=DIRECTION('center_axis',(1.,0.,0.));
#266=DIRECTION('ref_axis',(0.,0.,-1.));
#267=DIRECTION('center_axis',(1.,0.,0.));
#268=DIRECTION('ref_axis',(0.,0.,-1.));
#269=DIRECTION('center_axis',(1.,0.,0.));
#270=DIRECTION('ref_axis',(0.,0.,-1.));
#271=DIRECTION('center_axis',(1.,0.,0.));
#272=DIRECTION('ref_axis',(0.,0.,-1.));
#273=DIRECTION('',(-1.,0.,0.));
#274=DIRECTION('center_axis',(1.,0.,0.));
#275=DIRECTION('ref_axis',(0.,0.,-1.));
#276=CARTESIAN_POINT('',(0.,0.,0.));
#277=CARTESIAN_POINT('Origin',(21.3,0.,0.));
#278=CARTESIAN_POINT('',(21.3,2.75545529808155E-16,2.25));
#279=CARTESIAN_POINT('Origin',(21.3,0.,0.));
#280=CARTESIAN_POINT('',(12.3,2.75545529808155E-16,2.25));
#281=CARTESIAN_POINT('',(21.3,2.75545529808155E-16,2.25));
#282=CARTESIAN_POINT('Origin',(12.3,0.,0.));
#283=CARTESIAN_POINT('Origin',(12.3,0.,0.));
#284=CARTESIAN_POINT('',(12.3,-1.83697019872103E-16,1.5));
#285=CARTESIAN_POINT('Origin',(12.3,0.,0.));
#286=CARTESIAN_POINT('Origin',(12.3,0.,0.));
#287=CARTESIAN_POINT('',(21.3,-3.88825358729285E-16,3.175));
#288=CARTESIAN_POINT('Origin',(21.3,0.,0.));
#289=CARTESIAN_POINT('',(12.3,-3.88825358729285E-16,3.175));
#290=CARTESIAN_POINT('',(12.3,-3.88825358729285E-16,3.175));
#291=CARTESIAN_POINT('Origin',(12.3,0.,0.));
#292=CARTESIAN_POINT('Origin',(21.3,0.,0.));
#293=CARTESIAN_POINT('Origin',(0.,6.6,3.5));
#294=CARTESIAN_POINT('',(0.,6.6,3.5));
#295=CARTESIAN_POINT('',(0.,-6.6,3.5));
#296=CARTESIAN_POINT('',(0.,6.6,3.5));
#297=CARTESIAN_POINT('',(12.3,-6.6,3.5));
#298=CARTESIAN_POINT('',(0.,-6.6,3.5));
#299=CARTESIAN_POINT('',(12.3,6.6,3.5));
#300=CARTESIAN_POINT('',(12.3,6.6,3.5));
#301=CARTESIAN_POINT('',(0.,6.6,3.5));
#302=CARTESIAN_POINT('Origin',(0.,6.6,-3.5));
#303=CARTESIAN_POINT('',(0.,6.6,-3.5));
#304=CARTESIAN_POINT('',(0.,6.6,-3.5));
#305=CARTESIAN_POINT('',(12.3,6.6,-3.5));
#306=CARTESIAN_POINT('',(12.3,6.6,-3.5));
#307=CARTESIAN_POINT('',(0.,6.6,-3.5));
#308=CARTESIAN_POINT('Origin',(0.,-6.6,-3.5));
#309=CARTESIAN_POINT('',(0.,-6.6,-3.5));
#310=CARTESIAN_POINT('',(0.,-6.6,-3.5));
#311=CARTESIAN_POINT('',(12.3,-6.6,-3.5));
#312=CARTESIAN_POINT('',(12.3,-6.6,-3.5));
#313=CARTESIAN_POINT('',(0.,-6.6,-3.5));
#314=CARTESIAN_POINT('Origin',(0.,-6.6,3.5));
#315=CARTESIAN_POINT('',(0.,-6.6,3.5));
#316=CARTESIAN_POINT('',(12.3,-6.6,3.5));
#317=CARTESIAN_POINT('Origin',(12.3,0.,0.));
#318=CARTESIAN_POINT('Origin',(0.,0.,0.));
#319=CARTESIAN_POINT('Origin',(21.3,0.,0.));
#320=CARTESIAN_POINT('',(31.8,-1.83697019872103E-16,1.5));
#321=CARTESIAN_POINT('Origin',(31.8,0.,0.));
#322=CARTESIAN_POINT('',(21.3,-1.83697019872103E-16,1.5));
#323=CARTESIAN_POINT('Origin',(31.8,0.,0.));
#324=UNCERTAINTY_MEASURE_WITH_UNIT(LENGTH_MEASURE(0.01),#328,
'DISTANCE_ACCURACY_VALUE',
'Maximum model space distance between geometric entities at asserted c
onnectivities');
#325=UNCERTAINTY_MEASURE_WITH_UNIT(LENGTH_MEASURE(0.01),#328,
'DISTANCE_ACCURACY_VALUE',
'Maximum model space distance between geometric entities at asserted c
onnectivities');
#326=(
GEOMETRIC_REPRESENTATION_CONTEXT(3)
GLOBAL_UNCERTAINTY_ASSIGNED_CONTEXT((#324))
GLOBAL_UNIT_ASSIGNED_CONTEXT((#328,#330,#331))
REPRESENTATION_CONTEXT('','3D')
);
#327=(
GEOMETRIC_REPRESENTATION_CONTEXT(3)
GLOBAL_UNCERTAINTY_ASSIGNED_CONTEXT((#325))
GLOBAL_UNIT_ASSIGNED_CONTEXT((#328,#330,#331))
REPRESENTATION_CONTEXT('','3D')
);
#328=(
LENGTH_UNIT()
NAMED_UNIT(*)
SI_UNIT(.MILLI.,.METRE.)
);
#329=(
LENGTH_UNIT()
NAMED_UNIT(*)
SI_UNIT(.CENTI.,.METRE.)
);
#330=(
NAMED_UNIT(*)
PLANE_ANGLE_UNIT()
SI_UNIT($,.RADIAN.)
);
#331=(
NAMED_UNIT(*)
SI_UNIT($,.STERADIAN.)
SOLID_ANGLE_UNIT()
);
#332=SHAPE_DEFINITION_REPRESENTATION(#333,#334);
#333=PRODUCT_DEFINITION_SHAPE('',$,#336);
#334=SHAPE_REPRESENTATION('',(#204),#326);
#335=PRODUCT_DEFINITION_CONTEXT('part definition',#340,'design');
#336=PRODUCT_DEFINITION('APEM_5236CDB','APEM_5236CDB',#337,#335);
#337=PRODUCT_DEFINITION_FORMATION('',$,#342);
#338=PRODUCT_RELATED_PRODUCT_CATEGORY('APEM_5236CDB','APEM_5236CDB',(#342));
#339=APPLICATION_PROTOCOL_DEFINITION('international standard',
'automotive_design',2009,#340);
#340=APPLICATION_CONTEXT(
'Core Data for Automotive Mechanical Design Process');
#341=PRODUCT_CONTEXT('part definition',#340,'mechanical');
#342=PRODUCT('APEM_5236CDB','APEM_5236CDB',$,(#341));
#343=PRESENTATION_STYLE_ASSIGNMENT((#344));
#344=SURFACE_STYLE_USAGE(.BOTH.,#347);
#345=SURFACE_STYLE_RENDERING_WITH_PROPERTIES($,#351,(#346));
#346=SURFACE_STYLE_TRANSPARENT(0.);
#347=SURFACE_SIDE_STYLE('',(#348,#345));
#348=SURFACE_STYLE_FILL_AREA(#349);
#349=FILL_AREA_STYLE('',(#350));
#350=FILL_AREA_STYLE_COLOUR('',#351);
#351=COLOUR_RGB('',0.745098039215686,0.737254901960784,0.729411764705882);
ENDSEC;
END-ISO-10303-21;
