ISO-10303-21;
HEADER;
/* Generated by software containing ST-Developer
 * from STEP Tools, Inc. (www.steptools.com) 
 */

FILE_DESCRIPTION(
/* description */ (''),
/* implementation_level */ '2;1');

FILE_NAME(
/* name */ 'NKK_S1AL_mother.stp',
/* time_stamp */ '2026-05-10T22:04:32+02:00',
/* author */ ('schar'),
/* organization */ (''),
/* preprocessor_version */ 'ST-DEVELOPER v19.2',
/* originating_system */ 'Autodesk Inventor 2024',
/* authorisation */ '');

FILE_SCHEMA (('AUTOMOTIVE_DESIGN { 1 0 10303 214 3 1 1 }'));
ENDSEC;

DATA;
#10=MECHANICAL_DESIGN_GEOMETRIC_PRESENTATION_REPRESENTATION('',(#13),#297);
#11=SHAPE_REPRESENTATION_RELATIONSHIP('SRR','None',#304,#12);
#12=ADVANCED_BREP_SHAPE_REPRESENTATION('',(#14),#296);
#13=STYLED_ITEM('',(#313),#14);
#14=MANIFOLD_SOLID_BREP('Solid1',#172);
#15=FACE_BOUND('',#42,.T.);
#16=FACE_BOUND('',#44,.T.);
#17=PLANE('',#198);
#18=PLANE('',#199);
#19=PLANE('',#200);
#20=PLANE('',#201);
#21=PLANE('',#202);
#22=PLANE('',#203);
#23=PLANE('',#204);
#24=PLANE('',#205);
#25=FACE_OUTER_BOUND('',#34,.T.);
#26=FACE_OUTER_BOUND('',#35,.T.);
#27=FACE_OUTER_BOUND('',#36,.T.);
#28=FACE_OUTER_BOUND('',#37,.T.);
#29=FACE_OUTER_BOUND('',#38,.T.);
#30=FACE_OUTER_BOUND('',#39,.T.);
#31=FACE_OUTER_BOUND('',#40,.T.);
#32=FACE_OUTER_BOUND('',#41,.T.);
#33=FACE_OUTER_BOUND('',#43,.T.);
#34=EDGE_LOOP('',(#120,#121,#122,#123));
#35=EDGE_LOOP('',(#124,#125,#126,#127));
#36=EDGE_LOOP('',(#128,#129,#130,#131));
#37=EDGE_LOOP('',(#132,#133,#134,#135));
#38=EDGE_LOOP('',(#136,#137,#138,#139));
#39=EDGE_LOOP('',(#140,#141,#142,#143));
#40=EDGE_LOOP('',(#144,#145,#146,#147));
#41=EDGE_LOOP('',(#148,#149,#150,#151,#152,#153));
#42=EDGE_LOOP('',(#154));
#43=EDGE_LOOP('',(#155,#156,#157,#158,#159,#160));
#44=EDGE_LOOP('',(#161));
#45=LINE('',#254,#64);
#46=LINE('',#259,#65);
#47=LINE('',#261,#66);
#48=LINE('',#263,#67);
#49=LINE('',#264,#68);
#50=LINE('',#267,#69);
#51=LINE('',#269,#70);
#52=LINE('',#270,#71);
#53=LINE('',#273,#72);
#54=LINE('',#275,#73);
#55=LINE('',#276,#74);
#56=LINE('',#279,#75);
#57=LINE('',#281,#76);
#58=LINE('',#282,#77);
#59=LINE('',#285,#78);
#60=LINE('',#287,#79);
#61=LINE('',#288,#80);
#62=LINE('',#290,#81);
#63=LINE('',#291,#82);
#64=VECTOR('',#212,5.99999999999999);
#65=VECTOR('',#217,10.);
#66=VECTOR('',#218,10.);
#67=VECTOR('',#219,10.);
#68=VECTOR('',#220,10.);
#69=VECTOR('',#223,10.);
#70=VECTOR('',#224,10.);
#71=VECTOR('',#225,10.);
#72=VECTOR('',#228,10.);
#73=VECTOR('',#229,10.);
#74=VECTOR('',#230,10.);
#75=VECTOR('',#233,10.);
#76=VECTOR('',#234,10.);
#77=VECTOR('',#235,10.);
#78=VECTOR('',#238,10.);
#79=VECTOR('',#239,10.);
#80=VECTOR('',#240,10.);
#81=VECTOR('',#243,10.);
#82=VECTOR('',#244,10.);
#83=CIRCLE('',#196,5.99999999999999);
#84=CIRCLE('',#197,5.99999999999999);
#85=VERTEX_POINT('',#251);
#86=VERTEX_POINT('',#253);
#87=VERTEX_POINT('',#257);
#88=VERTEX_POINT('',#258);
#89=VERTEX_POINT('',#260);
#90=VERTEX_POINT('',#262);
#91=VERTEX_POINT('',#266);
#92=VERTEX_POINT('',#268);
#93=VERTEX_POINT('',#272);
#94=VERTEX_POINT('',#274);
#95=VERTEX_POINT('',#278);
#96=VERTEX_POINT('',#280);
#97=VERTEX_POINT('',#284);
#98=VERTEX_POINT('',#286);
#99=EDGE_CURVE('',#85,#85,#83,.T.);
#100=EDGE_CURVE('',#85,#86,#45,.T.);
#101=EDGE_CURVE('',#86,#86,#84,.T.);
#102=EDGE_CURVE('',#87,#88,#46,.T.);
#103=EDGE_CURVE('',#88,#89,#47,.T.);
#104=EDGE_CURVE('',#90,#89,#48,.T.);
#105=EDGE_CURVE('',#87,#90,#49,.T.);
#106=EDGE_CURVE('',#91,#87,#50,.T.);
#107=EDGE_CURVE('',#92,#90,#51,.T.);
#108=EDGE_CURVE('',#91,#92,#52,.T.);
#109=EDGE_CURVE('',#93,#91,#53,.T.);
#110=EDGE_CURVE('',#94,#92,#54,.T.);
#111=EDGE_CURVE('',#93,#94,#55,.T.);
#112=EDGE_CURVE('',#95,#93,#56,.T.);
#113=EDGE_CURVE('',#96,#94,#57,.T.);
#114=EDGE_CURVE('',#95,#96,#58,.T.);
#115=EDGE_CURVE('',#97,#95,#59,.T.);
#116=EDGE_CURVE('',#98,#96,#60,.T.);
#117=EDGE_CURVE('',#97,#98,#61,.T.);
#118=EDGE_CURVE('',#88,#97,#62,.T.);
#119=EDGE_CURVE('',#89,#98,#63,.T.);
#120=ORIENTED_EDGE('',*,*,#99,.F.);
#121=ORIENTED_EDGE('',*,*,#100,.T.);
#122=ORIENTED_EDGE('',*,*,#101,.T.);
#123=ORIENTED_EDGE('',*,*,#100,.F.);
#124=ORIENTED_EDGE('',*,*,#102,.T.);
#125=ORIENTED_EDGE('',*,*,#103,.T.);
#126=ORIENTED_EDGE('',*,*,#104,.F.);
#127=ORIENTED_EDGE('',*,*,#105,.F.);
#128=ORIENTED_EDGE('',*,*,#106,.T.);
#129=ORIENTED_EDGE('',*,*,#105,.T.);
#130=ORIENTED_EDGE('',*,*,#107,.F.);
#131=ORIENTED_EDGE('',*,*,#108,.F.);
#132=ORIENTED_EDGE('',*,*,#109,.T.);
#133=ORIENTED_EDGE('',*,*,#108,.T.);
#134=ORIENTED_EDGE('',*,*,#110,.F.);
#135=ORIENTED_EDGE('',*,*,#111,.F.);
#136=ORIENTED_EDGE('',*,*,#112,.T.);
#137=ORIENTED_EDGE('',*,*,#111,.T.);
#138=ORIENTED_EDGE('',*,*,#113,.F.);
#139=ORIENTED_EDGE('',*,*,#114,.F.);
#140=ORIENTED_EDGE('',*,*,#115,.T.);
#141=ORIENTED_EDGE('',*,*,#114,.T.);
#142=ORIENTED_EDGE('',*,*,#116,.F.);
#143=ORIENTED_EDGE('',*,*,#117,.F.);
#144=ORIENTED_EDGE('',*,*,#118,.T.);
#145=ORIENTED_EDGE('',*,*,#117,.T.);
#146=ORIENTED_EDGE('',*,*,#119,.F.);
#147=ORIENTED_EDGE('',*,*,#103,.F.);
#148=ORIENTED_EDGE('',*,*,#119,.T.);
#149=ORIENTED_EDGE('',*,*,#116,.T.);
#150=ORIENTED_EDGE('',*,*,#113,.T.);
#151=ORIENTED_EDGE('',*,*,#110,.T.);
#152=ORIENTED_EDGE('',*,*,#107,.T.);
#153=ORIENTED_EDGE('',*,*,#104,.T.);
#154=ORIENTED_EDGE('',*,*,#99,.T.);
#155=ORIENTED_EDGE('',*,*,#118,.F.);
#156=ORIENTED_EDGE('',*,*,#102,.F.);
#157=ORIENTED_EDGE('',*,*,#106,.F.);
#158=ORIENTED_EDGE('',*,*,#109,.F.);
#159=ORIENTED_EDGE('',*,*,#112,.F.);
#160=ORIENTED_EDGE('',*,*,#115,.F.);
#161=ORIENTED_EDGE('',*,*,#101,.F.);
#162=CYLINDRICAL_SURFACE('',#195,5.99999999999999);
#163=ADVANCED_FACE('',(#25),#162,.F.);
#164=ADVANCED_FACE('',(#26),#17,.T.);
#165=ADVANCED_FACE('',(#27),#18,.T.);
#166=ADVANCED_FACE('',(#28),#19,.T.);
#167=ADVANCED_FACE('',(#29),#20,.T.);
#168=ADVANCED_FACE('',(#30),#21,.T.);
#169=ADVANCED_FACE('',(#31),#22,.T.);
#170=ADVANCED_FACE('',(#32,#15),#23,.T.);
#171=ADVANCED_FACE('',(#33,#16),#24,.F.);
#172=CLOSED_SHELL('',(#163,#164,#165,#166,#167,#168,#169,#170,#171));
#173=DERIVED_UNIT_ELEMENT(#176,1.);
#174=DERIVED_UNIT_ELEMENT(#299,-3.);
#175=DIMENSIONAL_EXPONENTS(0.,1.,0.,0.,0.,0.,0.);
#176=(
CONVERSION_BASED_UNIT('gram',#178)
MASS_UNIT()
NAMED_UNIT(#175)
);
#177=(
MASS_UNIT()
NAMED_UNIT(*)
SI_UNIT(.KILO.,.GRAM.)
);
#178=MASS_MEASURE_WITH_UNIT(MASS_MEASURE(0.001),#177);
#179=DERIVED_UNIT((#173,#174));
#180=MEASURE_REPRESENTATION_ITEM('density measure',
POSITIVE_RATIO_MEASURE(8.),#179);
#181=PROPERTY_DEFINITION_REPRESENTATION(#186,#183);
#182=PROPERTY_DEFINITION_REPRESENTATION(#187,#184);
#183=REPRESENTATION('material name',(#185),#296);
#184=REPRESENTATION('density',(#180),#296);
#185=DESCRIPTIVE_REPRESENTATION_ITEM('Stainless Steel',
'Stainless Steel');
#186=PROPERTY_DEFINITION('material property','material name',#306);
#187=PROPERTY_DEFINITION('material property','density of part',#306);
#188=DATE_TIME_ROLE('creation_date');
#189=APPLIED_DATE_AND_TIME_ASSIGNMENT(#190,#188,(#306));
#190=DATE_AND_TIME(#191,#192);
#191=CALENDAR_DATE(2026,8,5);
#192=LOCAL_TIME(0,0,0.,#193);
#193=COORDINATED_UNIVERSAL_TIME_OFFSET(0,0,.BEHIND.);
#194=AXIS2_PLACEMENT_3D('',#249,#206,#207);
#195=AXIS2_PLACEMENT_3D('',#250,#208,#209);
#196=AXIS2_PLACEMENT_3D('',#252,#210,#211);
#197=AXIS2_PLACEMENT_3D('',#255,#213,#214);
#198=AXIS2_PLACEMENT_3D('',#256,#215,#216);
#199=AXIS2_PLACEMENT_3D('',#265,#221,#222);
#200=AXIS2_PLACEMENT_3D('',#271,#226,#227);
#201=AXIS2_PLACEMENT_3D('',#277,#231,#232);
#202=AXIS2_PLACEMENT_3D('',#283,#236,#237);
#203=AXIS2_PLACEMENT_3D('',#289,#241,#242);
#204=AXIS2_PLACEMENT_3D('',#292,#245,#246);
#205=AXIS2_PLACEMENT_3D('',#293,#247,#248);
#206=DIRECTION('axis',(0.,0.,1.));
#207=DIRECTION('refdir',(1.,0.,0.));
#208=DIRECTION('center_axis',(0.,0.,1.));
#209=DIRECTION('ref_axis',(-1.,0.,0.));
#210=DIRECTION('center_axis',(0.,0.,-1.));
#211=DIRECTION('ref_axis',(-1.,0.,0.));
#212=DIRECTION('',(0.,0.,-1.));
#213=DIRECTION('center_axis',(0.,0.,-1.));
#214=DIRECTION('ref_axis',(-1.,0.,0.));
#215=DIRECTION('center_axis',(0.866025403784438,0.5,0.));
#216=DIRECTION('ref_axis',(-0.5,0.866025403784438,0.));
#217=DIRECTION('',(-0.5,0.866025403784438,0.));
#218=DIRECTION('',(0.,0.,1.));
#219=DIRECTION('',(-0.5,0.866025403784438,0.));
#220=DIRECTION('',(0.,0.,1.));
#221=DIRECTION('center_axis',(0.866025403784439,-0.5,0.));
#222=DIRECTION('ref_axis',(0.5,0.866025403784439,0.));
#223=DIRECTION('',(0.5,0.866025403784439,0.));
#224=DIRECTION('',(0.5,0.866025403784439,0.));
#225=DIRECTION('',(0.,0.,1.));
#226=DIRECTION('center_axis',(2.46989236343899E-16,-1.,0.));
#227=DIRECTION('ref_axis',(1.,2.46989236343899E-16,0.));
#228=DIRECTION('',(1.,2.46989236343899E-16,0.));
#229=DIRECTION('',(1.,2.46989236343899E-16,0.));
#230=DIRECTION('',(0.,0.,1.));
#231=DIRECTION('center_axis',(-0.866025403784438,-0.500000000000001,0.));
#232=DIRECTION('ref_axis',(0.500000000000001,-0.866025403784438,0.));
#233=DIRECTION('',(0.500000000000001,-0.866025403784438,0.));
#234=DIRECTION('',(0.500000000000001,-0.866025403784438,0.));
#235=DIRECTION('',(0.,0.,1.));
#236=DIRECTION('center_axis',(-0.866025403784439,0.5,0.));
#237=DIRECTION('ref_axis',(-0.5,-0.866025403784439,0.));
#238=DIRECTION('',(-0.5,-0.866025403784439,0.));
#239=DIRECTION('',(-0.5,-0.866025403784439,0.));
#240=DIRECTION('',(0.,0.,1.));
#241=DIRECTION('center_axis',(-7.40967709031697E-16,1.,0.));
#242=DIRECTION('ref_axis',(-1.,-7.40967709031697E-16,0.));
#243=DIRECTION('',(-1.,-7.40967709031697E-16,0.));
#244=DIRECTION('',(-1.,-7.40967709031697E-16,0.));
#245=DIRECTION('center_axis',(0.,0.,1.));
#246=DIRECTION('ref_axis',(1.,0.,0.));
#247=DIRECTION('center_axis',(0.,0.,1.));
#248=DIRECTION('ref_axis',(1.,0.,0.));
#249=CARTESIAN_POINT('',(0.,0.,0.));
#250=CARTESIAN_POINT('Origin',(-36.2,-3.38618022510673E-14,0.));
#251=CARTESIAN_POINT('',(-30.2,-3.33066907387547E-14,2.));
#252=CARTESIAN_POINT('Origin',(-36.2,-3.38618022510673E-14,2.));
#253=CARTESIAN_POINT('',(-30.2,-3.31270141715789E-14,0.));
#254=CARTESIAN_POINT('',(-30.2,-3.31270141715789E-14,0.));
#255=CARTESIAN_POINT('Origin',(-36.2,-3.38618022510673E-14,0.));
#256=CARTESIAN_POINT('Origin',(-27.2099481170967,-3.37230243729891E-14,
0.));
#257=CARTESIAN_POINT('',(-27.2099481170967,-3.38618022510673E-14,0.));
#258=CARTESIAN_POINT('',(-31.7049740585483,7.78561331193434,0.));
#259=CARTESIAN_POINT('',(-27.2099481170967,-3.33066907387547E-14,0.));
#260=CARTESIAN_POINT('',(-31.7049740585483,7.78561331193434,2.));
#261=CARTESIAN_POINT('',(-31.7049740585483,7.78561331193434,0.));
#262=CARTESIAN_POINT('',(-27.2099481170967,-3.33066907387547E-14,2.));
#263=CARTESIAN_POINT('',(-27.2099481170967,-3.33066907387547E-14,2.));
#264=CARTESIAN_POINT('',(-27.2099481170967,-3.38618022510673E-14,0.));
#265=CARTESIAN_POINT('Origin',(-31.7049740585483,-7.7856133119344,0.));
#266=CARTESIAN_POINT('',(-31.7049740585483,-7.7856133119344,0.));
#267=CARTESIAN_POINT('',(-31.7049740585483,-7.7856133119344,0.));
#268=CARTESIAN_POINT('',(-31.7049740585483,-7.7856133119344,2.));
#269=CARTESIAN_POINT('',(-31.7049740585483,-7.7856133119344,2.));
#270=CARTESIAN_POINT('',(-31.7049740585483,-7.7856133119344,0.));
#271=CARTESIAN_POINT('Origin',(-40.6950259414516,-7.78561331193441,0.));
#272=CARTESIAN_POINT('',(-40.6950259414516,-7.78561331193441,0.));
#273=CARTESIAN_POINT('',(-40.6950259414516,-7.78561331193441,0.));
#274=CARTESIAN_POINT('',(-40.6950259414516,-7.78561331193441,2.));
#275=CARTESIAN_POINT('',(-40.6950259414516,-7.78561331193441,2.));
#276=CARTESIAN_POINT('',(-40.6950259414516,-7.78561331193441,0.));
#277=CARTESIAN_POINT('Origin',(-45.1900518829032,-3.48263029988379E-14,
0.));
#278=CARTESIAN_POINT('',(-45.1900518829032,-3.49627660773239E-14,0.));
#279=CARTESIAN_POINT('',(-45.1900518829032,-3.44169137633799E-14,0.));
#280=CARTESIAN_POINT('',(-45.1900518829032,-3.44169137633799E-14,2.));
#281=CARTESIAN_POINT('',(-45.1900518829032,-3.44169137633799E-14,2.));
#282=CARTESIAN_POINT('',(-45.1900518829032,-3.49627660773239E-14,0.));
#283=CARTESIAN_POINT('Origin',(-40.6950259414516,7.78561331193433,0.));
#284=CARTESIAN_POINT('',(-40.6950259414516,7.78561331193433,0.));
#285=CARTESIAN_POINT('',(-40.6950259414516,7.78561331193433,0.));
#286=CARTESIAN_POINT('',(-40.6950259414516,7.78561331193433,2.));
#287=CARTESIAN_POINT('',(-40.6950259414516,7.78561331193433,2.));
#288=CARTESIAN_POINT('',(-40.6950259414516,7.78561331193433,0.));
#289=CARTESIAN_POINT('Origin',(-31.7049740585483,7.78561331193434,0.));
#290=CARTESIAN_POINT('',(-31.7049740585483,7.78561331193434,0.));
#291=CARTESIAN_POINT('',(-31.7049740585483,7.78561331193434,2.));
#292=CARTESIAN_POINT('Origin',(-36.2,-3.1641356201817E-14,2.));
#293=CARTESIAN_POINT('Origin',(-36.2,-3.1641356201817E-14,0.));
#294=UNCERTAINTY_MEASURE_WITH_UNIT(LENGTH_MEASURE(0.01),#298,
'DISTANCE_ACCURACY_VALUE',
'Maximum model space distance between geometric entities at asserted c
onnectivities');
#295=UNCERTAINTY_MEASURE_WITH_UNIT(LENGTH_MEASURE(0.01),#298,
'DISTANCE_ACCURACY_VALUE',
'Maximum model space distance between geometric entities at asserted c
onnectivities');
#296=(
GEOMETRIC_REPRESENTATION_CONTEXT(3)
GLOBAL_UNCERTAINTY_ASSIGNED_CONTEXT((#294))
GLOBAL_UNIT_ASSIGNED_CONTEXT((#298,#300,#301))
REPRESENTATION_CONTEXT('','3D')
);
#297=(
GEOMETRIC_REPRESENTATION_CONTEXT(3)
GLOBAL_UNCERTAINTY_ASSIGNED_CONTEXT((#295))
GLOBAL_UNIT_ASSIGNED_CONTEXT((#298,#300,#301))
REPRESENTATION_CONTEXT('','3D')
);
#298=(
LENGTH_UNIT()
NAMED_UNIT(*)
SI_UNIT(.MILLI.,.METRE.)
);
#299=(
LENGTH_UNIT()
NAMED_UNIT(*)
SI_UNIT(.CENTI.,.METRE.)
);
#300=(
NAMED_UNIT(*)
PLANE_ANGLE_UNIT()
SI_UNIT($,.RADIAN.)
);
#301=(
NAMED_UNIT(*)
SI_UNIT($,.STERADIAN.)
SOLID_ANGLE_UNIT()
);
#302=SHAPE_DEFINITION_REPRESENTATION(#303,#304);
#303=PRODUCT_DEFINITION_SHAPE('',$,#306);
#304=SHAPE_REPRESENTATION('',(#194),#296);
#305=PRODUCT_DEFINITION_CONTEXT('part definition',#310,'design');
#306=PRODUCT_DEFINITION('NKK_S1AL_mother','NKK_S1AL_mother',#307,#305);
#307=PRODUCT_DEFINITION_FORMATION('',$,#312);
#308=PRODUCT_RELATED_PRODUCT_CATEGORY('NKK_S1AL_mother',
'NKK_S1AL_mother',(#312));
#309=APPLICATION_PROTOCOL_DEFINITION('international standard',
'automotive_design',2009,#310);
#310=APPLICATION_CONTEXT(
'Core Data for Automotive Mechanical Design Process');
#311=PRODUCT_CONTEXT('part definition',#310,'mechanical');
#312=PRODUCT('NKK_S1AL_mother','NKK_S1AL_mother',$,(#311));
#313=PRESENTATION_STYLE_ASSIGNMENT((#314));
#314=SURFACE_STYLE_USAGE(.BOTH.,#317);
#315=SURFACE_STYLE_RENDERING_WITH_PROPERTIES($,#321,(#316));
#316=SURFACE_STYLE_TRANSPARENT(0.);
#317=SURFACE_SIDE_STYLE('',(#318,#315));
#318=SURFACE_STYLE_FILL_AREA(#319);
#319=FILL_AREA_STYLE('',(#320));
#320=FILL_AREA_STYLE_COLOUR('',#321);
#321=COLOUR_RGB('',0.745098039215686,0.737254901960784,0.729411764705882);
ENDSEC;
END-ISO-10303-21;
