ISO-10303-21;
HEADER;
/* Generated by software containing ST-Developer
 * from STEP Tools, Inc. (www.steptools.com) 
 */

FILE_DESCRIPTION(
/* description */ (''),
/* implementation_level */ '2;1');

FILE_NAME(
/* name */ 'NKK_S1AL.stp',
/* time_stamp */ '2026-05-10T22:04:08+02:00',
/* author */ ('schar'),
/* organization */ (''),
/* preprocessor_version */ 'ST-DEVELOPER v19.2',
/* originating_system */ 'Autodesk Inventor 2024',
/* authorisation */ '');

FILE_SCHEMA (('AUTOMOTIVE_DESIGN { 1 0 10303 214 3 1 1 }'));
ENDSEC;

DATA;
#10=MECHANICAL_DESIGN_GEOMETRIC_PRESENTATION_REPRESENTATION('',(#17),#358);
#11=GEOMETRICALLY_BOUNDED_WIREFRAME_SHAPE_REPRESENTATION('',(#12,#13),#357);
#12=GEOMETRIC_CURVE_SET('Sketch1',(#353));
#13=GEOMETRIC_CURVE_SET('Sketch6',(#354));
#14=SHAPE_REPRESENTATION_RELATIONSHIP('SRR','None',#365,#16);
#15=SHAPE_REPRESENTATION_RELATIONSHIP('SRR','None',#365,#11);
#16=ADVANCED_BREP_SHAPE_REPRESENTATION('',(#18),#357);
#17=STYLED_ITEM('',(#374),#18);
#18=MANIFOLD_SOLID_BREP('Solid1',#199);
#19=FACE_BOUND('',#49,.T.);
#20=FACE_BOUND('',#51,.T.);
#21=CYLINDRICAL_SURFACE('',#230,6.);
#22=CYLINDRICAL_SURFACE('',#232,8.5);
#23=PLANE('',#226);
#24=PLANE('',#235);
#25=PLANE('',#236);
#26=PLANE('',#237);
#27=PLANE('',#238);
#28=PLANE('',#239);
#29=PLANE('',#240);
#30=PLANE('',#241);
#31=FACE_OUTER_BOUND('',#43,.T.);
#32=FACE_OUTER_BOUND('',#44,.T.);
#33=FACE_OUTER_BOUND('',#45,.T.);
#34=FACE_OUTER_BOUND('',#46,.T.);
#35=FACE_OUTER_BOUND('',#47,.T.);
#36=FACE_OUTER_BOUND('',#48,.T.);
#37=FACE_OUTER_BOUND('',#50,.T.);
#38=FACE_OUTER_BOUND('',#52,.T.);
#39=FACE_OUTER_BOUND('',#53,.T.);
#40=FACE_OUTER_BOUND('',#54,.T.);
#41=FACE_OUTER_BOUND('',#55,.T.);
#42=FACE_OUTER_BOUND('',#56,.T.);
#43=EDGE_LOOP('',(#137,#138,#139,#140,#141));
#44=EDGE_LOOP('',(#142));
#45=EDGE_LOOP('',(#143,#144,#145,#146,#147,#148));
#46=EDGE_LOOP('',(#149,#150,#151,#152,#153));
#47=EDGE_LOOP('',(#154,#155,#156,#157));
#48=EDGE_LOOP('',(#158));
#49=EDGE_LOOP('',(#159));
#50=EDGE_LOOP('',(#160,#161,#162,#163));
#51=EDGE_LOOP('',(#164));
#52=EDGE_LOOP('',(#165,#166,#167,#168));
#53=EDGE_LOOP('',(#169,#170,#171,#172));
#54=EDGE_LOOP('',(#173,#174,#175,#176));
#55=EDGE_LOOP('',(#177,#178,#179,#180));
#56=EDGE_LOOP('',(#181,#182,#183,#184));
#57=LINE('',#306,#73);
#58=LINE('',#314,#74);
#59=LINE('',#318,#75);
#60=LINE('',#324,#76);
#61=LINE('',#330,#77);
#62=LINE('',#332,#78);
#63=LINE('',#334,#79);
#64=LINE('',#335,#80);
#65=LINE('',#338,#81);
#66=LINE('',#340,#82);
#67=LINE('',#341,#83);
#68=LINE('',#344,#84);
#69=LINE('',#346,#85);
#70=LINE('',#347,#86);
#71=LINE('',#349,#87);
#72=LINE('',#350,#88);
#73=VECTOR('',#248,4.525);
#74=VECTOR('',#259,4.85);
#75=VECTOR('',#264,6.);
#76=VECTOR('',#271,8.5);
#77=VECTOR('',#278,10.);
#78=VECTOR('',#279,10.);
#79=VECTOR('',#280,10.);
#80=VECTOR('',#281,10.);
#81=VECTOR('',#284,10.);
#82=VECTOR('',#285,10.);
#83=VECTOR('',#286,10.);
#84=VECTOR('',#289,10.);
#85=VECTOR('',#290,10.);
#86=VECTOR('',#291,10.);
#87=VECTOR('',#294,10.);
#88=VECTOR('',#295,10.);
#89=CIRCLE('',#223,3.7);
#90=CIRCLE('',#224,5.35);
#91=CIRCLE('',#225,3.7);
#92=CIRCLE('',#228,6.);
#93=CIRCLE('',#229,6.);
#94=CIRCLE('',#231,6.);
#95=CIRCLE('',#233,8.5);
#96=CIRCLE('',#234,8.5);
#97=VERTEX_POINT('',#302);
#98=VERTEX_POINT('',#303);
#99=VERTEX_POINT('',#305);
#100=VERTEX_POINT('',#311);
#101=VERTEX_POINT('',#312);
#102=VERTEX_POINT('',#317);
#103=VERTEX_POINT('',#321);
#104=VERTEX_POINT('',#323);
#105=VERTEX_POINT('',#328);
#106=VERTEX_POINT('',#329);
#107=VERTEX_POINT('',#331);
#108=VERTEX_POINT('',#333);
#109=VERTEX_POINT('',#337);
#110=VERTEX_POINT('',#339);
#111=VERTEX_POINT('',#343);
#112=VERTEX_POINT('',#345);
#113=EDGE_CURVE('',#97,#98,#89,.T.);
#114=EDGE_CURVE('',#98,#99,#57,.T.);
#115=EDGE_CURVE('',#99,#99,#90,.T.);
#116=EDGE_CURVE('',#98,#97,#91,.T.);
#117=EDGE_CURVE('',#100,#101,#92,.T.);
#118=EDGE_CURVE('',#100,#97,#58,.T.);
#119=EDGE_CURVE('',#101,#100,#93,.T.);
#120=EDGE_CURVE('',#101,#102,#59,.T.);
#121=EDGE_CURVE('',#102,#102,#94,.T.);
#122=EDGE_CURVE('',#103,#103,#95,.T.);
#123=EDGE_CURVE('',#103,#104,#60,.T.);
#124=EDGE_CURVE('',#104,#104,#96,.T.);
#125=EDGE_CURVE('',#105,#106,#61,.T.);
#126=EDGE_CURVE('',#106,#107,#62,.T.);
#127=EDGE_CURVE('',#108,#107,#63,.T.);
#128=EDGE_CURVE('',#105,#108,#64,.T.);
#129=EDGE_CURVE('',#109,#105,#65,.T.);
#130=EDGE_CURVE('',#110,#108,#66,.T.);
#131=EDGE_CURVE('',#109,#110,#67,.T.);
#132=EDGE_CURVE('',#111,#109,#68,.T.);
#133=EDGE_CURVE('',#112,#110,#69,.T.);
#134=EDGE_CURVE('',#111,#112,#70,.T.);
#135=EDGE_CURVE('',#106,#111,#71,.T.);
#136=EDGE_CURVE('',#107,#112,#72,.T.);
#137=ORIENTED_EDGE('',*,*,#113,.T.);
#138=ORIENTED_EDGE('',*,*,#114,.T.);
#139=ORIENTED_EDGE('',*,*,#115,.F.);
#140=ORIENTED_EDGE('',*,*,#114,.F.);
#141=ORIENTED_EDGE('',*,*,#116,.T.);
#142=ORIENTED_EDGE('',*,*,#115,.T.);
#143=ORIENTED_EDGE('',*,*,#117,.F.);
#144=ORIENTED_EDGE('',*,*,#118,.T.);
#145=ORIENTED_EDGE('',*,*,#116,.F.);
#146=ORIENTED_EDGE('',*,*,#113,.F.);
#147=ORIENTED_EDGE('',*,*,#118,.F.);
#148=ORIENTED_EDGE('',*,*,#119,.F.);
#149=ORIENTED_EDGE('',*,*,#117,.T.);
#150=ORIENTED_EDGE('',*,*,#120,.T.);
#151=ORIENTED_EDGE('',*,*,#121,.F.);
#152=ORIENTED_EDGE('',*,*,#120,.F.);
#153=ORIENTED_EDGE('',*,*,#119,.T.);
#154=ORIENTED_EDGE('',*,*,#122,.F.);
#155=ORIENTED_EDGE('',*,*,#123,.T.);
#156=ORIENTED_EDGE('',*,*,#124,.F.);
#157=ORIENTED_EDGE('',*,*,#123,.F.);
#158=ORIENTED_EDGE('',*,*,#122,.T.);
#159=ORIENTED_EDGE('',*,*,#121,.T.);
#160=ORIENTED_EDGE('',*,*,#125,.T.);
#161=ORIENTED_EDGE('',*,*,#126,.T.);
#162=ORIENTED_EDGE('',*,*,#127,.F.);
#163=ORIENTED_EDGE('',*,*,#128,.F.);
#164=ORIENTED_EDGE('',*,*,#124,.T.);
#165=ORIENTED_EDGE('',*,*,#129,.T.);
#166=ORIENTED_EDGE('',*,*,#128,.T.);
#167=ORIENTED_EDGE('',*,*,#130,.F.);
#168=ORIENTED_EDGE('',*,*,#131,.F.);
#169=ORIENTED_EDGE('',*,*,#132,.T.);
#170=ORIENTED_EDGE('',*,*,#131,.T.);
#171=ORIENTED_EDGE('',*,*,#133,.F.);
#172=ORIENTED_EDGE('',*,*,#134,.F.);
#173=ORIENTED_EDGE('',*,*,#135,.T.);
#174=ORIENTED_EDGE('',*,*,#134,.T.);
#175=ORIENTED_EDGE('',*,*,#136,.F.);
#176=ORIENTED_EDGE('',*,*,#126,.F.);
#177=ORIENTED_EDGE('',*,*,#136,.T.);
#178=ORIENTED_EDGE('',*,*,#133,.T.);
#179=ORIENTED_EDGE('',*,*,#130,.T.);
#180=ORIENTED_EDGE('',*,*,#127,.T.);
#181=ORIENTED_EDGE('',*,*,#135,.F.);
#182=ORIENTED_EDGE('',*,*,#125,.F.);
#183=ORIENTED_EDGE('',*,*,#129,.F.);
#184=ORIENTED_EDGE('',*,*,#132,.F.);
#185=CONICAL_SURFACE('',#222,4.525,0.0624188099959574);
#186=CONICAL_SURFACE('',#227,4.85,0.396081441564307);
#187=ADVANCED_FACE('',(#31),#185,.T.);
#188=ADVANCED_FACE('',(#32),#23,.T.);
#189=ADVANCED_FACE('',(#33),#186,.T.);
#190=ADVANCED_FACE('',(#34),#21,.T.);
#191=ADVANCED_FACE('',(#35),#22,.T.);
#192=ADVANCED_FACE('',(#36,#19),#24,.T.);
#193=ADVANCED_FACE('',(#37,#20),#25,.T.);
#194=ADVANCED_FACE('',(#38),#26,.T.);
#195=ADVANCED_FACE('',(#39),#27,.T.);
#196=ADVANCED_FACE('',(#40),#28,.T.);
#197=ADVANCED_FACE('',(#41),#29,.T.);
#198=ADVANCED_FACE('',(#42),#30,.F.);
#199=CLOSED_SHELL('',(#187,#188,#189,#190,#191,#192,#193,#194,#195,#196,
#197,#198));
#200=DERIVED_UNIT_ELEMENT(#203,1.);
#201=DERIVED_UNIT_ELEMENT(#360,-3.);
#202=DIMENSIONAL_EXPONENTS(0.,1.,0.,0.,0.,0.,0.);
#203=(
CONVERSION_BASED_UNIT('gram',#205)
MASS_UNIT()
NAMED_UNIT(#202)
);
#204=(
MASS_UNIT()
NAMED_UNIT(*)
SI_UNIT(.KILO.,.GRAM.)
);
#205=MASS_MEASURE_WITH_UNIT(MASS_MEASURE(0.001),#204);
#206=DERIVED_UNIT((#200,#201));
#207=MEASURE_REPRESENTATION_ITEM('density measure',
POSITIVE_RATIO_MEASURE(8.),#206);
#208=PROPERTY_DEFINITION_REPRESENTATION(#213,#210);
#209=PROPERTY_DEFINITION_REPRESENTATION(#214,#211);
#210=REPRESENTATION('material name',(#212),#357);
#211=REPRESENTATION('density',(#207),#357);
#212=DESCRIPTIVE_REPRESENTATION_ITEM('Stainless Steel',
'Stainless Steel');
#213=PROPERTY_DEFINITION('material property','material name',#367);
#214=PROPERTY_DEFINITION('material property','density of part',#367);
#215=DATE_TIME_ROLE('creation_date');
#216=APPLIED_DATE_AND_TIME_ASSIGNMENT(#217,#215,(#367));
#217=DATE_AND_TIME(#218,#219);
#218=CALENDAR_DATE(2026,7,4);
#219=LOCAL_TIME(0,0,0.,#220);
#220=COORDINATED_UNIVERSAL_TIME_OFFSET(0,0,.BEHIND.);
#221=AXIS2_PLACEMENT_3D('',#300,#242,#243);
#222=AXIS2_PLACEMENT_3D('',#301,#244,#245);
#223=AXIS2_PLACEMENT_3D('',#304,#246,#247);
#224=AXIS2_PLACEMENT_3D('',#307,#249,#250);
#225=AXIS2_PLACEMENT_3D('',#308,#251,#252);
#226=AXIS2_PLACEMENT_3D('',#309,#253,#254);
#227=AXIS2_PLACEMENT_3D('',#310,#255,#256);
#228=AXIS2_PLACEMENT_3D('',#313,#257,#258);
#229=AXIS2_PLACEMENT_3D('',#315,#260,#261);
#230=AXIS2_PLACEMENT_3D('',#316,#262,#263);
#231=AXIS2_PLACEMENT_3D('',#319,#265,#266);
#232=AXIS2_PLACEMENT_3D('',#320,#267,#268);
#233=AXIS2_PLACEMENT_3D('',#322,#269,#270);
#234=AXIS2_PLACEMENT_3D('',#325,#272,#273);
#235=AXIS2_PLACEMENT_3D('',#326,#274,#275);
#236=AXIS2_PLACEMENT_3D('',#327,#276,#277);
#237=AXIS2_PLACEMENT_3D('',#336,#282,#283);
#238=AXIS2_PLACEMENT_3D('',#342,#287,#288);
#239=AXIS2_PLACEMENT_3D('',#348,#292,#293);
#240=AXIS2_PLACEMENT_3D('',#351,#296,#297);
#241=AXIS2_PLACEMENT_3D('',#352,#298,#299);
#242=DIRECTION('axis',(0.,0.,1.));
#243=DIRECTION('refdir',(1.,0.,0.));
#244=DIRECTION('center_axis',(0.,0.,1.));
#245=DIRECTION('ref_axis',(0.,1.,0.));
#246=DIRECTION('center_axis',(0.,0.,1.));
#247=DIRECTION('ref_axis',(0.,-1.,0.));
#248=DIRECTION('',(7.63913684762395E-18,-0.0623782861551806,0.998052578482889));
#249=DIRECTION('center_axis',(0.,0.,1.));
#250=DIRECTION('ref_axis',(1.,0.,0.));
#251=DIRECTION('center_axis',(0.,0.,1.));
#252=DIRECTION('ref_axis',(0.,-1.,0.));
#253=DIRECTION('center_axis',(0.,0.,1.));
#254=DIRECTION('ref_axis',(1.,0.,0.));
#255=DIRECTION('center_axis',(0.,0.,-1.));
#256=DIRECTION('ref_axis',(0.,-1.,0.));
#257=DIRECTION('center_axis',(0.,0.,-1.));
#258=DIRECTION('ref_axis',(1.,0.,0.));
#259=DIRECTION('',(4.7247624273781E-17,-0.385806130442481,0.922579877145063));
#260=DIRECTION('center_axis',(0.,0.,-1.));
#261=DIRECTION('ref_axis',(1.,0.,0.));
#262=DIRECTION('center_axis',(0.,0.,1.));
#263=DIRECTION('ref_axis',(1.,0.,0.));
#264=DIRECTION('',(0.,0.,-1.));
#265=DIRECTION('center_axis',(0.,0.,-1.));
#266=DIRECTION('ref_axis',(1.,0.,0.));
#267=DIRECTION('center_axis',(0.,0.,1.));
#268=DIRECTION('ref_axis',(1.,0.,0.));
#269=DIRECTION('center_axis',(0.,0.,1.));
#270=DIRECTION('ref_axis',(1.,0.,0.));
#271=DIRECTION('',(0.,0.,-1.));
#272=DIRECTION('center_axis',(0.,0.,-1.));
#273=DIRECTION('ref_axis',(1.,0.,0.));
#274=DIRECTION('center_axis',(0.,0.,1.));
#275=DIRECTION('ref_axis',(1.,0.,0.));
#276=DIRECTION('center_axis',(0.,0.,1.));
#277=DIRECTION('ref_axis',(0.,-1.,0.));
#278=DIRECTION('',(0.,-1.,0.));
#279=DIRECTION('',(1.,0.,0.));
#280=DIRECTION('',(0.,-1.,0.));
#281=DIRECTION('',(1.,0.,0.));
#282=DIRECTION('center_axis',(0.,1.,0.));
#283=DIRECTION('ref_axis',(0.,0.,1.));
#284=DIRECTION('',(0.,0.,1.));
#285=DIRECTION('',(0.,0.,1.));
#286=DIRECTION('',(1.,0.,0.));
#287=DIRECTION('center_axis',(0.,0.,-1.));
#288=DIRECTION('ref_axis',(0.,1.,0.));
#289=DIRECTION('',(0.,1.,0.));
#290=DIRECTION('',(0.,1.,0.));
#291=DIRECTION('',(1.,0.,0.));
#292=DIRECTION('center_axis',(0.,-1.,0.));
#293=DIRECTION('ref_axis',(0.,0.,-1.));
#294=DIRECTION('',(0.,0.,-1.));
#295=DIRECTION('',(0.,0.,-1.));
#296=DIRECTION('center_axis',(1.,0.,0.));
#297=DIRECTION('ref_axis',(0.,0.,-1.));
#298=DIRECTION('center_axis',(1.,0.,0.));
#299=DIRECTION('ref_axis',(0.,0.,-1.));
#300=CARTESIAN_POINT('',(0.,0.,0.));
#301=CARTESIAN_POINT('Origin',(9.,0.,40.2));
#302=CARTESIAN_POINT('',(9.,3.7,27.));
#303=CARTESIAN_POINT('',(9.,-3.7,27.));
#304=CARTESIAN_POINT('Origin',(9.,0.,27.));
#305=CARTESIAN_POINT('',(9.,-5.35,53.4));
#306=CARTESIAN_POINT('',(9.,-4.525,40.2));
#307=CARTESIAN_POINT('Origin',(9.,0.,53.4));
#308=CARTESIAN_POINT('Origin',(9.,0.,27.));
#309=CARTESIAN_POINT('Origin',(9.,0.,53.4));
#310=CARTESIAN_POINT('Origin',(9.,0.,24.25));
#311=CARTESIAN_POINT('',(9.,6.,21.5));
#312=CARTESIAN_POINT('',(3.,-7.34788079488412E-16,21.5));
#313=CARTESIAN_POINT('Origin',(9.,0.,21.5));
#314=CARTESIAN_POINT('',(9.,4.85,24.25));
#315=CARTESIAN_POINT('Origin',(9.,0.,21.5));
#316=CARTESIAN_POINT('Origin',(9.,0.,14.));
#317=CARTESIAN_POINT('',(3.,-7.34788079488412E-16,14.));
#318=CARTESIAN_POINT('',(3.,-7.34788079488412E-16,14.));
#319=CARTESIAN_POINT('Origin',(9.,0.,14.));
#320=CARTESIAN_POINT('Origin',(9.,0.,9.));
#321=CARTESIAN_POINT('',(0.499999999999999,-1.04094977927525E-15,14.));
#322=CARTESIAN_POINT('Origin',(9.,0.,14.));
#323=CARTESIAN_POINT('',(0.499999999999999,-1.04094977927525E-15,9.));
#324=CARTESIAN_POINT('',(0.499999999999999,-1.04094977927525E-15,9.));
#325=CARTESIAN_POINT('Origin',(9.,0.,9.));
#326=CARTESIAN_POINT('Origin',(9.,0.,14.));
#327=CARTESIAN_POINT('Origin',(0.,15.,9.));
#328=CARTESIAN_POINT('',(0.,15.,9.));
#329=CARTESIAN_POINT('',(0.,-15.,9.));
#330=CARTESIAN_POINT('',(0.,15.,9.));
#331=CARTESIAN_POINT('',(18.,-15.,9.));
#332=CARTESIAN_POINT('',(0.,-15.,9.));
#333=CARTESIAN_POINT('',(18.,15.,9.));
#334=CARTESIAN_POINT('',(18.,15.,9.));
#335=CARTESIAN_POINT('',(0.,15.,9.));
#336=CARTESIAN_POINT('Origin',(0.,15.,-9.));
#337=CARTESIAN_POINT('',(0.,15.,-9.));
#338=CARTESIAN_POINT('',(0.,15.,-9.));
#339=CARTESIAN_POINT('',(18.,15.,-9.));
#340=CARTESIAN_POINT('',(18.,15.,-9.));
#341=CARTESIAN_POINT('',(0.,15.,-9.));
#342=CARTESIAN_POINT('Origin',(0.,-15.,-9.));
#343=CARTESIAN_POINT('',(0.,-15.,-9.));
#344=CARTESIAN_POINT('',(0.,-15.,-9.));
#345=CARTESIAN_POINT('',(18.,-15.,-9.));
#346=CARTESIAN_POINT('',(18.,-15.,-9.));
#347=CARTESIAN_POINT('',(0.,-15.,-9.));
#348=CARTESIAN_POINT('Origin',(0.,-15.,9.));
#349=CARTESIAN_POINT('',(0.,-15.,9.));
#350=CARTESIAN_POINT('',(18.,-15.,9.));
#351=CARTESIAN_POINT('Origin',(18.,0.,0.));
#352=CARTESIAN_POINT('Origin',(0.,0.,0.));
#353=CARTESIAN_POINT('',(0.,0.,0.));
#354=CARTESIAN_POINT('',(0.,0.,0.));
#355=UNCERTAINTY_MEASURE_WITH_UNIT(LENGTH_MEASURE(0.01),#359,
'DISTANCE_ACCURACY_VALUE',
'Maximum model space distance between geometric entities at asserted c
onnectivities');
#356=UNCERTAINTY_MEASURE_WITH_UNIT(LENGTH_MEASURE(0.01),#359,
'DISTANCE_ACCURACY_VALUE',
'Maximum model space distance between geometric entities at asserted c
onnectivities');
#357=(
GEOMETRIC_REPRESENTATION_CONTEXT(3)
GLOBAL_UNCERTAINTY_ASSIGNED_CONTEXT((#355))
GLOBAL_UNIT_ASSIGNED_CONTEXT((#359,#361,#362))
REPRESENTATION_CONTEXT('','3D')
);
#358=(
GEOMETRIC_REPRESENTATION_CONTEXT(3)
GLOBAL_UNCERTAINTY_ASSIGNED_CONTEXT((#356))
GLOBAL_UNIT_ASSIGNED_CONTEXT((#359,#361,#362))
REPRESENTATION_CONTEXT('','3D')
);
#359=(
LENGTH_UNIT()
NAMED_UNIT(*)
SI_UNIT(.MILLI.,.METRE.)
);
#360=(
LENGTH_UNIT()
NAMED_UNIT(*)
SI_UNIT(.CENTI.,.METRE.)
);
#361=(
NAMED_UNIT(*)
PLANE_ANGLE_UNIT()
SI_UNIT($,.RADIAN.)
);
#362=(
NAMED_UNIT(*)
SI_UNIT($,.STERADIAN.)
SOLID_ANGLE_UNIT()
);
#363=SHAPE_DEFINITION_REPRESENTATION(#364,#365);
#364=PRODUCT_DEFINITION_SHAPE('',$,#367);
#365=SHAPE_REPRESENTATION('',(#221),#357);
#366=PRODUCT_DEFINITION_CONTEXT('part definition',#371,'design');
#367=PRODUCT_DEFINITION('NKK_S1AL','NKK_S1AL',#368,#366);
#368=PRODUCT_DEFINITION_FORMATION('',$,#373);
#369=PRODUCT_RELATED_PRODUCT_CATEGORY('NKK_S1AL','NKK_S1AL',(#373));
#370=APPLICATION_PROTOCOL_DEFINITION('international standard',
'automotive_design',2009,#371);
#371=APPLICATION_CONTEXT(
'Core Data for Automotive Mechanical Design Process');
#372=PRODUCT_CONTEXT('part definition',#371,'mechanical');
#373=PRODUCT('NKK_S1AL','NKK_S1AL',$,(#372));
#374=PRESENTATION_STYLE_ASSIGNMENT((#376));
#375=PRESENTATION_STYLE_ASSIGNMENT((#377));
#376=SURFACE_STYLE_USAGE(.BOTH.,#380);
#377=SURFACE_STYLE_USAGE(.BOTH.,#381);
#378=SURFACE_STYLE_RENDERING_WITH_PROPERTIES($,#388,(#379));
#379=SURFACE_STYLE_TRANSPARENT(0.);
#380=SURFACE_SIDE_STYLE('',(#382,#378));
#381=SURFACE_SIDE_STYLE('',(#383));
#382=SURFACE_STYLE_FILL_AREA(#384);
#383=SURFACE_STYLE_FILL_AREA(#385);
#384=FILL_AREA_STYLE('',(#386));
#385=FILL_AREA_STYLE('',(#387));
#386=FILL_AREA_STYLE_COLOUR('',#388);
#387=FILL_AREA_STYLE_COLOUR('',#389);
#388=COLOUR_RGB('',0.745098039215686,0.737254901960784,0.729411764705882);
#389=COLOUR_RGB('',0.913725490196078,0.913725490196078,0.);
ENDSEC;
END-ISO-10303-21;
